<svg xmlns="http://www.w3.org/2000/svg" id="Layer_1" viewBox="0 0 18.32 12.21"><defs><style>.cls-1{fill:#291e10;}</style></defs><path id="Icon_ionic-ios-arrow-round-forward" class="cls-1" d="M11.69,11.98c-.32-.32-.33-.84,0-1.17l3.87-3.87H.83c-.46,0-.83-.37-.83-.83s.37-.83,.83-.83H15.54l-3.87-3.87c-.32-.33-.31-.85,0-1.17,.32-.32,.84-.32,1.16,0,0,0,0,0,0,0l5.24,5.28h0c.07,.08,.13,.16,.17,.26,.04,.1,.06,.21,.06,.32,0,.22-.08,.42-.24,.58l-5.24,5.28c-.31,.32-.82,.34-1.15,.03,0,0,0,0-.01-.01Z"></path></svg>