<svg xmlns="http://www.w3.org/2000/svg" id="Lag_1" width="319.31" height="459.04" viewBox="0 0 319.31 459.04"><defs><style>.cls-1{fill:#efe9e4;}</style></defs><path class="cls-1" d="M270.02,145.13c6.35,3.37,8.39,9.43,5.19,19.17-3.15,9.58-5.34,19.23-5.04,29.36,.04,1.31,.19,2.61,.3,4.09,3.67-.35,7.1-.68,10.53-1.01,20.84-1.97,35.86,15.96,37.83,32.32,2.77,23.04-6.53,40.67-24.07,54.31-4.72,3.67-11.35,4.89-17.42,7.37,2.93,3.78,6.22,8.23,9.73,12.51,15.27,18.65,14.87,40.84,5.42,60.62-4.68,9.81-14.87,14.89-24.52,19.7-13.39,6.67-25.55,.71-37.91-3.4-.73-.24-1.42-.9-1.89-1.54-10.49-14.21-14.26-30.31-12.23-47.61,.64-5.47,3.56-10.66,5.28-16.02,1.19-3.71,2.12-7.51,2.48-11.53-6.57,7.28-11.27,15.45-13.7,24.88-1.89,7.35-2.56,15.2-8.96,20.7-.75,.64-.3,3.06,.05,4.55,3.57,15.25,12.98,26.6,24.1,37.09,5.61,5.29,9.95,11.92,14.98,17.84,.96,1.13,2.42,1.88,3.75,2.61,.85,.47,1.93,.5,2.85,.87,5.3,2.11,8.84,7.21,8.48,12.36-.37,5.43-4.01,7.66-9.31,8.62,1.51,8.52,7.98,14.25,12.16,21.82-5.46-1.18-11.83-10.38-16.14-22.5-.49,9.92,6.46,16.16,8.43,24.19-7.57-6.95-11.36-15.71-12.83-25.7-1.67,10.1,5.64,18.06,7.49,28.21-5.64-4.06-9.87-16.01-11.91-30.5-3.05,10.39,4.96,19.76,3.91,29.97-.67,.13-1.35,.26-2.02,.39-2.31-9.92-4.62-19.83-6.72-28.87-2.32,8.9,4.09,18.59,2.22,28.48-.67,.06-1.35,.11-2.02,.17-1.41-9.87-2.81-19.73-4.22-29.6-.15-.04-.31-.08-.46-.11,0,4.77-.2,9.56,.06,14.32,.27,4.9,.04,9.58-1.71,14.03-.58-.04-1.15-.09-1.73-.13v-24.28c-1.87,6.22-.76,12.99-6.03,18.39,0-1.11-.1-2.23,.02-3.33,.56-5.11,1.28-10.21,1.69-15.33,.09-1.1-.62-2.53-1.41-3.4-7.09-7.7-6.47-12.88,2.38-18.85,.25-.17,.39-.52,.94-1.28-2.62-2.16-5.24-4.38-7.93-6.51-14.97-11.84-23.82-27.55-28.63-45.7-.68-2.57-1.55-3.83-4.04-4.79-7.59-2.92-15.01-7-23.41-5.69-7.47,1.17-14.79,3.35-22.14,5.24-.64,.16-1.12,1.5-1.41,2.38-6.51,20.2-18.06,36.57-36.29,47.9-1.39,.86-2.58,2.05-3.18,2.53,2.21,3.75,4.75,6.93,6.03,10.55,1.34,3.8-.87,6.88-3.83,9.58-1.45,1.32-2.63,3.72-2.65,5.65-.05,4.95,.64,9.91,.96,14.88,.05,.7-.31,1.43-.77,3.37-5.31-7.16-2.32-14.63-4.37-21.22-.63,8.43-1.27,16.86-1.9,25.31-2.65-1.85-3.25-5.59-2.36-13.46,.55-4.92,.98-9.85,.58-14.89-2.06,9.81-4.11,19.61-6.17,29.42-.63-.1-1.26-.2-1.9-.3-1.27-10.04,5.35-19.3,4.04-29.03-2.79,9.44-5.69,19.22-8.58,28.99-.66-.18-1.32-.36-1.98-.54-.51-10.13,8.06-18.71,5.61-29.22-.89,11.11-6.29,20.23-11.69,29.35-.61-.19-1.23-.38-1.84-.57,.5-1.6,.86-3.26,1.53-4.78,2.51-5.79,5.22-11.49,7.63-17.32,.66-1.6,.53-3.54,.21-5.55-2.23,10.08-6.59,18.82-14.79,25.42,2.95-7.89,9.78-14.1,10.31-24.57-3.94,9.88-8.9,17.26-15.91,23.11-.47-.29-.95-.59-1.42-.88,4.55-6.53,9.1-13.06,13.47-19.34-.8-1.05-.94-1.47-1.19-1.54-4.93-1.46-8.4-4.11-7.99-9.86,.38-5.37,4.77-10.56,10.46-11.2,3.5-.39,4.95-2.29,6.95-4.63,4.51-5.27,9.16-10.59,14.52-14.95,11.57-9.42,21.5-19.85,26.39-34.36,1.02-3.01,1.04-4.96-.8-8.01-2.73-4.54-4.46-9.99-5.35-15.26-1.8-10.74-6.16-20.24-11.67-29.35-.5,.09-1.01,.18-1.51,.26,.46,3.21,.19,6.77,1.51,9.58,6.82,14.51,6.08,29.38,1.23,43.84-2.57,7.66-7.91,14.44-12.33,21.41-.82,1.29-3.11,1.97-4.85,2.31-6.36,1.23-12.75,2.49-19.18,3.2-12.42,1.38-20.55-6.93-29.51-13.46-17.41-12.7-17.55-48.95-5.16-64.68,5.23-6.63,10.83-12.97,16.34-19.53-3.52-1.1-7.29-1.79-10.64-3.39C10.07,269.97-2.8,243.37,.52,222.78c2.46-15.23,9.91-26.25,24.29-32.25,6.45-2.69,13.42-2.62,26.45,.24,1.46-8.78,1.83-17.57-.54-26.11-1.86-6.7-2.92-13.38-1.48-20.06,.57-2.64,3.56-4.77,5.44-7.13,.58,.27,1.17,.53,1.75,.8,0-10.94,.05-21.88-.06-32.82-.01-1.39-.59-2.95-1.37-4.14-14.61-22.24-19.63-46.55-16.55-72.86,1.09-9.26,4.67-17.25,9.66-24.85,1.85-2.82,4.13-4.37,7.52-3.19,3.49,1.21,2.48,4.13,2.44,6.76-.3,22.74,13.19,46.76,38.14,52.93,11.31,2.8,21.32-.69,30.18-8.87,3.95-3.64,9.9-5.62,15.28-7.07,5.38-1.45,11.18-1.58,16.81-1.77,5.11-.17,10.26,.17,15.36,.64,3.13,.29,6.16,1.65,9.29,1.85,10.29,.66,18.71,4.79,26.19,11.89,9.22,8.76,26.88,9.79,39.93,2.16,17.36-10.14,25.32-26.09,26.67-45.79,.13-1.83,1.57-5.05,2.42-5.05,2.3-.02,5.91,.71,6.68,2.28,3.26,6.65,7.22,13.52,8.12,20.67,3.59,28.42-3.08,54.45-20.46,77.61-1.9,2.54-2.44,6.52-2.57,9.88-.35,8.79-.12,17.6-.12,26.65ZM52,248.67c-.16-2.39-.25-4.79-.51-7.17-.2-1.87-.61-3.73-.93-5.59-.46,0-.92,0-1.38-.01-1.08,1.79-2.17,3.59-3.25,5.38,.99-2.22,1.95-4.45,2.98-6.65,1.38-2.93,.5-4.83-2.33-4.95,.95-1.02,1.9-2.05,3.87-4.18-2.5-.62-4.52-1.84-5.8-1.31-4.72,1.97-5.94,6.69-3.66,12.41,.64-1.04,1.23-2.02,1.83-3-1.12,3.81-2.08,7.59,1.44,11.19,.71-1.44,1.26-2.56,1.81-3.69,.07,1.94-.24,3.99,.28,5.81,.85,2.99,3.84,3.7,5.53,1.61,1.94,2.91,4.48,3.96,8.47,2.66-2.29-3.66-4.33-6.92-6.37-10.18-.49,.16-.98,.33-1.47,.49-.17,2.39-.34,4.78-.5,7.17Zm220.93-12.26c-.98,.69-2.84,1.46-2.78,2.04,.22,2.04,1.09,4.01,1.71,6-3.68-2.4-4.48,0-4.83,2.95-.31,2.7-.49,5.41-.74,8.14-.12-2.35-.23-4.71-.35-7.06-.45-.18-.89-.36-1.34-.54-2.23,3.12-4.46,6.23-6.89,9.63,3.88,1.77,6.61,.98,8.71-2.21,.67,.6,1.52,1.83,1.97,1.69,4.02-1.21,4.75-4.44,4.58-8.11,.47,.93,.94,1.86,1.42,2.8,.48,.01,.96,.03,1.44,.04,.41-3,.82-6.01,1.22-9.01l2.05-.07c-.39-2.79-.02-6.03-1.34-8.28-2.78-4.75-5-4.56-7.42-.16,.85,.71,1.71,1.43,2.57,2.15Zm-44.97,171.24c.55-4.67,1.4-9.47-4.83-12.2,.64,5.8-5.95,11.51,1.41,16.42,.85-.67,1.73-1.37,2.61-2.07-.36,1.19-.72,2.38-1.08,3.54,4.08,1.33,6.41-.01,7.64-3.65,1.42-4.23-1.41-6.16-4.12-8.58-.61,2.46-1.12,4.5-1.63,6.54Zm-140.01-7.53c4.73,0,7.11-2.62,6.63-7.29,1.24,.48,3.19,1.71,3.61,1.31,1.76-1.66,3.06-3.8,4.56-5.81,.22-.02,2.05,.36,2.63-.32,2.18-2.55,6.89-4.09,4.32-8.95,3.75,1.14,6.33-1.86,6.32-7.34,.94-.43,2.38-.6,2.74-1.32,2.78-5.48,5.35-11.07,8.02-16.71-3.07-.99-5.36-1.99-7.75-2.41-1.39-.24-4.03,.13-4.23,.78-1,3.35-1.38,6.89-1.98,10.36-.99,.24-2.67,.24-2.86,.77-1.97,5.37-5.97,9.32-9.25,13.77-.55,.74-1.15,1.58-1.93,1.98-4.81,2.51-6.31,5.83-4.99,11.44-.7-1.57-1.39-3.13-2.09-4.71-5.51,3.29-6.07,5.22-3.84,12.74-.84-2.43-1.69-4.87-2.54-7.33-5.86,3.79-6.41,6.04-3.59,14.2-1.1-2.79-2.21-5.59-3.31-8.38-.4-.2-.8-.4-1.2-.6-1.02,2.98-2.58,5.93-2.78,8.97-.07,1.1,3.02,2.61,4.88,3.46,.39,.18,1.73-1.72,2.63-2.67,.8,.27,2.2,.91,2.3,.75,1.33-2.16,2.49-4.44,3.68-6.69Zm105.41-41.61c.32-1.56,.63-3.12,1.01-5.02-3.55,.72-6.23,1.26-10.2,2.06,2.17,3.71,4.08,6.97,5.99,10.24-.89,3.98,.38,6.99,4.05,8.89,.78,7.38,6.25,11.95,10.48,17.23,.2,.24,1.95-.77,2.98-1.19-.92,4.63,.87,7.04,5.68,7.71,.27,.04,.56,.3,.73,.54,1.58,2.15,3.13,4.31,5.43,7.51,1.63-5.96,5.48-10.7,.97-14.38-3.02-2.46-4.98-5.49-7.55-8.12-.53-.54-1.23-.91-2.07-1.52-.73,2.02-1.32,3.67-1.92,5.32,.11-1.48,.74-3.19,.22-4.4-2.25-5.32-4.77-10.54-7.36-15.7-.57-1.13-1.86-1.89-2.81-2.83-.64-3.68-1.28-7.37-2.11-12.17-1.71,2.82-2.62,4.33-3.54,5.84Zm61.1-82.15c-1.57,2-1.2,3.21,1.15,4.46,3.9,2.07,6.86,.09,9.99-1.64-1.01,1.13-2.01,2.25-4.13,4.63h11.84c.96,.45,1.88,1.21,2.88,1.32,7.38,.76,12.74-1.98,15.36-9.22-.34,1.62-.69,3.23-1.29,6.06,2.58-2.01,4.36-3.01,5.6-4.47,1.91-2.24,2.94-5.53,5.22-7.09,6.74-4.57,10.03-10.2,7.85-18.38,.68,1.21,1.37,2.41,2.14,3.78,3.62-5.98,3.88-9.35,1.31-14.41,.9-.55,2.64-1.27,2.57-1.62-.72-3.51-1.73-6.96-2.67-10.43,.7-.54,2.06-1.21,1.98-1.59-1.04-5.19-1.71-10.81-7.47-13.18-5.88-2.42-11.83-3.52-17.02,1.73,4.5-8.03,11.59-3,17.65-3.38-5.68-8.01-12.24-11.25-18.79-9.33-.15-.88-.06-2.38-.5-2.56-5.07-2.01-14.37,2.36-15.43,7.67-.43,2.15,.57,5.86,2.16,6.82,2.37,1.45,3.96-1,4.48-3.64,.22-1.1,.96-2.09,1.47-3.13-.3,2-.6,4-.99,6.53,3.78,.32,6.93,.58,10.11,.82,2.41,1.92,4.82,3.85,7.23,5.77-.24,4.28,1.27,7.61,5.01,9.95,2.15,1.34,4.1,3.02,6.14,4.54-2.42-1.3-4.84-2.61-7.25-3.91l-1.48,1.21c1.25,3.44,2.5,6.89,3.74,10.33-1.14,.4-2.9,.47-3.31,1.25-1.58,2.99-3.02,6.23,.45,8.43-1.05,0-2.95-.45-3.28,.08-1.67,2.69-2.94,5.64-4.35,8.5-4.6,1.37-8.3,3.78-9.88,8.61,.07-2.22-.67-2.89-3.19-2.95-4.91-.12-6.52,3.55-8.89,6.49,.59-1.65,1.17-3.31,1.93-5.44-4.01,.46-7.61-3.37-11.02,.62,.86-5.32-5.31-4.41-6.37-7.89-4.57,2.54-2.57,5.18-.28,8.05-1.88,.98-3.65,1.54-4.87,2.69-.65,.61-.65,3.18-.39,3.27,1.44,.49,3.04,.49,4.59,.66Zm-198.38-13.73c-3.62-.57-7.24-1.15-10.86-1.72-.2,.54-.4,1.07-.59,1.61l2.16,4.84c-1.03-1.39-2.15-2.73-3.07-4.2-1.68-2.69-6.71-3.69-8.82-1.67-2.73-2.62-5.45-5.25-8.52-8.2-3.56,12.34,.46,26.53,16.37,23.93-.97-1.11-1.77-2.04-2.58-2.97,3.55,2.17,7.21,4.13,11.48,2.39,.67-.27,.79-1.86,1.17-2.85,1.36,.5,2.68,1.23,4.09,1.45,3.74,.59,6.39-1.74,5.52-4.64,1.67-.43,3.33-.86,5-1.29-.82-1.32-1.74-2.59-2.45-3.97-.61-1.19-1.72-3.29-1.34-3.64,3.13-2.91,.55-4.4-.79-6.19-2.12,1.36-4.08,2.34-5.64,3.75-.76,.69-.78,2.21-1.14,3.35Zm-39.53-27.9c.6-.94,1.72-1.9,1.7-2.83-.06-2.77,2.91-5.88-.74-8.3,2.89-3.23,7.09-5.85,5.21-11.28,3.71,1.7,5.62-1.13,7.22-3.44,.34-.49-2.19-2.96-3.39-4.52-.31-.4-.61-.79-.91-1.19,1.18,.55,2.86,.77,3.46,1.7,3.4,5.19,7.73,2.74,13.08,2.03-1.66-2.99-2.94-5.31-4.22-7.63,1.32,1.75,3.45,3.37,3.76,5.29,.55,3.4,2.3,3.88,4.8,3.77,3.09-3.63,3.14-7.06,.32-10.56-3.28-4.09-8.57-5.73-14.12-4.19,.4,.58,.76,1.12,1.13,1.65-7.87-2.01-15.41,1.16-20.05,8.49,.88,.04,1.7,.08,2.52,.11-6.56,2.32-9.22,7.63-10.47,13.9-.13,.64,.89,1.5,1.37,2.26-1.25,3.74-2.49,7.47-3.74,11.21,.45,.26,.89,.53,1.34,.79,.77-.55,1.55-1.11,2.32-1.66-.7,1.47-1.56,2.89-2.08,4.42-1.31,3.92,.69,9.95,3.55,11.08-1.19,6.28,2.99,10.33,6.15,14.8,.16-.44,.32-.89,.49-1.33,.96,1.7,1.75,3.54,2.92,5.08,2.14,2.83,4.51,5.49,7.59,9.19-.64-6.72-2.19-11.84-1.3-16.49,1.06-5.53-1.43-9.08-4.22-13.93-1.25,1.8-2.2,3.17-3.15,4.54,1-1.99,2.71-3.95,2.81-5.98,.12-2.58,1.09-6.31-3.35-7.01Zm33.59,58.89c.02-3.13,.3-6.29-.11-9.37-.13-1-2.05-2.48-3.17-2.5-2.29-.04-8.59,7.87-8.9,10.55-2.9,2.4-5.85,4.74-8.7,7.2-3.55,3.05-3.3,5.86,.72,8.29-2.72-3.05-5.06-1.95-6.62,1.01-1.59,3.01-2.63,6.29-3.82,9.22,2.81,1.06,5.04,1.9,7.27,2.75-2.85-.98-6.68-2.21-7.47,1.53-1.03,4.89-.4,10.15-.29,15.25,0,.45,1.4,.88,2.15,1.31-2.17,3.16-.43,14.13,2.62,15.73,.53,.28,1.52-.32,2.3-.52-.07,1.33-.74,3.2-.11,3.9,2.8,3.11,5.96,5.89,8.61,8.41,2.42-1.52,4.05-2.54,5.68-3.56-4.65,4.7-4.62,4.93,1.37,8.24,1.17,.64,2.35,1.25,3.54,1.84q7.71,3.85,10.58-3.88c.17-.45,.55-.83,.83-1.24-.32,2.48-.64,4.95-1.03,7.98,4.51-.58,8.06-1.14,11.63-1.46,3.41-.3,4.66-1.92,3.75-5.21,1.25,1.2,2.5,3.43,3.74,3.43,4.55-.03,10.05-6.82,10.08-11.75,4.27-2.13,6.67-9.04,5.01-14.38,.77-1.04,2-1.99,2.22-3.14,.65-3.37,1.27-6.83,1.15-10.22-.07-1.93-1.59-3.8-2.46-5.7,3.93,.75,2.61-2.27,2.22-3.66-1.63-5.76-2.33-12.36-9.98-13.83,1.57,.25,3.14,.49,6.63,1.04-2.3-5.36-4.09-9.53-5.88-13.7,.96,.44,1.91,.88,2.91,1.34,1.75-5.93-1.81-11.32-10.71-16.34-.28,1.34-.54,2.54-.79,3.74-3.71-.27-4.37,2.08-4.72,5.1-.66,5.63,2.68,9.55,5.43,13.77-1.06-.86-2.13-1.71-3.7-2.98-.46,6.97,2.84,11.78,5.92,16.66-.53,.99-1.64,2.07-1.5,2.95,.68,4.24,1.7,8.42,2.61,12.62-.68-.8-1.35-1.59-2.03-2.39-.46,.07-.92,.15-1.38,.22,0,4.17,0,8.34,0,12.5-1.14,.78-2.69,1.31-3.34,2.39-1.1,1.82-1.63,3.97-2.4,5.99-.9-.18-2.22-.82-2.62-.45-2.77,2.56-5.34,5.32-7.98,8.02,1.13-2.35,.75-3.9-2.22-3.47-2.88,.42-5.71,1.15-8.56,1.74-.52-.98-.79-2.38-1.61-2.89-6.25-3.84-12.95-4.03-19.84-2.02,4.44-.91,8.87-1.83,14.14-2.91-3.2-3.48-6.44-7-9.68-10.53,.99,.17,1.98,.34,2.97,.51,.46-.35,.93-.69,1.39-1.04-2.53-5.83-5.05-11.66-7.55-17.46,1.79,1.95,3.57,3.91,5.36,5.86,.38-.11,.77-.22,1.15-.33l-1.9-15c.67,1.26,1.35,2.52,2.23,4.17,5.12-7.2,7.03-14.51,4.53-22.71,.91,3.53,1.83,7.06,3.15,12.17,2.84-5.05,5.06-9.01,7.28-12.97v3.79c6.59-3.16,10.35-7.6,10.83-14.51-.24,2.34-.47,4.68-.73,7.18,7.72-3.34,10.11-7.77,8.31-14.15-5.85,1.99-11.73,3.99-17.4,5.92-.37,3.9-.74,7.92-1.12,11.96Zm233.83,67.67c-6.54-1.52-13.05-2.12-19.22,1.26-.99,.54-1.48,1.98-2.2,3.01-3.66-1.01-7.33-2.02-12.17-3.36,1.2,3.1,1.79,4.63,2.38,6.16-3.22-4.03-6.44-8.07-9.66-12.1-.4,.22-.8,.44-1.2,.66v8.75c-.77-4.67-1.75-10.57-2.71-16.35-1.29,.08-1.54,.03-1.58,.1-.57,.99-1.12,2-1.67,3,.22-4.46,.53-8.92,.56-13.37,0-.63-1.37-1.28-2.11-1.91,1.12-4.36,2.23-8.71,3.54-13.8-2.62,1.59-4.39,2.65-6.16,3.72,5.87-5.11,10.39-10.98,11.26-19.99-1.35,.93-1.95,1.35-2.56,1.76,2.95-5.67,8-11.14,1.52-18.31-1,1.4-1.72,2.39-2.43,3.38,.33-1.96,.67-3.91,1.08-6.33-9.22,3.75-13.7,9.83-11.89,15.39,1.23-.41,2.46-.83,3.69-1.24-5.5,2.77-5.12,8.14-6.37,14.07,3.37-1.2,5.91-2.11,8.45-3.01-1.51,.95-3.06,2.75-4.54,2.69-4.61-.17-5.89,2.77-7.04,6.21-1.07,3.22-2.23,6.42-3.36,9.62,.45,.24,.9,.47,1.35,.71,2.9-1.09,5.81-2.17,8.71-3.26-.64,.5-1.23,1.35-1.92,1.45-9.66,1.36-8.85,8.12-7.86,15.01,.16,1.15-.19,2.59,.39,3.39,.6,.82,2.06,1.02,3.14,1.49-4.62,3.66-1.22,7.74-.52,11.61,.55,2.99,2.37,4.15,5.32,2.57-2.88,1.64-2.29,3.48-1.09,6.18,3.01,6.77,9.54,7.4,15.24,9.34,3.64,1.24,7.59,1.55,11.61,2.32v-9.15c.51,2.24,.81,4.55,1.6,6.68,.42,1.13,2.1,2.93,2.51,2.76,5.58-2.35,12.38-2.56,15.96-8.61,5.4-.67,11.71-6.66,11.66-11.09,.88-.02,2.47,.16,2.54-.08,1.36-4.88,2.54-9.82,3.76-14.74,.77-4.22,1.98-8.42,2.21-12.67,.36-6.67-.92-7.41-7.55-5.63,2.37-.81,4.73-1.62,7.43-2.55-2.04-9.86-7.31-18.11-13.69-25.7-.64-.76-2.91-.16-4.42-.19,.45-1.23,1.66-2.98,1.22-3.61-1.96-2.87-4.15-5.67-6.74-7.95-.95-.83-3.24-.13-4.16-.13-6.53-2.84-12.68-5.51-18.87-8.2-.85,8.59,.64,11.51,7.58,14.61,.13-2.01,.26-3.92,.38-5.84-.32,6.6,3.78,10.42,8.52,13.78,.28,.2,1.31-.66,1.51-.78,2.01,3.07,4.14,6.32,6.6,10.08,1.09-3.5,1.8-5.82,2.52-8.14-1.77,7.13,.15,13.48,3.92,19.79,.86-1.08,1.49-1.85,2.02-2.52-.59,3.58-1.34,7.11-1.67,10.68-.09,.99,1.07,2.1,1.66,3.16-.89,3.44-1.68,6.92-2.72,10.32-.78,2.55,.4,2.83,2.41,2.48-3.18,3.01-6.36,6.02-9.71,9.19,5.32,1.27,9.41,2.25,13.5,3.23Zm-41.42-128.91c.23,4.48,1.74,9.72,.45,14.16-2.09,7.19,1.6,11.11,5.56,15.54,7.97-7.03,11.9-14.3,6.51-25.04-2.87-5.73-3.38-12.82-4.13-19.39-.65-5.68,.38-11.58-2.76-16.85-.06-.1,.36-.49,.87-1.14,4.18,1.68,4.72,5.45,5.15,9.2,.69,5.96,.9,11.99,2.04,17.85,.42,2.17,2.6,5.18,4.46,5.59,2.23,.49,5.6-.72,7.38-2.37,4.34-4.04,3.44-9.12,1.84-14.38-4.43-14.52-4.05-29.2-.91-43.94,1.19-5.6,2.19-11.27,2.86-16.96,.58-4.92-3.35-7.49-7.73-4.93-2.5,1.46-5.08,3.62-6.4,6.11-3.87,7.29-7.11,14.92-10.62,22.4-.64,1.36-1.42,2.65-2.14,3.98l-1.93-.71c.6-2.92,1.28-5.83,1.79-8.76,.46-2.66,3.44-5.36-.33-7.99-2.53-1.76-4.5-5.01-7.21-5.68-9.5-2.39-16.15-8.26-21.88-15.66-.88-1.13-1.86-2.64-3.08-2.99-11.74-3.38-16.85-12.19-19.45-23.18-1.46-6.15-2.98-12.29-4.37-18.46-.87-3.86-2.95-6.04-7.03-4.9-11.7,3.25-23.23,2.89-34.67-1.14-3.94-1.39-5.86,.61-6.93,4.19-2.04,6.85-4,13.74-6.36,20.49-3.4,9.75-9.13,17.29-19.95,19.73-1.39,.31-2.66,1.78-3.7,2.96-6.22,7.01-13.25,12.29-22.89,14.14-3.31,.63-6.42,3.94-8.87,6.69-.92,1.03,.25,3.96,.51,6.01,.4,3.17,.83,6.34,1.25,9.52-.71,.15-1.42,.29-2.13,.44-.53-1.2-1.11-2.37-1.57-3.6-2.95-7.71-5.51-15.61-9-23.07-1.44-3.07-4.53-5.85-7.57-7.46-1.52-.8-6.51,1.12-6.63,2.19-.56,4.82-.14,9.8,.34,14.69,.32,3.29,1.67,6.47,1.99,9.76,1.36,13.92,.51,27.63-4.99,40.73-2.08,4.94-1.76,9.7,2.03,13.4,1.61,1.57,4.85,2.61,6.99,2.17,1.82-.38,3.98-3.02,4.49-5.04,1.46-5.79,1.97-11.81,3.24-17.66,.58-2.68,1.9-5.25,3.27-7.66,.41-.72,2.12-.69,3.29-1.02-1.27,4.02-3.06,7.23-3.16,10.49-.31,9.84-2.62,19.1-6.64,27.99-4.57,10.08-3.21,15.83,6.49,23.97,2.03-3.85,5.02-7.34,5.64-11.21,1-6.17,.41-12.59,.49-18.48-.06,0-1.38,.18-2.59-.11-.38-.09-.89-1.76-.6-2.13,.85-1.09,2.05-2.61,3.15-2.64,1.64-.05,3.71,.61,4.88,1.73,1.88,1.81,3.4,4.1,4.66,6.41,4.12,7.56,9.81,11.55,18.96,10.91,3.8-.26,8.64,1.14,11.53,3.55,8.84,7.37,19.2,10.17,30.91,12.22,.14-2.6,1.28-5.73,.2-7.58-2.38-4.09-5.8-7.59-9-11.16-.3-.34-2.29,.27-2.88,.96-.36,.43,.15,2.2,.8,2.75,1.32,1.11,3,1.8,4.6,2.71-1.78,4.95-4.94,4.79-8.61,3.44-9.05-3.32-11.81-7.35-9.88-15.93-7.69,5.38-15.64,5.42-23.8,3.78-5.98-1.21-14.35-10.08-15.25-17,1.86,1.4,3.94,2.88,4.86,4.89,4.05,8.88,11.57,11.08,20.2,10.44,7.01-.52,13.31-2.96,18.13-8.77,1.8-2.17,5.01-3.38,7.81-4.38,.82-.29,2.73,1.47,3.58,2.69,.51,.73-.08,2.22-.28,4.71-3.3-5.83-6.16-5.97-9.01-1.67-1.18,1.78-2.23,3.79-2.75,5.84-.63,2.51-1.66,5.7-.66,7.65,1.85,3.64,7.59,5.64,11.47,5.11-.71-.45-1.23-.76-1.73-1.1-2.83-1.9-3.82-4.42-1.46-7.13,2.3-2.64,5.23-2.99,7.79-.21,1.57,1.7,2.61,3.88,4.2,5.55,1.9,2,3.84,4.39,6.26,5.38,8.46,3.45,17.25,.68,22.8-6.61,.4-.53,.71-1.26,1.25-1.54,2.1-1.06,4.26-2.64,6.43-2.69,1.27-.03,3.83,2.69,3.63,3.76-.38,2.07-2.33,3.84-3.6,5.75-.14,.22-.11,.55-.16,.83,10.15-.42,13.72-5.19,10.63-14.17-.27-.79-.56-1.57-.89-2.33-2.68-6.24-5.26-6.85-10.05-1.98-.29-.9-.92-1.82-.68-2.27,.75-1.39,1.82-3.65,2.8-3.66,2.3-.03,5.04,.48,6.81,1.81,2.01,1.52,2.7,4.86,4.76,6.21,6.56,4.29,13.36,7.64,21.86,6.83,6.96-.66,10.54-4.82,14.17-9.72,1.27-1.72,3.12-3.01,4.71-4.5,.51,.53,1.02,1.07,1.54,1.6-4.26,4.5-7.73,10.86-12.96,13.09-9.15,3.89-19.13,3.12-28.08-3.69,1.11,8.61-3.65,14.21-12.42,15.54-3.49,.53-6.36-.04-6.47-4.72,.94-.44,1.91-.73,2.68-1.3,1.11-.82,2.11-1.8,3.04-2.83,.06-.06-1.06-1.66-1.5-1.6-1.34,.18-2.97,.47-3.86,1.36-1.99,1.99-3.3,4.72-5.43,6.49-3.77,3.13-3.12,6.47-1.74,9.98,11.5-1.11,22.08-3.64,31.55-10.39,3.02-2.15,7.92-2.74,11.81-2.39,8.1,.73,13.88-2.18,18.31-8.66,1.59-2.33,3.14-4.75,5.14-6.69,1.19-1.15,3.22-2.03,4.83-1.96,1.31,.06,2.7,1.57,3.72,2.73,.3,.34-.44,2.37-.89,2.44-1.24,.19-2.57-.25-3.16-.33ZM75.47,155.1c7.09-6.67,11.42-14.89,15.21-23.71,4.81-11.21,9.05-22.58,18.27-31.67,14.68-14.48,31.28-16.46,49.71-10.38,4.39,1.45,8.14,1.72,12.51,.3,21.38-6.97,47.58,4.74,55.94,25.03,3.67,8.92,6.75,18.08,10.14,27.11,2.71,7.19,6.58,13.63,11.62,18.93,4.48-4.95,8.63-9.43,12.61-14.07,.61-.71,.54-2.11,.55-3.19,.05-6.83-.1-13.66,.08-20.49,.19-7.05-.22-7.71-7.35-8.66-1.48-.2-3.09,.06-4.46-.42-3.68-1.27-8.09-1.94-10.73-4.43-8.52-8.02-12.35-18.47-11.95-30.09,.13-3.87-1.02-5.14-4.35-6.26-8.67-2.89-15.76-8.09-22.32-14.59-3.62-3.58-9.16-5.96-14.24-7.17-13.2-3.15-26.62-5.21-40.16-1.46-.62,.17-1.4-.16-1.98,.07-4.96,1.97-10.83,2.95-14.63,6.28-6.96,6.1-14.43,10.75-23.23,13.11-3.55,.96-4.73,2.32-4.68,6.04,.15,10.35-4.56,19.14-10.87,26.76-5.87,7.08-14.77,5.87-22.85,5.85-2.94,0-3.88,.82-3.97,3.53-.29,8.64-.69,17.27-.99,25.91-.03,.93-.05,2.1,.45,2.76,3.69,4.86,7.51,9.62,11.68,14.91Zm-4.99,111.42c2.97,3.8,4.84,7.34,7.7,9.67,17.64,14.36,28.01,32.69,30.89,55.21,.68,5.32,3.4,8.39,8.49,9.76,9.26,2.51,17.11-.02,23.81-6.53,4.4-4.28,9.28-6.36,15.66-6.23,7.01,.14,11.35,3.96,15.7,8.46,6.01,6.24,13.39,8.49,21.86,6.89,5.02-.94,8.28-3.7,9.3-9.06,4.34-22.68,16.11-40.5,35.06-53.74,2.85-1.99,4.66-5.47,7.1-8.46-12.26-6.62-9-7.69-17.67,.37-10.96,10.2-18.59,22.6-23.73,36.52-2.65,7.16-7.35,12.62-12.96,17.39-4.93,4.19-12.37,2.7-17.58-3.67-4.47-5.47-9.16-9.75-16.93-7.82-.59,.15-1.3-.2-1.95-.33-5.2-1.07-9.41,.53-13.08,4.33-2.29,2.37-4.79,4.68-7.57,6.41-3.91,2.44-10.06,1.68-13.08-1.37-5.19-5.23-9.46-10.97-11.63-18.29-4.62-15.58-12.64-29.26-24.06-40.92-2.45-2.51-4.64-4.08-8.08-1.63-1.57,1.11-3.62,1.55-7.26,3.02Zm-5.67,25.79c-3.92,2.88-8.04,5.9-12.15,8.92-11.28,8.3-14.98,19.9-14.46,33.31,.33,8.63,6.43,16.88,13.22,18.02,8.75,1.47,16.12-3.16,19.26-12.87,2.33-7.2,2.79-14.66,.73-22.15-2.23-8.13-4.28-16.31-6.61-25.23Zm185.72,6.27c-2.88,8.66-5.93,16.86-8.32,25.25-3.14,11.01-3.26,21.89,4.91,31.08,5.71,6.43,16.62,5.75,21.98-.94,6.76-8.43,7.47-26.55,1.46-35.92-5.23-8.15-12.42-14.21-20.02-19.48Zm-7.42-193.92c4.23-3.49,8.29-6.2,11.56-9.66,15.1-15.95,25.08-34.79,29.99-56.16,1.55-6.74,2.14-13.82-2.19-21.13-.61,2.18-.88,3.6-1.4,4.92-2.84,7.25-5.24,14.73-8.74,21.65-6.63,13.09-18.64,19.95-31.55,25.56-5.14,2.23-7.71,6.61-7.4,11.96,.48,8.32,3.66,15.74,9.73,22.86Zm-155.03-9.02c12.37-15.31,10.62-25.9-5.76-34.72-13.87-7.47-22.37-19.11-27.06-33.78-1.63-5.1-2.68-10.4-4.08-15.97-12.73,22.62,7.9,66.94,36.91,84.47ZM45.49,25.23c-6.12,21.57,1.99,54.83,13.55,71.58,3.05,4.42,6.22,6.95,11.82,5.45,2.04-.55,4.39,.1,6.45-.41,3.19-.79,6.24-2.11,10.62-3.66-25.37-19.13-40.98-42.04-42.45-72.97ZM244.07,106.23c6.14,.96,11.02,1.62,15.85,2.53,2.92,.55,4.87-.22,6.88-2.54,10.04-11.67,15.53-25.45,18.92-40.18,1.19-5.17,2.09-10.45,2.53-15.73,.43-5.12,.09-10.31,.09-15.46-7.56,27.88-19.81,52.36-44.27,71.39Zm-111.49,187.84c.81,.3,1.61,.59,2.42,.89,1.7-2.23,3.7-4.3,5.04-6.73,3.2-5.82,9.43-7.27,14.62-3.12,1.13,.9,2.21,1.87,3.23,2.74,9.95-6.9,12.76-6.16,19.17,4.27,1.03,1.68,2.96,2.81,4.47,4.2,.54-.31,1.08-.63,1.61-.94,0-3.43-.04-6.86,.01-10.29,.07-4.33,1.3-4.99,5.12-2.8,.68,.39,1.31,.89,3.24,2.24,.18-3.85,.3-6.6,.44-9.52-2.86,.94-4.66,1.87-6.55,2.08-5.4,.61-10.95,1.83-16.23,1.16-7.29-.92-14.37-1.4-21.72-.65-4.11,.42-8.44-1.13-12.64-1.92-3.14-.59-6.24-1.4-9.78-2.21v7.7c2.91-.56,5.05-.97,7.19-1.38,.12,2.23,.3,4.46,.35,6.69,.06,2.54,.01,5.08,.01,7.61Zm-18.8,48.19c5.23,5.28,9.83,8.33,16.3,6.35,3.5-1.07,7.03-2.07,10.47-3.3,10.52-3.74,20.85-3.25,31.11,1.04,3.53,1.48,7.14,2.75,10.74,4.02,6.19,2.18,10.83-.5,15.96-5.54-12.19,3-21.25-.28-28.96-8.54-7.65-8.2-17.53-8.31-26.07-.96-2.5,2.15-5.17,4.2-8.02,5.86-6.44,3.74-13.36,3.25-21.55,1.07Zm150.58-79.61c10.98,4.51,21.1,1.52,27.07-7.38,6.95-10.37,6.84-24.41-.3-31.44-4.19-4.12-9.06-5.44-15.06-3.59,15.17,12.65,6.27,39.68-11.7,42.4Zm-211.94-6.58c-9.27-3.26-14.58-9.91-16.2-19.13-1.6-9.13-.64-17.89,8.19-23.91-8.31-3.24-16.4,.54-19.84,8.75-3.81,9.07-1.04,23.38,6.26,30.08,6.19,5.68,13.57,6.62,21.59,4.21Zm80.73,42.59l.46,1.3c16.12-3.57,32.12-3.4,49.07,1.99-1.06-2.04-1.27-2.77-1.72-3.28-2.54-2.87-5.6-5.39-7.59-8.59-2.55-4.11-6.66-5.81-10.28-2.59-3.72,3.31-6.35,3.74-10.01-.15-3.48-3.7-8.34-2.57-10.61,2.01-1.84,3.71-3.95,6.93-8.35,7.89-.4,.09-.64,.93-.96,1.43Zm-19.82-163.88c7.98-1.58,14.56-7.35,17.44-15.53,3.07-8.73,5.51-17.69,8.27-26.68-4.51-1.64-6.72,1.28-8.22,4.43-5.84,12.27-11.44,24.65-17.48,37.78Zm76.24-40.49c1.95,8.49,3.6,16.94,5.86,25.22,2.34,8.58,7.23,15.21,16.8,19.07-2.92-8.28-5.33-15.45-7.99-22.52-2.21-5.89-4.55-11.74-7.12-17.48-1.39-3.1-3.47-5.79-7.55-4.29ZM86.47,409.41c.59,1.15,.76,1.61,1.03,2,.89,1.3,1.8,2.57,2.71,3.85-1.51-.4-3.27-.42-4.47-1.26-5.2-3.63-18.73-2.64-23.09,1.7-.84,.84-2.47,.89-3.74,1.31,.52-1.4,.72-3.08,1.65-4.11,1.2-1.33,2.98-2.14,4.5-3.18-4.78-1.05-7.88,1.12-9.06,4.97-.66,2.16-.22,6.47,.97,6.99,2.48,1.09,6.11,1.15,8.69,.15,7.73-3.01,15.15-3.28,22.71,.21,.77,.35,2.02,.52,2.66,.13,3.13-1.89,3.99-4.92,2.93-8.22-1.01-3.14-3.07-5.27-7.49-4.53Zm157.61,4.48c-.42,.56-.84,1.12-1.26,1.68,1.7,1.38,3.59,2.59,5.02,4.21,.64,.73,.36,2.28,.49,3.46-1.09-.29-2.57-.23-3.21-.93-4.7-5.12-16.54-7.4-22.5-4.3-1.55,.8-3.39,1.04-5.1,1.54,1.08-1.5,2.18-2.98,3.22-4.5,.15-.22,.05-.62,.09-1.29-3.57-1.38-5.58,.97-6.91,3.47-1.74,3.24-1.21,6.51,1.95,8.83,.63,.46,1.9,.59,2.65,.29,8.3-3.3,16.16-2.44,23.92,1.85,2.77,1.53,6.65,2.64,8.32-.87,1.11-2.33,.69-6.13-.48-8.58-1.01-2.12-4.05-3.27-6.19-4.84Zm-76.46-162.47h-17.13c-2.3,4.87-2.59,9.45,2.12,13.2,2.73,2.17,9.56,2.31,12.33,.28,4.86-3.57,4.77-8.17,2.68-13.48Zm-38.41-156.75c-.45-.29-.9-.57-1.35-.86-8.54,13.51-17.09,27.02-25.77,40.75,3.25,.01,7.43,3.45,9.77-1.5,6.01-12.69,11.59-25.58,17.35-38.39Zm71.32,1.43l-1.29,.74c4.4,12.1,8.66,24.26,13.26,36.28,2.58,6.76,3.75,7.06,10.95,5.06-7.62-14-15.27-28.04-22.91-42.08Zm-79.88,3.55c-13.68,6.99-18.68,20.01-23.25,33.33,11.6-8.38,16.52-21.47,23.25-33.33Zm86.39,2.05c6.3,17.71,16.04,33.68,22.38,35.85-4.67-13.89-8.83-27.2-22.38-35.85ZM86.87,238.88c-5.41,7.58-10.7,15-16.62,23.29,11.03-3.18,18.3-9.48,24.53-17.93-2.94-1.99-5.5-3.72-7.92-5.36Zm136.82,9.56c6.06,8.77,12.64,15.87,23.36,19.26-5.35-8.61-10.17-16.36-14.99-24.12-2.7,1.57-5.24,3.04-8.37,4.86Zm-6.45-107.13c3.65,7.7,12.61,14.36,19.35,14.63-6.38-15.59-5.79-16.58-19.35-14.63Zm-108.55-3.12c-13.17-3.84-14-1.67-20.81,13.79,9.04-2.04,15.35-6.87,20.81-13.79Zm20.44,145.99c-4.3,6.11-5.76,12.07-6.02,18.36-.23,5.77,2.55,7.8,8.24,6.57-.7-7.85-1.4-15.68-2.22-24.93Zm57.87,1.77c-1.43,9.24-2.63,17.02-3.82,24.81,4.4,1.26,7.27,.47,8.02-2.91,1.65-7.4-.1-14.3-4.2-21.9Zm-73.26,12.81c3.44,6.31,5.74,12.26,9.53,17.02,4.41,5.53,8.12,4.91,13.5-1.33-2.37-.27-4.18-.74-5.96-.64-6.78,.37-10.9-3.16-10.67-9.96,.12-3.52-.74-5.34-6.41-5.09Zm81.39,3.34c-.15,1-.27,1.48-.3,1.97-.5,9.52-3.28,11.87-12.74,11.1-1.33-.11-2.74,.77-4.42,1.29,4.93,5.7,8.04,5.91,13.14,1.77,5.36-4.35,6.85-10.64,9.47-17.35-2.17,.51-3.55,.84-5.15,1.21Zm-46.78-36.94c-7.09-9.19-18.18-5.61-25.57-11.06,5.55,6.78,13.98,10.4,25.57,11.06Zm48.14-8.84q-24.24,4.88-26.05,9.77c9.61-.48,18.36-2.66,26.05-9.77Zm-77.51,18.74c.41,0,.81,.01,1.22,.02,1.82-4.12,3.65-8.24,5.59-12.64-1.91-1.46-3.92-3-6.81-5.21v17.83Zm77.48,2.87c.48,.11,.96,.22,1.45,.33,.4-5.79,.79-11.57,1.19-17.36-.55-.1-1.11-.2-1.66-.31-2.06,1.5-4.13,3-5.62,4.08,1.71,4.88,3.17,9.07,4.64,13.26Zm-44.61,25.39c.15,1.84-.02,3.28,.48,4.4,.27,.61,1.72,.69,2.63,1,.21-2.06,.87-4.21,.46-6.13-.24-1.1-2.17-2.49-3.43-2.59-4.89-.39-6.69,3.22-3.79,10.09,1.1-2.03,2.19-4.07,3.65-6.76Zm73.98-45.3c-1.52,1.7-2.48,3.4-3.93,4.27-5.01,3.01-5.17,5.33,.3,8.95,.48-2.37,.91-4.49,1.33-6.6l.85-.87c.26,1.08,.52,2.17,.83,3.45,2.16-2.36,3.44-3.76,4.92-5.37-1.58-1.41-2.88-2.57-4.31-3.83Zm-130.78,8.9c.6,.05,1.2,.1,1.8,.15,.96-1.86,3.2-4.58,2.64-5.41-1.97-2.9-4.9-5.15-7.7-7.89-1.44,1.27-2.73,2.42-4.82,4.26,2.67,1.47,4.62,2.54,7.17,3.94,.13,.72,.52,2.84,.92,4.95Zm71.34,43.61c.65-.36,1.29-.72,1.94-1.08-.12-2.12,.47-4.72-.55-6.23-1.06-1.58-4.18-3.33-5.48-2.79-1.59,.66-2.46,3.55-3.14,5.63-.28,.86,.78,2.14,1.24,3.23,.92-1.51,1.82-3.03,2.77-4.52,.11-.17,.52-.14,.03-.03,1.14,2.06,2.16,3.92,3.19,5.79Zm5.33,2.26c.66-.07,1.33-.14,1.99-.21,.53-1.82,1.06-3.65,1.58-5.47,.22,.06,.43,.11,.65,.17v6.42c4.83-1.13,2.88-4.79,3.01-7.27,.06-1.08-1.63-3.11-2.66-3.2-1.46-.13-4.09,.85-4.36,1.85-.65,2.42-.21,5.12-.21,7.71Zm-69.39-55.04c4.55,6.51,8.37,11.99,12.61,18.06-.02-8.46-4.83-15.66-12.61-18.06Zm38.3,53.89c.8,0,1.59,0,2.39,0-.15-2.82,.07-5.74-.66-8.4-.22-.79-4.38-1.49-4.56-1.14-1.17,2.33-2.01,4.92-2.37,7.5-.12,.82,1.54,1.89,2.39,2.84,.33-.25,.66-.49,.99-.74v-5.88c.27-.02,.53-.03,.8-.05,.34,1.95,.69,3.91,1.03,5.86Zm60.89-32.78c4.53-5.72,8.81-11.13,13.43-16.97-7.33,.94-12.56,7.77-13.43,16.97Zm-1.23,15.28c.33-.04,.65-.07,.98-.11v-7.86c-.41-.21-.82-.43-1.24-.64-1.91,1.67-4.5,3.01-5.51,5.12-.83,1.73,.16,4.36,.54,6.56,.04,.24,1.41,.25,2.16,.37,.14-1.84,.27-3.69,.44-5.53,.02-.26,.22-.5,.53-1.18,.8,1.25,1.45,2.26,2.1,3.28Zm-82.81-5.62c.22,.21,.44,.42,.66,.62-.24,.77-.81,1.61-.65,2.29,.31,1.37,1.01,2.65,1.55,3.97,.82-1.04,2.03-1.97,2.4-3.15,1.35-4.37-.75-7.13-6.91-8.65-.14,2.56-.27,4.97-.4,7.38,.35,.08,.7,.16,1.05,.25,.76-.9,1.53-1.8,2.29-2.7Zm-16.38-24.94c-.82,3.98-1.37,6.61-1.91,9.24,.38,.09,.76,.18,1.14,.27,.79-.88,1.59-1.77,2.78-3.09-.34,2.89-.59,5.02-.84,7.15,.49,.19,.97,.37,1.46,.56,1.34-2.09,4.08-4.51,3.69-6.19-.59-2.5-3.39-4.48-6.31-7.94Zm115.11,13.41c.49-.13,.97-.27,1.46-.4-.46-2.69-.91-5.39-1.45-8.56-2.8,2.3-6.09,3.71-6.53,5.73-.47,2.17,1.74,4.93,2.79,7.43,.53-.16,1.06-.32,1.59-.49v-7.68c1.09,2.02,1.62,2.99,2.15,3.97Zm-54.86-6.95c1.3,4.38,4.52,5.81,9.54,4.52,1.13-.29,2.22-1.18,3.03-2.07,.28-.31-.28-2.08-.58-2.11-1.38-.16-2.8,.09-4.21,.13-.8,.02-1.61-.07-2.41-.12-1.72-.11-3.44-.22-5.36-.35Zm-30.74-5.89c-2.44,6.71-1.54,7.93,4.58,7.75,1.35-.04,2.73-1.04,3.94-1.83,.17-.11-.62-2.31-.81-2.29-1.36,.16-2.68,.65-3.65,.93-1.04-1.17-2.29-2.58-4.06-4.56Zm51.24,5.57c-.7-.15-1.97-.52-3.25-.57-.22,0-.91,1.71-.67,1.98,.87,.96,1.96,1.9,3.15,2.36,1.01,.39,2.48,.48,3.38,0,1.39-.73,2.8-1.87,3.52-3.2,.34-.62-.92-2.11-1.46-3.2-1.41,.79-2.81,1.58-4.67,2.63Zm-25.78,1.72c-.4-.66-.8-1.31-1.19-1.97-1.65,.39-3.31,1.14-4.94,1.06-1.51-.07-3-1.51-4.44-1.41-.84,.06-1.55,1.95-2.32,3.01,2.62,.68,5.23,1.84,7.86,1.87,1.67,.02,3.35-1.65,5.03-2.56Zm102.58-34.78c1.35,2.9,2.47,5.32,4.18,8.99,1.49-3.59,2.48-5.97,3.74-8.99h-7.92Zm-197.9-6.56h-7.94c1.19,2.99,2.12,5.36,3.48,8.78,1.85-3.64,3.03-5.97,4.46-8.78Zm44.47,52.68c.48,.2,.97,.4,1.45,.6,.32-.67,.57-1.39,.96-2.01,.42-.66,.98-1.24,2.03-2.54-.49,2.54-.79,4.09-1.27,6.54,5.11-4.27,5.05-6.04-.19-9.8-1.06,2.56-2.02,4.89-2.98,7.21Zm104.24,3.69c.54-.17,1.07-.35,1.61-.52-.93-2.34-1.86-4.69-2.9-7.3-5.44,4.14-5.44,6.76-.63,8.84-.21-1.61-.41-3.09-.61-4.56,.26-.07,.52-.15,.78-.22l1.76,3.77Zm-102.95-42.08c-2.62,.78-4.06,1.31-5.54,1.6-.84,.17-1.76-.06-2.64-.11,.52,.9,.84,2.17,1.62,2.61,1.23,.69,2.78,.82,4.48,1.26,.61-1.58,1.13-2.92,2.08-5.36Zm94.28,13.34c6.8-.79,8.38-2.42,7.45-6.57-2.2,1.94-4.35,3.84-7.45,6.57Z"></path><path class="cls-1" d="M94.86,206.52c2.07,2.13,3.15,4.25,4.69,4.66,9.67,2.53,19.53,2.81,29.1-.1,3.82-1.16,7.05-4.23,11.3-6.89,1.74,.84,1.71,2.76-.78,4.11-4.59,2.48-9.29,5.87-14.22,6.42-9.14,1.03-18.49,.3-28.36,.3,.01-.04-.11,1-.67,1.71-.82,1.05-1.95,1.86-2.95,2.77-.33-1.27-1.09-2.6-.92-3.81,1.63-11.56-3.08-20.49-11.56-27.7-1.38-1.17-3.98-.79-5.84-1.55-1.26-.52-2.2-1.8-3.29-2.74,1.21-.86,2.42-2.43,3.61-2.42,2.06,.02,4.11,1.03,6.11,1.61,2.54-3.64,3.71-7.12,1.91-11.54-.82-2.01-.09-4.81,.47-7.11,.17-.69,2.2-1.26,3.35-1.22,.51,.02,1.45,1.75,1.36,2.61-.77,7.23,.74,9.79,8.05,9.61,8.78-.21,17.54-1.62,26.28-2.77,.81-.11,1.29-2.19,2.07-3.24,.94-1.28,2.05-2.44,3.08-3.65,.65,1.32,1.39,2.62,1.94,3.98,.58,1.42,.6,3.25,1.54,4.32,4.17,4.77,9.89,6,15.85,5.86,3.91-.09,10.01-8.91,10.09-14.22,.13-8.27-2.73-15.45-7.43-22.3-3.49-5.09-5.89-10.96-8.45-16.63-.6-1.32-.3-3.47,.4-4.81,.43-.84,2.61-1.46,3.6-1.09,.76,.29,1.5,3.16,1.2,3.36-4.11,2.81-1.96,6.28-.4,8.76,2.39,3.8,6.15,6.72,8.61,10.48,2.4,3.68,3.89,7.94,5.75,11.97,.41,.89,.7,1.83,1.08,2.84,.64-.21,1.41-.25,1.49-.51,2.42-7.83,7.36-13.69,13.65-18.79,2.18-1.77,3.54-4.83,4.6-7.57,.57-1.45-.31-3.46-.5-5.22-.13-1.19-.63-2.61-.17-3.52,.34-.66,2.3-1.17,2.98-.78,.92,.53,1.8,1.98,1.83,3.05,.16,6.53-2.58,12.02-7.04,16.55-6.16,6.26-10.24,13.39-11.3,22.24-.77,6.45,1.56,12.34,6.42,15.3,3.38,2.05,9.16,1.15,13.56,.19,3.4-.75,7.26-2.71,7.1-7.74-.04-1.11,1.33-2.26,2.04-3.39,.97,1.09,2.14,2.07,2.82,3.32,.42,.76,.08,1.94,.08,4.24,10.46,1.18,20.88,3.01,31.34,3.27,5.68,.14,6.21-2,5.16-7.79-.17-.94,.89-2.1,1.37-3.16,1.26,.6,3.4,.99,3.59,1.83,.49,2.16,.88,4.92-.06,6.71-2.24,4.24-1.33,7.79,1.09,11.69,2.15-.42,4.4-1.19,6.64-1.14,1.02,.02,2.32,1.51,2.84,2.63,.2,.43-1.53,2.56-2.18,2.47-9.31-1.26-13.07,5.93-16.56,11.91-2.6,4.47-2.68,10.4-3.9,15.68-.33,1.41-.7,2.81-1.06,4.22-.98-1.13-2.02-2.21-2.89-3.41-.36-.49-.38-1.24-.68-2.36-8.04,0-16.15,.31-24.23-.09-6.84-.34-12.86-3.1-17.72-8.17-2.03-2.12-2-3.56,1.12-4.89,2.56,6.46,8.01,9.09,14.05,9.71,7.89,.81,15.89,.75,23.83,.6,1.61-.03,3.18-2.08,4.77-3.21-.31-.63-.62-1.27-.93-1.9-2.14,.52-4.26,1.31-6.43,1.51-6.27,.58-12.59,1.57-18.82,1.19-8.33-.5-13.58-5.72-15.56-13.75-.22-.91-.6-1.78-1.44-4.19-2.16,4.14-3.85,7.08-5.24,10.14-1.92,4.22-3.47,8.61-5.52,12.76-.43,.88-2.32,1.04-3.53,1.54,.29-1.35,.34-2.82,.93-4.02,1.41-2.9,3.89-5.53,4.44-8.55,1.08-5.84,1.23-11.87,1.51-17.84,.06-1.26-1.02-2.58-1.94-4.71-1.3,8.55-2.42,15.89-3.54,23.23-.81-.01-1.62-.02-2.42-.03,6.34-14.04,3.76-26.56-5.21-37.32-9.86,10.08-12.69,22.32-7.51,36.31-.58,.02-1.15,.04-1.73,.05-.67-3.46-1.63-6.89-1.94-10.38-.34-3.76-.08-7.57-.08-12.97-1.59,2.06-3.03,3.07-2.99,4.02,.36,7.91,.84,15.83,1.67,23.7,.16,1.52,2.17,2.77,2.96,4.33,.49,.97,.27,2.29,.37,3.46-1.12-.32-2.91-.33-3.23-1.01-1.66-3.59-2.97-7.35-4.36-11.06-1.47-3.92-2.9-7.85-4.35-11.78-.54,.09-1.09,.17-1.63,.26-.72,2.11-1.28,4.28-2.18,6.3-2.58,5.8-10.48,9.84-18.64,8.98-7.21-.76-14.34-2.26-23.28-3.72Zm30.44-31.2l-1.05,.9c1.27,1.6,2.61,3.16,3.81,4.82,6.12,8.43,4.98,15.08-3.33,19.62-6.95,3.8-19.99,2.72-26.17-2.16-5.74-4.53-7.35-9.44-5.41-15.22,.5-1.48-.06-3.32-.13-5-1.74,.91-4.08,1.38-5.1,2.81-2.04,2.82-2.52,5.92,.4,9,3.35,3.54,5.55,8.85,9.53,10.96,5.4,2.86,11.96,4.33,18.14,4.76,15.99,1.1,19.47-5.52,18.47-19.69-.43-6.09-5.83-7.44-9.15-10.79Zm102.48,6.69c.65,2.65,.82,3.6,1.1,4.51,2.06,6.58,.92,10.62-4.46,14.96-6.56,5.29-14.17,5.35-21.85,3.74-12.51-2.62-15.82-13.04-7.36-22.6,1.2-1.36,2.48-2.64,3.72-3.96l-1.21-1.31c-2.95,2.43-7.54,4.31-8.55,7.38-3.8,11.57-2.81,22.58,12.15,23.95,14.12,1.3,26.47-2.11,33.68-15.57,1.1-2.06,.16-5.74-.89-8.22-.55-1.3-3.4-1.63-6.35-2.89Zm-8.17,.24c-.46,.53-.92,1.07-1.38,1.6,1.11,1.54,2.86,2.94,3.22,4.64,1.15,5.48,.02,6.23-5.05,8.76-5.23,2.61-10.06,1.96-14.87-.19-5.39-2.4-5.59-7.68-.73-11.17,1.89-1.36,3.72-2.79,5.87-4.41-4.59-1.74-7.06-.76-9.98,3.43-3.57,5.11-3.97,9.68-1.14,12.8,6.66,7.33,23.44,6.73,29.02-1.49,1.46-2.16,1.65-6.06,.81-8.64-.71-2.17-3.76-3.58-5.77-5.33Zm-103.92-3.76c2.73,1.94,4.81,3.26,6.72,4.8,3.94,3.19,3.13,8.75-1.5,10.96-4.82,2.31-9.71,1.82-14.65,.43-5.66-1.59-6.7-3.46-4.76-9.52,.58-1.79,1.75-3.4,2.65-5.09-.39-.44-.77-.88-1.16-1.32-1.99,1.47-4.49,2.58-5.86,4.5-2.38,3.33-1.7,6.89,.91,10.08,5.45,6.66,19.21,8.42,26.58,3.42,3.25-2.21,4.79-5.01,3.53-8.93-1.5-4.69-3.45-9.09-8.81-10.47-.75-.2-1.74,.51-3.66,1.13Zm92.89,16.73c3.05-1.12,5.62-1.94,8.04-3.1,.32-.15,.06-2.86-.38-3-2.53-.82-5.31-1.93-7.8-1.57-2.19,.32-4.12,2.45-6.17,3.79,2.04,1.26,4.09,2.52,6.31,3.88Zm-96.42-2.8c.29-.36,.58-.71,.88-1.07,.82-.05,1.74,.1,2.45-.2,1.54-.65,2.99-1.54,4.47-2.33-1.41-1.35-2.78-2.77-4.27-4.03-.45-.38-1.25-.45-1.9-.5-3.18-.22-7.44-1.76-8.08,2.79-.2,1.45,4.17,3.54,6.45,5.34Z"></path><path class="cls-1" d="M56.15,213.26c.5-2.24,.77-4.57,1.56-6.71,1.5-4.01,3.87-7.78,4.84-11.89,1.11-4.72,.75-9.56-3.32-13.32-.7-.65-.59-2.17-.86-3.29,1.05,.03,2.13-.09,3.14,.13,.71,.15,1.32,.77,1.98,1.17,.5-.24,1-.49,1.51-.73-2.2-6.1-4.45-12.19-6.54-18.33-.38-1.11-.07-2.46-.07-3.7,1.08,.49,2.65,.68,3.15,1.51,1.43,2.4,2.77,4.97,3.55,7.64,4.22,14.42,3.68,28.46-3.82,41.85-1.09,1.95-1.9,4.05-2.83,6.09-.76-.14-1.52-.27-2.28-.41Z"></path><path class="cls-1" d="M259.56,185.53c.87-.45,1.72-1.17,2.63-1.26,.81-.08,2.13,.31,2.41,.89,.29,.6-.13,2-.71,2.49-6.85,5.85-5.47,12.9-3.04,20.09,1.11,3.29,2.54,6.48,3.59,9.79,.2,.62-.7,1.58-1.09,2.39-.74-.49-1.84-.8-2.16-1.49-7.35-15.62-8.81-31.53-2.08-47.76,.89-2.13,2.07-4.21,3.47-6.03,.62-.81,2.13-.94,3.23-1.38-.08,1.25,.16,2.64-.3,3.74-2.43,5.88-5.04,11.68-7.59,17.51,.54,.34,1.09,.68,1.63,1.02Z"></path><path class="cls-1" d="M194.29,160.7c-1.24,6.35-3.1,11.49-7.79,14.53-2.59,1.68-6.64,2.62-9.56,1.92-3.94-.94-4.89-5.21-4.66-9.01,.33-5.33,2.19-10.41,6.79-13.28,2.63-1.64,6.86-2.82,9.45-1.82,2.53,.98,3.89,4.98,5.76,7.66Zm-2.88-.68c-.74-1.15-1.73-4.53-3.73-5.31-2.04-.79-5.6,.29-7.56,1.78-4.16,3.15-6.22,7.8-5.83,13.16,.43,6.02,5.34,8.31,10.28,4.8,4.35-3.09,6.44-7.5,6.85-14.43Z"></path><path class="cls-1" d="M151.37,167.11c-.17,4-1.09,7.69-5.29,9.32-3.98,1.54-7.15-.38-9.84-3.08-4.11-4.13-5.84-9.24-5.18-15.01,.84-7.41,7.57-10.21,13.5-5.61,4.63,3.6,6.64,8.57,6.81,14.38Zm-.91,.37c-1.25-6-3.25-10.42-7.55-13.51-4.48-3.22-8.98-1.27-9.88,4.2-.83,5.07,.54,9.8,4.21,13.16,2.03,1.86,5.78,3.54,8.09,2.89,2.17-.61,3.46-4.37,5.14-6.75Z"></path><path class="cls-1" d="M86.92,209.33c-3.8-6.15-7.72-12.48-11.53-18.63,5.98,.1,13.97,12.99,11.53,18.63Z"></path><path class="cls-1" d="M233.79,214.25c-1.38-6.74,6.94-18.08,12.78-17.92-4.14,5.8-8.43,11.81-12.78,17.92Z"></path></svg>