<svg xmlns="http://www.w3.org/2000/svg" id="Lag_1" width="476.8" height="589.21" viewBox="0 0 476.8 589.21"><defs><style>.cls-1{fill:#efe9e4;}</style></defs><path class="cls-1" d="M165.79,241.79c-3.64,4.13-7.57,8.04-10.83,12.44-3.13,4.23-5.36,9.11-8.35,13.46-3.43,4.98-7.36,9.61-10.85,14.56-1.97,2.79-3.85,5.75-5.17,8.89-3.44,8.16-7.34,9.52-14.53,4.64-.41-.28-.88-.48-1.3-.75-8-5.01-9.18-7.96-5.6-16.95,3.88-9.73,8.25-19.26,12.39-28.88,2.93-6.8,5.83-13.6,8.75-20.41-.47-.33-.93-.65-1.4-.98-5.15,4.81-10.62,9.32-15.39,14.48-10.25,11.08-19.48,22.99-27.06,36.09-2.99,5.17-5.69,10.5-8.63,15.69-1.96,3.45-4.92,4.23-8.52,2.66-1.37-.6-2.79-1.12-4.1-1.83-7.58-4.09-8.89-6.73-6.28-14.78,4.36-13.43,9.09-26.75,13.6-40.14,.67-1.99,.99-4.09,1.48-6.14-.36-.2-.73-.4-1.09-.61-3.04,3.77-6.1,7.52-9.11,11.32-8.35,10.55-16.9,20.96-24.92,31.75-3.31,4.45-5.78,9.61-8.06,14.7-1.96,4.39-3.61,5.74-7.34,2.87-6.02-4.63-11.5-9.98-17.09-15.15-1.74-1.61-1.59-3.09,.48-4.91,8.21-7.21,16.51-14.37,24.17-22.15,10.68-10.84,20.8-22.22,31.2-33.33,.99-1.06,2.27-1.86,4.42-3.6-2.96-.68-5.06-1.62-7.12-1.54-5.29,.21-10.64,.52-15.83,1.5-2.86,.54-4.53,.36-5.28-2.53-.94-3.65-1.79-7.32-2.87-11.79,11.71,3.37,21.63,.62,31.59-.26,.66-.06,1.33-.44,1.95-.36,9.97,1.23,15.52-4.4,20.01-12.31,2.09-3.68,5.5-6.58,7.78-10.17,1.56-2.45,2.18-5.49,3.28-8.24,1.06-2.66,3.06-5.48,5.78-3.3,6.57,5.29,12.57,11.28,18.71,17.09,.6,.57,.54,1.84,1.05,3.83,4.97-1.05,9.87-2.09,15.69-3.33,2.17,4.63,4.56,9.74,7.63,16.31-4.5-1.16-7.34-1.89-10.46-2.7,.12,1.42,.21,3.04,.41,4.63,.8,6.25,.82,6.33-5.2,6.6-8.3,.37-16.62,.5-24.92,1-1.74,.1-4.1,.86-5,2.14-10.07,14.33-16.77,30.38-23.78,46.25,.39,.31,.78,.62,1.18,.93,3.58-3.31,7.13-6.65,10.75-9.91,13.82-12.44,27.57-24.96,41.65-37.11,1.27-1.1,4.65,.25,8.17,.56,1.07-1.47,3-4.12,4.94-6.78,1.18-1.61,2.25-3.32,3.56-4.81,7.55-8.54,12.23-8.68,20.03-.6,2.65,2.74,5.16,5.61,8.84,9.64,1.44-4.38,2.4-7.32,3.57-10.88,1.29,.6,2.91,.97,4.02,1.93,3.39,2.93,6.66,6.03,9.85,9.18,2.99,2.96,3.16,5.95-.11,9.02-16.24,15.3-23,35.37-28.16,56.23-.38,1.52-.27,3.16,.11,4.96,22.63-27.68,42.69-57.06,62.74-88.04-5.97,1.62-11.13,2.6-15.93,4.48-3.25,1.27-4.86,.94-6.11-2.28-1.38-3.52-3.03-6.94-4.76-10.86,6.2,.32,12.08,.66,17.95,.91,2.32,.1,4.65-.11,6.97,.02,4.48,.26,6.64-2.03,9.7-5.35,3.42-3.71,5.35-7.4,6.54-13.68,4.89,4.7,8.77,8.58,12.85,12.25,1.32,1.19,3.06,2.35,4.75,2.59,7.01,1,13.23-1.46,18.69-5.57,1.29-.97,1.46-3.59,1.89-5.51,.46-2.05,.63-4.16,1.15-7.81,4.32,4.21,7.67,7.76,11.35,10.93,1.38,1.18,3.56,2.17,5.3,2.05,5.3-.35,10.58-1.15,15.83-2.02,2.92-.48,5.63-.99,7.41,2.12,2.13,3.72,4.08,7.48,2.49,10.77-4.63-.66-8.37-1.71-12.07-1.6-5.46,.16-11.13,.4-16.25,2.04-3.8,1.22-8.36,3.99-10.01,7.33-9.78,19.81-18.86,39.96-28.04,60.06-1.15,2.51-1.51,5.38-1.53,8.51,2.95-3.54,5.89-7.09,8.84-10.63,12.92-15.49,25.85-30.97,38.75-46.48,1.16-1.4,1.97-3.12,3.2-4.44,1.25-1.34,2.84-2.37,4.28-3.54,.38,.37,.76,.74,1.15,1.11,1.28-2.13,2.56-4.25,3.78-6.27,.52-.06,1.02-.25,1.13-.12,3.92,4.8,8.66,3.79,13.85,2.54,5.84-1.4,10.43,1.69,13.79,6.13,2.72,3.6,5.61,3.99,9.54,2.49,3.56-1.35,7.32-2.18,10.98-3.25,4.17-1.23,8.24-2.01,10.61,1.71,6.56-3.37,12.53-6.89,18.85-9.56,5.94-2.51,11.54-1.19,15.67,4.08,2.14,2.72,4.43,3.06,7.82,2.51,12.95-2.11,25.93-4.11,38.98-5.43,7.93-.8,11.09,2.08,14.17,10.66-1.72,0-3.49,.49-4.82-.08-11.37-4.85-22.13-.49-32.99,2.03-3.06,.71-6.21,1.59-8.91,3.1-2.32,1.3-4.98,3.26-5.91,5.57-5.62,13.89-12.33,27.2-21.45,39.05-5.53,7.18-11.78,13.95-18.45,20.09-10.98,10.1-19.27,8.79-26.99-4.11-1.7-2.83-1.73-7.08-1.46-10.59,.84-10.68,5.85-20.01,10.4-29.47,2.39-4.97,4.29-10.18,6.52-15.55-7.55-1.28-12.22,1.77-14.88,8.5-1.95,4.93-3.48,10.12-6.13,14.65-3.35,5.72-7.61,10.91-11.55,16.27-1.32,1.8-3.03,3.32-4.28,5.16-7.1,10.44-16.19,17.98-29.03,20.06-1.1,.18-2.37-.01-3.42-.39-9.74-3.52-15.4-13.3-13.83-23.72,.21-1.42,.29-2.85-.01-4.46-2.44,6.75-10.37,8.88-12.28,16.62-1.18,4.81-6.31,8.75-10,12.77-.77,.84-3.23,.87-4.56,.36-9.13-3.51-13.06-10.23-10.42-19.77,3.18-11.51,7.37-22.74,11.12-34.1,.55-1.67,1.09-3.35,.85-5.36-3.17,5.16-5.63,11.01-9.72,15.28-4.29,4.48-4.54,12.01-11.32,14.38-.51,.18-.84,1-1.15,1.57-4.43,8.12-8.85,16.24-13.27,24.36-2.34,4.3-6.65,5.33-11.04,2.67-8.23-5-9.34-7.33-7.83-16.8,.59-3.72,1.28-7.42,1.2-11.4-2.88,4.3-5.63,8.69-8.65,12.88-5.84,8.1-11.56,16.32-17.92,24.01-2.39,2.89-5.74,6.91-10.39,4.74-6.67-3.12-12.79-7.43-11.78-16.1,.79-6.74,2.41-13.38,3.82-20.04,.88-4.15,2.04-8.23,3.08-12.35-.51-.3-1.01-.59-1.52-.89Zm213-14.08c-.36-.6-.73-1.19-1.09-1.79-3.3,5.55-7.02,10.9-9.79,16.71-3.63,7.61-7.51,15.27-7.27,24.11,.13,4.7,1.66,5.71,5.76,3.22,2.54-1.54,5.16-3.27,7.04-5.51,11.07-13.21,22.09-26.47,32.75-40.01,2.63-3.35,3.85-7.81,5.73-11.76-.38-.38-.75-.76-1.13-1.13-7.78,4.58-15.48,9.31-23.4,13.64-2.56,1.4-5.71,1.72-8.59,2.53Zm-34.04-7.66c-11.92,3.05-22.86,5.83-33.77,8.68-.72,.19-1.43,.87-1.88,1.51-6.88,9.74-12.25,20.18-14.17,32.08-.3,1.88,.65,3.96,1.02,5.95,1.97-.69,4.4-.88,5.85-2.17,9.23-8.18,18.7-16.17,27.19-25.08,5.95-6.24,10.48-13.83,15.77-20.97Zm-72.01-32.95c-4.04,.86-7.55,1.85-11.13,2.32-6.46,.85-11.05,4.49-14.52,9.57-10.81,15.82-20.19,32.41-26.6,50.55-1.28,3.62-2.41,7.3-3.67,11.16,18.67-24.57,37.08-48.8,55.92-73.6Zm-101.48,32.01c-4.31-3.11-7.55-1.88-10.69,.37-9.34,6.67-16.65,15.32-22.84,24.79-3.64,5.56-6.01,11.95-8.95,17.97l.6,.25c13.83-14.32,27.65-28.64,41.88-43.38Zm171.35-12.71c-7.73-2.02-13.38,1.98-19.27,5.26,.14,.41,.28,.82,.42,1.22,6.28-2.16,12.56-4.33,18.85-6.49Zm66.1-5.31c-8.88,.23-15.27,3.04-20.91,7.97,6.51-2.48,13.02-4.96,20.91-7.97Z"></path><path class="cls-1" d="M345.33,467.18c-.79,.68-2.07,.95-2.6,1.76-3.77,5.71-7.41,11.52-10.97,17.12,4.13-.39,5.9,3.61,7.27,7.31,1.49,4.02,3.46,8.35,.68,12.8-9.07-5.74-23.15-1.34-28.23,8.4-1.1,2.11-3.05,4.07-5.07,5.36-6.05,3.87-9.05,9.49-10.41,16.27-.26,1.29-.47,2.88-1.32,3.71-8.43,8.28-10.22,19.83-15.63,30.97-4.7-2.54-9.57-5.08-14.3-7.87-.47-.28-.44-2.21-.02-3.07,6.77-13.74,11.37-28.58,21.17-40.8,2.06-2.57,2.86-6.16,4.35-9.54-8.53-1.06-15.56,1.07-22.71,4.15-5.38,2.31-11.43,3.64-17.29,4.12-8.14,.66-13.44,4.57-17.42,11.3-1.84,3.09-4.75,5.57-6.49,8.7-5.92,10.67-11.5,21.52-17.32,32.24-.44,.81-2.01,1.84-2.58,1.61-6.95-2.82-13.81-5.86-19.92-8.5,6.84-10.43,13.23-20.16,19.61-29.89-.4-.54-.81-1.07-1.22-1.61-6.99,3.13-13.95,6.31-20.99,9.31-1.1,.47-3.34,.6-3.74,0-3.74-5.57-7.2-11.34-10.4-16.48,11.72-2.68,23-4.99,34.12-7.92,5.69-1.5,11.13-4,16.58-6.31,1.02-.44,1.63-2.04,2.23-3.21,4.77-9.2,9.6-18.18,17.81-25.14,3.75-3.19,5.74-8.43,8.63-12.67,2.49-3.65,5.15-7.18,7.68-10.81,1.11-1.6,2.07-3.3,3.98-6.37,7,4.54,13.89,8.76,20.46,13.43,2.06,1.47,2.76,3.98-1.08,4.95-.89,.22-1.72,.95-2.39,1.62-5.68,5.68-11.5,11.23-16.86,17.19-2,2.23-2.91,5.45-3.71,9.66,5.03-.89,10.05-1.76,15.07-2.69,7.77-1.44,15.58-2.75,23.3-4.46,3.5-.77,7.02-1.3,9.37-5.17,5.05-8.3,10.78-16.19,16.28-24.22,3.03-4.41,6.16-8.75,10.06-14.27,4.86,3.56,10.95,7.43,16.27,12.17,2.73,2.43-.11,5-2.25,6.85Z"></path><path class="cls-1" d="M202.98,501.47c10.46-5.47,20.84-11.15,28.32-20.8,4.9-6.32,5.16-10.27,.46-16.6-2.29-3.07-4.81-5.97-7.02-9.09-5.32-7.55-12.83-10.04-21.44-8.52-7.14,1.27-14.21,3.28-21.09,5.62-16.28,5.51-30.1,15.17-42.65,26.7-2.64,2.43-4.92,5.37-6.83,8.41-.72,1.13-.54,3.7,.3,4.8,3.14,4.07,6.58,7.94,10.21,11.57,1.09,1.1,3.19,1.19,5.26,1.88-1.27,2.25-2.88,5.52-4.85,8.54-1.95,2.98-4.46,3.91-7.38,.95-3-3.04-6.01-2.59-9.19-.19,2.32,3.31,4.21,6.42,6.52,9.18,2.44,2.92,2.1,5.29,.22,8.45-5.46,9.14-10.66,18.44-15.71,27.81-5.51,10.22-4.78,12.02,5.93,16.88,.14,.06,.32,.01,1.86,.01,.44-2.86,.84-5.71,1.3-8.55,.31-1.91,.2-4.08,1.1-5.66,7.08-12.43,14.46-24.69,21.5-37.14,1.8-3.2,4.25-4.7,7.59-5.73,7.12-2.2,14.29-4.39,21.18-7.22,8.29-3.4,16.47-7.14,24.41-11.3Zm-46.07,11.72c5.56-9.08,10.82-18.37,16.74-27.2,10.46-15.62,25.12-24.23,44.13-24.85,5.83-.19,7.28,1.48,4.6,6.71-2.68,5.25-6.1,10.32-10.1,14.63-3.69,3.96-8.44,6.99-12.97,10.08-6.54,4.48-13.07,9.07-20.04,12.81-6.78,3.64-14.09,6.28-21.17,9.36-.4-.52-.79-1.03-1.19-1.54Z"></path><path class="cls-1" d="M125.66,530.34c-7.74,9.3-15.8,18.35-23.86,27.39-3.66,4.1-6.88,9.35-11.5,11.66-8.51,4.26-15.8,9.99-23.4,15.45-9.33,6.72-24.78,5.43-35.21-2.13-12.39-8.97-16.76-21.39-13.67-35.57,6.82-31.38,23.2-56.77,50.57-74.33,4.45-2.86,9.41-5.03,14.34-6.99,10.21-4.06,20.42-.62,29.23,9.47,.65,.75,1.22,1.56,2.83,3.62,3.64-8.38,6.93-15.91,10.39-23.87,.53,.21,1.76,.35,2.47,1.03,4.12,3.88,8.15,7.85,12.13,11.87,2.34,2.37,1.71,4.04-.61,6.58-5.78,6.32-11.12,13.08-16.15,20.01-1.35,1.87-.97,5-1.54,8.58-6.35-3.47-10.81-7.93-15.21-12.6-1.46-1.55-3.8-3-5.85-3.16-13.62-1.09-25.62,3.82-36.33,11.6-19.03,13.83-30.39,32.81-34.74,55.78-.96,5.08-.11,10.6,.45,15.86,.49,4.67,3.76,7.67,8.3,6.48,6.78-1.78,13.82-3.79,19.73-7.39,7.85-4.79,15-10.87,21.93-16.99,9.74-8.6,19.12-17.63,28.38-26.74,2.93-2.89,6.54-6.13,3.71-11.25-.24-.44,.42-1.98,.79-2.03,1.38-.2,3.32-.54,4.15,.19,3.73,3.29,7.56,6.63,10.43,10.62,.92,1.26-.33,5.14-1.76,6.86Z"></path><path class="cls-1" d="M462.83,328.93c-18.15-.39-35.57,4.04-52.82,8.75-19.95,5.43-39.7,11.6-59.39,17.9-4.25,1.36-7.1,.2-10.6-1.58-4.04-2.03-8.45-3.4-12.79-4.77-2.84-.89-6.02-.85-8.75-1.98-3.8-1.57-6.49-.96-7.69,3-2.78,9.19-10.48,15.71-12.79,25.42-1.64,6.88-6.38,12.99-9.43,19.58-2.38,5.14-4.3,10.5-6.65,16.34-.52-1.13-.77-1.42-.77-1.7,.63-18.63,4.51-36.54,11.71-53.76,.68-1.65,.76-4.77-.25-5.66-2.72-2.42-6.18-4.01-9.17-5.82-11.83,19.64-23.19,38.52-34.76,57.72,.47-3.24,.83-6.31,1.37-9.35,2.07-11.62,3.32-23.48,6.52-34.79,3.72-13.19,9.21-25.88,13.79-38.84,.55-1.56,.93-4.32,.11-5.02-3.25-2.77-7.02-4.94-10.81-7.49-3.72,15.28-7.12,29.28-10.53,43.3-1.18-.06-2.42-.14-3.45-.19-.67,2.25-1.24,4.16-1.85,6.17q-18.42-9-27.3,4.42c-1.37-.22-2.79-.45-5.43-.89-6.4,19.31-12.79,38.6-19.19,57.88-.8-3.04-1.23-6.19-.72-9.18,2.09-12.41,3.97-24.89,6.9-37.12,2.78-11.65,3.31-11.52-7.76-16.53-.46-.21-.91-.45-1.38-.58-2.3-.63-3.32-.42-3.83,2.62-.8,4.73-2.47,9.4-4.37,13.84-2.71,6.36-6.15,12.41-8.95,18.74-3.39,7.66-6.44,15.47-9.63,23.21,1.88-15.55,3.09-31.19,10.7-45.34,.76-1.42,.64-4.78-.29-5.39-3.86-2.56-8.11-4.57-12.36-6.45-2.04-.9-3.88-.73-3.78,2.56,.05,2.04-.53,4.28-1.45,6.11-3.61,7.09-7.7,13.94-11.17,21.09-3.14,6.48-5.71,13.24-8.57,20-.11-.55-.35-1.03-.26-1.45,3.24-15.79,6.09-31.67,10.08-47.26,.99-3.89,5.04-8.47,8.77-9.89,9.09-3.45,18.75-5.52,28.3-7.57,6.15-1.32,12.5-1.99,18.78-2.23,2.81-.11,5.68,1.55,8.52,2.41,.34-.39,.68-.79,1.01-1.18-3.12-4.6-6.12-9.3-9.5-13.7-.54-.7-2.87-.32-4.28-.02-13.59,2.86-27.16,5.89-40.78,8.62-1.14,.22-2.86-1.23-3.97-2.27-5.07-4.73-11.15-7.1-18-8.75,.26,5.38,.49,10.05,.73,14.89-2.41-.4-3.99-.66-5.56-.92-1.08,2.29-2.5,4.31-4.23,4.62-7.68,1.42-15.47,2.21-23.18,3.52-2.9,.5-5.68,1.78-9.18,2.92,4.62,5.85,8.46,10.72,12.6,15.97,5.12-6.77,11.27-10.45,19.42-12.14-10.89,27.78-18.84,55.83-32.64,81.9,3.43,1.42,6.83,2.67,10.1,4.22,3.64,1.73,6.38,1.48,7.91-2.7,1.76-4.81,3.49-9.63,5.3-14.43,1.77-4.68,3.61-9.33,5.44-13.99,.97-2.45,1.98-4.88,2.97-7.32,.46,.15,.92,.29,1.38,.44-.2,3.27-.48,6.53-.56,9.81-.18,7.32-.49,14.65-.32,21.96,.16,6.6,6.12,5.9,10.23,7.35,4.14,1.46,5.94-1.63,7.14-4.46,1.39-3.29,2.05-6.9,2.88-10.4,1.98-8.34,3.76-16.73,5.87-25.03,.71-2.75,2.2-5.3,3.34-7.93,.5,5.62,0,10.92,.04,16.23,.05,5.8,.09,11.69,1.08,17.38,1.09,6.28,7.33,6.3,11.92,7.14,1.58,.29,4.74-3.13,5.75-5.46,3.5-8.12,5.54-16.7,6.64-25.51,.33-2.63,1.79-5.11,2.74-7.66,.63,.14,1.27,.28,1.91,.42,0,5.43-.33,10.89,.11,16.29,.35,4.42,1.14,8.93,2.63,13.09,1.75,4.93,6.84,6.04,11.16,6.09,4,.05,5.03-3.96,5.77-7.57,.84-4.08,2.17-8.07,3.5-12.91,1.29,5.6,2.2,10.29,3.47,14.88,1.55,5.63,7,5.92,11.27,6.76,1.52,.29,4.19-3.3,5.73-5.53,3.17-4.61,5.94-9.49,8.85-14.27,.56-.91,1.2-1.83,1.45-2.84,1.21-4.93,2.29-9.89,3.43-14.83,.27,.05,.54,.1,.81,.16-.21,1.96-.45,3.91-.63,5.87-.53,5.79-1.23,11.57-1.47,17.38-.16,3.77,7.58,9.62,11.19,8.76,.58-.14,1.32-.56,1.57-1.06,4.39-8.64,8.96-17.2,12.98-26.01,4.06-8.87,7.57-17.99,11.32-27.01,.49,.15,.97,.3,1.46,.45-.3,2.39-.74,4.78-.86,7.17-.55,11.95-1.29,23.89-1.4,35.85-.04,4.99,7.68,11.15,12.49,10.66,.96-.1,2.27-1.32,2.6-2.3,2.1-6.26,3.87-12.63,5.97-18.89,.59-1.77,1.9-3.29,3.44-5.88,.53,3.76,.88,6.05,1.17,8.36,1.16,9.22,13.89,19.56,23.27,18.82,1.13-.09,2.27-.5,3.34-.91,10.3-4.04,15.96-12.92,19.12-22.3,3.05-9.09,3.17-19.24,4.02-28.97,.26-3.03,.81-5.19,3.56-6.34,7.83-3.27,15.64-6.61,23.59-9.56,6.59-2.44,13.37-4.38,20.08-6.48,8.76-2.74,17.43-5.88,26.34-8.02,8.48-2.04,17.21-3.08,25.85-4.44,3.84-.6,7.92-1.83,10.55,2.75,.35,.59,1.78,.88,2.66,.79,4.24-.42,8.46-1.02,12.77-1.57-3.21-7.38-6.81-10.04-13.97-10.19Zm-223.93,40.2c-3.1,7.29-6.47,14.47-9.74,21.68-3.05,6.74-6.08,13.49-9.14,20.22-.65,1.43-1.38,2.83-2.08,4.24-1.73-16.4,.96-31.44,10.78-44.55,1.48-1.97,3.24-3.87,5.26-5.23,1.26-.85,3.24-.64,4.9-.9,.03,1.53,.57,3.26,.02,4.54Zm100.87-10.11c-6.01,.95-10.56,7.78-18.84,3.97,6.2-4.87,12.14-6.09,18.84-3.97Zm-1.21,33.96c-3.11,8.75-7.56,16.89-14.8,23.17-5.88,5.11-13.26,3.31-15.02-4.31-2.16-9.37,.33-18.49,3.33-27.32,.52-1.54,3.24-2.66,5.18-3.34,7.26-2.57,14.91-4.17,20.63-10.03,1.12-1.16,3.23-1.35,4.89-1.99,.62,.36,1.24,.72,1.86,1.08-1.98,7.59-3.44,15.37-6.07,22.74Zm51.01-44.98c-.12-.45-.25-.9-.38-1.36,10.24-2.89,20.48-5.78,30.71-8.67,.09,.38,.18,.75,.27,1.13-10.2,2.97-20.4,5.93-30.6,8.9Z"></path><path class="cls-1" d="M298.46,331.16c3.09,2.84,6.26,5.75,9.63,8.84-2.57,2.83-4.38,4.82-6.22,6.85-9.92-7.18-10.58-9.54-3.41-15.69Z"></path><path class="cls-1" d="M89.41,428.88c-4.32,14.95-12.18,28.09-27.64,34.35-3.87,1.57-8.4,1.46-12.61,2.25-3.28,.62-6.49,1.73-9.79,2.08-2.12,.23-4.76,.13-6.43-.96-4.69-3.06-9.19-6.48-13.41-10.17-10.88-9.54-16.23-22.04-18.69-36.02-1.89-10.74-.38-21.27,2.28-31.61,.5-1.96,3.32-4.24,5.43-4.69,7.57-1.62,14.17,1.19,19.51,6.48,1.1,1.08,1.13,4.01,.64,5.82-2.21,8.14-5.75,16.04-7,24.29-1.77,11.82,2.07,22.83,9.34,32.21,5.21,6.72,13.39,8.26,20.6,3.8,4.84-2.98,9.65-6.8,12.93-11.35,10.06-13.94,14.2-29.25,7.05-45.96-4.39-10.25-13.44-15.12-22.98-19.52-7.67-3.53-15.8-6.7-22.43-11.73-12.38-9.39-12.75-26.12-1.9-37.16,13.53-13.77,36.27-11.26,46.77,5.17,.36,.55,.79,1.05,1.48,1.98,2.76-5.41,4.84-10.49,7.78-15.01,3.51-5.41,7.6-10.48,11.74-15.44,1.89-2.27,10.2-1.31,12.65,1.79,1.1,1.4,.53,4.39,.15,6.55-.16,.87-1.96,2.18-2.86,2.07-8.14-.99-9.57,5.8-11.64,10.73-2.56,6.06-4.21,12.66-5.24,19.18-.83,5.29-.17,10.81-.17,17.24-4.93-1.22-9.4-1.76-13.29-3.56-1.46-.67-2.08-4.23-2.21-6.53-.68-11.7-6.69-20.26-15.7-26.96-2.65-1.98-10.21,1.3-13.16,5.7-10.03,14.92-9.15,28.04,6.26,38.76,6.49,4.51,14.07,7.48,21.25,10.94,15.68,7.55,26.9,25.9,21.29,45.28Z"></path><path class="cls-1" d="M464.45,51.47c6.98,4.67,2.93,9.82,.98,14.93-.12,.31-.31,.59-.49,.87-8.65,12.85-17.25,25.74-25.98,38.54-2.01,2.94-4.46,5.58-6.92,8.62-1.12-1.54-1.78-2.45-2.89-3.97,1.19,8.26-.78,11.73-6.04,12.55-.61,2.05-.61,4.39-1.78,5.58-4.49,4.59-9.07,9.17-14.13,13.09-6.09,4.71-12,2.55-13.18-5.13-.83-5.42-.86-11.42,.61-16.64,4.92-17.42,11.89-33.92,25.48-46.73,.84-.8,1.54-3.24,1.09-3.7-3.88-3.91-8.05-7.53-12.71-11.77-2.59,6.93-4.66,12.49-6.74,18.05-.43-.21-.87-.42-1.31-.62-.49-3.06,.04-7-1.68-8.98-3.98-4.57-8.84-8.46-13.75-12.07-3.04-2.23-6.44-1.24-8.9,1.71-1.48,1.78-2.97,3.63-4.03,5.67-11.49,22.05-20.14,45.23-27.4,68.97-1.57,5.14-.71,8.02,4.1,11.34,7.12,4.9,6.68,5.47,12.67-2.26,4.25-5.47,6.62-12.37,10.61-18.09,5.22-7.49,11.18-14.47,16.89-21.61,.86-1.08,2.08-1.87,4.27-3.8-1.93,8.09-3.57,14.66-5.06,21.26-3.66,16.15,.38,24.5,15.13,31.42,5.12,2.4,14.28,.98,17.9-3.52,5.54-6.88,14.06-10.96,17.94-19.36,.29-.62,1.41-.8,2-1.35,.84-.78,1.72-1.61,2.28-2.59,2.29-4.02,4.12-8.35,6.75-12.13,4.87-7,10.2-13.67,15.29-20.52,.47-.64,.58-1.54,.92-2.3,1.51-3.43,3.26-6.77,4.52-10.28,1.99-5.58,4.1-11.18,5.34-16.95,1.04-4.81-6.57-10.29-11.78-8.23Zm-114.34,77.21c-.4-.15-.8-.29-1.2-.44,1.48-4.31,2.97-8.62,4.45-12.93,.54,.2,1.09,.4,1.63,.6-1.63,4.26-3.26,8.51-4.88,12.77Zm6.01-6.41c7.62-17.12,12.03-36.54,30.18-47.43,1.31,2.45,1.88,4.15,2.97,5.39,1.07,1.21,2.67,1.95,3.95,2.84-12.91,13.64-25,26.42-37.1,39.2Z"></path><path class="cls-1" d="M357.6,62.26c-1.08-3.7-6.03-6.27-9.3-9.33-.48-.46-1.02-1.25-1.51-1.23-1.37,.03-2.88,.14-4.05,.75-.92,.48-1.35,1.83-2.12,2.69-9.28,10.32-18.58,20.62-27.88,30.93-1.08,1.19-2.17,2.37-3.25,3.55-.28-.28-.56-.55-.84-.83,6.1-15.08,12-30.24,18.36-45.22,5.04-11.87,9.52-24.28,22.92-31.74-4.63-4-8.76-7.56-13.7-11.83-2.33,4.33-4.61,7.6-5.94,11.22-14.93,40.55-29.72,81.15-44.48,121.75-.38,1.04-.47,3.06,.1,3.43,3.91,2.57,8.04,4.83,12.78,7.58,.18-3.04,.28-4.78,.33-5.64,3.74-.37,7.2-.22,10.36-1.12,13.16-3.75,22.31-12.77,28.13-24.57,6.16-12.48,10.97-25.63,16.27-38.53,1.61-3.93,4.77-8.54,3.82-11.86Zm-16.76,27.75c-4.51,14.45-11.04,27.89-23.95,36.91-3.34,2.34-7.25,3.98-11.1,5.43-3.35,1.27-6.02-.97-4.73-4.25,2.8-7.14,6.24-14.05,9.7-20.91,2.37-4.7,4.89-9.4,7.95-13.66,2.32-3.21,5.67-5.66,8.45-8.56,5.1-5.34,10.11-10.76,15.16-16.14,.79,.34,1.59,.67,2.38,1.01-1.24,6.74-1.84,13.67-3.86,20.17Z"></path><path class="cls-1" d="M237.91,38.06c5.13-4.91,10.94-9.15,16.66-13.38,.85-.63,3,.26,4.42,.78,.64,.23,1,1.27,1.44,1.97,4.38,6.92,4.31,6.81-2.88,11.02-7.35,4.3-13.95,9.5-18.47,17.31-7.66-7.06-8.09-11.06-1.17-17.7Z"></path><path class="cls-1" d="M292.06,63.67c-.26-.27-1.52-.1-1.83,.27-4.1,4.79-9.79,3.97-14.99,3.9-7.08-.09-15.07,3.5-20.71-4.14-.09-.12-.61,.07-.69,.08-13.85,21.83-24.75,45.29-40.69,65.82,.16-5.88,.69-11.54,2.27-16.89,3.8-12.83,6.15-26.3,15.11-37.07,.61-.73,.75-2.79,.19-3.43-4-4.57-8.12-9.06-13.85-11.16-13.33,20.63-26.38,40.84-39.44,61.05,2.58-17.37,7.36-33.8,18.52-47.74,.71-.88,1.44-2.79,1.01-3.34-3.59-4.66-7.7-8.77-13.52-11.27-1.5,4.12-2.76,7.58-4.12,11.3-4.57-3.81-8.74-7.6-13.25-10.96-5.19-3.87-8.76-2.82-11.62,2.89-2.38,4.76-4.03,9.26-9.12,13-8.73,6.42-15.74,15.23-23.23,23.27-5.5,5.9-10.59,12.19-15.86,18.31-.46-2.09-.18-3.84,.51-5.41,7.06-16.13,14.21-32.22,21.28-48.35,3.16-7.2,7.48-13.61,14.53-17.24,6.62-3.4,13.74-5.83,20.66-8.64,1.61-.65,3.3-1.13,4.96-1.68-.12-.29-.24-.57-.36-.86-9.32,1.94-18.65,3.88-27.97,5.83-.15-.44-.31-.88-.46-1.32,1.95-.74,3.86-1.68,5.87-2.2,7.88-2.03,16.27-2.85,23.57-6.12,13.37-5.97,26.91-10.37,41.57-11.03,.83-.04,1.69,.46,3.15,.9-1.55,1.41-2.57,2.34-4.15,3.78,3.66,0,6.79-.78,9.17,.22,2.24,.95,3.7,3.77,5.5,5.76,.54-.19,1.08-.39,1.62-.58-.57-2.25-.9-4.6-1.76-6.73-2.74-6.81-6.58-9.02-13.45-7.28-13.53,3.44-26.97,7.27-40.49,10.76-7.29,1.88-14.67,3.39-22.3,5.14,.83-6.31-9.4-15.9-17.34-17.09-1.21,4.86-2.42,9.76-3.51,14.13-3.81-.2-6.88-.36-10.78-.57,.83,1.99,.99,2.82,1.45,3.42,4.33,5.47,2.82,10.17-4.05,12.3-2.22,.68-4.52,1.1-6.74,1.79-11.89,3.72-23.7,7.7-35.66,11.17-8.18,2.36-16.55,4.04-25.15,6.1,3.32,3.68,6.36,7.38,9.81,10.65,.79,.75,3.26,.54,4.45-.12,4.76-2.65,9.05-6.31,14.02-8.37,8.89-3.69,18.14-6.52,27.26-9.65,2.53-.87,5.14-1.52,8.45-2.5-25.39,35.59-50.14,70.29-75.5,105.85,4.75,5.37,10.93,10.95,19.11,13.79,1.05,.37,3.75-1.13,4.21-2.33,3.49-9.23,5.65-19.09,10.09-27.81,6.07-11.9,13.64-23.06,20.88-34.34,3.54-5.5,7.81-10.53,11.75-15.77-2.08,9.84-4.85,19.39-7.41,29.01-2,7.52-3.83,15.08-5.54,22.67-1.28,5.7,2.73,9.87,10.9,12.61,4.03,1.35,5.49-.4,6.47-3.71,1.6-5.39,2.85-10.92,4.91-16.13,6.75-17.05,18.71-30.76,29.66-45.09,.96-1.26,2.53-2.06,4.99-3.99-1.53,4.55-2.66,7.8-3.72,11.07-3.12,9.63-6.69,19.15-9.15,28.95-1.63,6.45-2.81,13.31,5.49,17.49,4.27,2.14,6.74,2.42,8.42-2.03,4.33-11.49,7.4-23.47,15.65-33.23,4.4-5.21,7.62-11.41,11.37-17.17,.41,.22,.82,.44,1.23,.66-.16,1.08-.37,2.15-.49,3.24-1.15,10.38-2.7,20.74-3.28,31.16-.4,7.22,3.23,11.65,9.89,13.84,1.02,.34,3.24-.58,3.77-1.54,2.5-4.56,4.45-9.43,6.89-14.02,2.01-3.79,4.48-7.35,6.69-11.04,3.93-6.58,7.83-13.19,11.75-19.78,.05-.07,.32,0,1.14,0-.2,2.07-.39,4.12-.6,6.16-.91,8.6-2.19,17.17-2.61,25.79-.27,5.52,4.51,10.23,10.9,12.12,4.95,1.46,7.36-1.82,9.52-5.34,2.45-3.98,4.8-8.03,7.32-12.28,.32,2.22,.81,4.17,.84,6.13,.15,8.91,5.15,14.41,12.58,18.27,3.78,1.96,7.58,2.61,11.14-.41,2.58-2.19,4.79-4.89,7.56-6.77,7.37-5.02,11.26-12.52,15.03-20.14,.94-1.89,1.35-4.04,1.99-6.08,2.63-8.53,5.6-16.97,7.76-25.62,1.26-5.01,2.98-9.01,8.05-11.05,.94-.38,2.22-2.42,2.06-2.62-3.05-3.65-6.27-7.16-9.55-10.61ZM83.3,104.4c-4.42,5.8-9,11.47-13.54,17.17-.48-.37-.96-.75-1.43-1.12,3.81-6.11,7.57-12.25,11.52-18.26,.39-.6,2.16-.89,2.84-.52,.57,.32,1,2.22,.61,2.73Zm5.25-7.83c-.88-.5-1.76-.99-2.64-1.49,1.84-2.65,3.68-5.29,5.53-7.94,.54,.31,1.08,.61,1.62,.91-1.5,2.84-3.01,5.68-4.51,8.52Zm64.62,8.4c-6.57,9.26-12.06,19.28-18.41,29.59,.34-10.02,4.63-18.29,9.11-26.35,4.43-7.97,9.4-15.66,14.43-23.27,1.79-2.72,4.19-5.22,6.78-7.2,2.83-2.16,6.2-3.28,9.79,.15-7.31,9.03-15.04,17.68-21.7,27.08Zm128.67-13.28c-3.93,7.78-7.81,15.59-12.2,23.11-3.56,6.09-7.62,11.92-11.84,17.59-2.14,2.88-4.93,5.37-7.75,7.62-3.81,3.05-7.05,2.13-7.36-2.64-.46-6.87,.18-13.85,.83-20.73,.32-3.4,1.68-6.7,2.67-10.02,1.42-4.75,2.85-8.22,9.24-9.59,9.45-2.02,18.32-6.73,27.66-10.38-.33,1.38-.42,3.4-1.25,5.04Z"></path></svg>