<svg xmlns="http://www.w3.org/2000/svg" id="Lag_1" width="487.5" height="509" viewBox="0 0 487.5 509"><defs><style>.cls-1{fill:#efe9e4;}</style></defs><path class="cls-1" d="M116.16,67.81c6.17-4.97,16.35-4.57,23.06,1.19,7.9,6.79,12.63,16.35,6.71,26.67-.4,.7-.52,1.57-.94,2.88,3.36-1.88,6.38-3.34,9.11-5.22,1.11-.77,1.61-2.45,2.44-3.79,3.48,6.29,10.5,5.2,16.14,7.25,10.03,3.64,20.28,6.75,30.09,10.89,7.43,3.14,12.94,9.14,17.75,15.64,.78,1.06,1.64,2.06,2.6,3.25,2.64-6.2,2.1-9.62-1.99-13.71-12.65-12.65-26.15-24.31-40.37-35.13-.34-.26-.75-.46-1-.79-3.57-4.66-7.71-4.73-12.3-1.66-.7,.47-1.49,.86-2.29,1.11-4,1.27-5.82,3.93-5.35,8.19,.05,.47-.22,.97-.51,2.16-2.32-2.78-2.1-5.74-2.63-8.37-.4-1.98-.29-4.05-.5-6.07-.41-3.93,.78-7.08,3.88-9.62,.67-.55,1.03-2.14,.8-3.08-1.72-7.14,.98-13.53,2.99-20.25-.31,8.15,6.9,10.22,11.11,14.58,.63,.66,2.36,.74,3.38,.42,4.71-1.44,9.35-3.12,14.61-4.91,.59,4.59,1.1,8.53,1.61,12.49,3.83-.98,5.78-3.83,5.93-9.14,.07-2.54-.18-5.15-.76-7.62-1.73-7.38-7.13-8.87-12.48-3.56,.79-3.43,4.6-5.89,7.77-4.5,2.12,.93,4.31,2.49,5.6,4.38,3.43,5.05,2.6,16.88-1.52,20.88-2.09,2.03-5.03,3.16-7.83,4.84,.31,.36,.75,1.04,1.34,1.56,9.05,7.88,18.13,15.71,27.16,23.6,2.08,1.82,4.01,3.81,5.94,5.79,2.43,2.5,3.56,5.45,3.23,9.04-.32,3.49-.36,6.99-.53,10.47,15.06,2.57,19.28,5.06,30.27,17.81,.5-9.97-2.88-17.34-15.14-17.58-1.92-.04-2.58-.68-2.21-2.44,.95-4.45,2.02-8.86,2.92-13.32,.16-.81-.03-1.89-.45-2.6-6.45-10.92-12.86-21.86-19.5-32.66-5.47-8.89-10.89-17.85-17.01-26.27-5.08-6.99-6.61-14.09-3.93-22.23,.82-2.5,1.72-4.98,2.38-7.52,1.12-4.28,3.96-5.37,7.9-4.73,3.37,.55,7.03,.39,10.08,1.69,7.11,3.02,9.45,15.96,6.04,21.73,.61-5.69,.8-10.68-4.2-13.58-2.53-1.47-5.32-1.71-8.07-.83,7.31,14.12,14.4,28.05,21.72,41.86,7.3,13.76,14.84,27.39,22.28,41.07-.38,.22-.75,.45-1.13,.67-3.17-5.2-6.56-10.28-9.46-15.62-6.18-11.4-12.05-22.97-18.13-34.42-5.45-10.27-11.04-20.46-16.52-30.71-.9-1.69-1.78-2.98-3.85-1.58-2.01,1.35-1.2,2.61-.22,4.28,2.87,4.86,5.46,9.9,8.23,14.82,4.19,7.42,8.4,14.82,12.68,22.19,5.09,8.76,10.23,17.49,15.4,26.2,1.14,1.92,2.41,3.78,3.73,5.59,2.8,3.82,4.82,7.76,3.55,12.79-.21,.81,.51,2.25,1.24,2.86,8.51,7.06,15.72,15.08,20.68,25.2,3.11,6.34,6.13,12.45,4.64,19.79-.07,.36,.17,.78,.39,1.66,4.5-3.88,6.38-8.7,7.43-13.97,.23-1.15,.19-2.35,.32-3.52,.49-4.19-1-5.54-4.99-4.52-.66,.17-1.37,.15-2.05,.22-.18-.24-.37-.48-.55-.73,1.53-1.65,2.93-3.46,4.62-4.92,2.35-2.02,2.88-4.28,1.83-7.13-.81-2.2-1.19-4.62-2.32-6.63-1.04-1.85-2.79-3.3-4.28-4.88-.63-.67-2.02-1.29-1.96-1.81,.12-1.04,.79-2.33,1.63-2.85,.5-.31,1.8,.62,2.68,1.09,.53,.29,.95,.78,1.86,1.56-.14-1.08-.07-1.69-.3-2.16-3.62-7.37-7.25-14.73-10.93-22.06-1.87-3.73-1.24-6.94,1.81-9.68,7.66-6.88,15.27-13.82,22.91-20.73,.67-.6,1.42-1.11,2.44-1.89,.55,2.84,.62,5.36,1.54,7.51,1.75,4.1,3.48,8.38,6.13,11.87,3.77,4.96,2.48,9.22-.12,13.86-2.48,4.43-4.76,8.97-7.44,14.07,5.25-.73,8.83,.99,10.01,6.65-6-5.2-7.2-5.53-11.51-2.99,1.56,3.41,3.04,6.91,4.74,10.3,2.29,4.57,2.39,4.95-1.68,8.24-2.05,1.66-2.43,2.91-.47,4.87,3.96,3.96,6.2,8.97,7.46,14.32,1.66,7.06,2.88,14.23,4.29,21.35,.2,1,.43,2,.64,3,.36,.07,.73,.14,1.09,.21,.64-2.32,1.76-4.62,1.82-6.96,.14-5.31,.38-10.38,3.69-14.96,.91-1.25,.32-3.61,1.01-5.98,.76,1.08,1.51,2.16,2.35,3.37,.1,0,.44,.06,.71-.06,9.04-3.91,8.73-1.7,5.73-12.3-1.77-6.26-3.99-12.41-5.55-18.73-1.57-6.37,.52-9.79,6.6-12.33,2.12-.88,4.2-1.88,7.09-3.19-3.52-3.08-6.45-5.76-9.55-8.25-.51-.41-1.82-.2-2.56,.15-1.58,.77-3.03,1.83-5.12,2.36,.29-.63,.42-1.43,.89-1.85,3.55-3.2,7.01-6.54,10.81-9.43,4.38-3.34,8.35-2.91,12.39,1.48,8.44,9.15,16.67,18.48,24.87,27.85,.48,.55,.27,2.46-.31,3.08-2.76,2.97-2.89,2.96,.46,5.38,6.01,4.35,12.54,5.43,19.45,2.51,1.36-.58,2.61-1.82,3.5-3.06,4.8-6.72,6.06-14.38,6.02-22.64,.5,1.89,1.54,3.81,1.41,5.65-.64,9.05-2.41,17.96-10.63,23.18-3.12,1.98-7.6,2.76-11.35,2.49-5.08-.36-10.18-1.9-15.02-3.64-2.55-.91-4.83-3.06-6.78-5.09-5.89-6.11-11.56-12.44-18.28-18.61-.19,1.41-.79,2.9-.51,4.21,.96,4.48,2.08,8.94,3.42,13.32,1.34,4.38,3.02,8.64,4.75,13.52,1.99-.9,3.97-1.74,5.9-2.7,1.04-.51,1.98-1.24,2.98-1.83,2.54-1.51,4.72-1.42,6.6,1.23,1.41,1.99,3.04,3.84,4.63,5.69,1.28,1.49,2.65,2.91,4.2,4.6-6.15,5.78-6,13.97-6.75,21.78-1.2,12.44-2.08,24.91-3.17,38.35,6.66-7.93,14.38-3.97,21.86-3.87-.18,.69-.19,1.04-.29,1.06-5.25,1.4-7.03,5.93-8.47,10.31-6.08,18.51-14.24,36.1-22.39,53.73-2.23,4.83-6.49,6.8-10.23,9.45-4.37,3.09-9.27,5.44-14.01,7.97-2.4,1.28-4.89,2.5-7.48,3.26-4.7,1.37-8.58-1.34-12.61-3.12-.25-.11-.52-.18-1.69-.57,4.61,4.51,9.28,7.23,14.47,8.68,8.02,2.26,16.22,2.92,23.51-2.14,8.8-6.11,16.11-13.73,21.2-23.41,5.06-9.63,10.57-19.02,15.52-28.7,2.9-5.67,5.12-11.71,7.64-17.58,.46-1.08,.64-2.47,1.43-3.18,3.54-3.2,2.98-6.9,1.85-10.89-.79-2.76-1.14-5.65-1.76-8.47-.48-2.18-1.63-3.54-4.1-3.67-3.91-.2-7.8-.62-11.7-1.03-1.17-.12-2.31-.51-3.46-.77v-1c1.25-.18,2.5-.58,3.72-.49,2.31,.18,3.13-.93,3.59-3.02,1.19-5.43,2.45-10.84,3.91-16.2,2.09-7.68,5.85-10.22,13.75-9.65,2.31,.16,4.63,.23,6.95,.34-.14-6.43-4.83-10.46-10.68-9.47-2.24,.38-4.52,.59-6.78,.88-.12-.28-.25-.57-.37-.85,.64-.46,1.23-1.12,1.94-1.35,6.94-2.24,14.1-3.03,21.31-2.45,5.54,.45,8.28,4.89,9.79,9.43,2.66,7.98,4.5,16.24,6.7,24.38,1.73,6.39,3.44,12.79,5.27,19.16,.6,2.11,.77,3.37-2.11,3.54-1.71,.1-3.36,1.31-4.87,1.95,.64,1.81,1.1,3.19,1.62,4.54,.42,1.1,.93,2.16,1.38,3.25,.32,.77,.85,1.56,.85,2.34,.07,7.16,7.5,17.77,14.15,19.37,2.22,.53,4.86,0,7.14-.64,7.26-2.03,12.67-6.62,16.66-13.01,.53-.85,1.16-1.64,1.74-2.46,.35,.25,.7,.49,1.05,.74-1.92,2.74-3.49,5.84-5.83,8.16-4.73,4.7-10.22,8.27-16.97,9.48-7.44,1.34-13.19-1.54-17.96-7.02-6.78-7.78-10.18-16.95-11.87-27.16-1.32-7.98-4.01-15.73-6.06-23.59-1.19-4.55-2.25-9.14-3.5-13.67-.28-1.02-1.4-2.75-1.65-2.67-1.32,.44-3.01,1.07-3.6,2.17-1.3,2.41-2.21,5.09-2.94,7.76-1.46,5.33-2.69,10.72-4.12,16.53,2.77,.37,5.04,.91,7.32,.92,2.96,0,4.48,1.33,5.08,4.16,.75,3.55,1.74,7.06,2.39,10.63,.46,2.55,.84,4.92,4.61,4.99-9.18,6.72-10.19,17.54-14.96,26.23-6.3,11.5-12.53,23.05-18.92,34.5-.73,1.32-2.1,2.52-3.45,3.2-4.41,2.21-9,4.05-13.41,6.24-3.01,1.49-5.73,3.6-8.79,4.96-6.35,2.83-12.69,5.8-19.3,7.84-5.04,1.56-10.24-.14-15.08-2.06-3.56-1.42-6.99-3.17-11.01-5.02,1.07,1.66,1.77,3.33,2.95,4.5,9.41,9.19,20.72,12.81,33.46,10.05,4.66-1.01,9.07-3.82,13.24-6.39,13.98-8.62,27.63-17.79,41.74-26.17,7.24-4.3,15.03-7.81,22.88-10.88,5.45-2.13,10.58,.17,14.84,4.07,1.88,1.72,3.41,3.98,5.53,5.25,1.94,1.16,4.44,1.67,6.73,1.79,2.05,.11,3.27,.2,2.38,2.49,8.85,1.18,13.79,7.46,18.73,13.66,2.24,2.82,4.35,5.79,6.2,8.89,3.06,5.1,4.21,10.72,4.03,16.35-1.63-4.78-3.2-10.71-5.64-16.24-2.69-6.09-7.64-10.52-13.26-13.79-3.1-1.8-6.95-1.35-10.1,.54-7.71,4.64-15.28,9.52-22.92,14.28-3.64,2.27-7.31,4.51-11,7.28,20.42-4.24,37.43,1.11,50.75,17.23-7.52-4.05-11.44,2.27-15.93,5.98-3.31,2.74-5.99,6.33-8.61,9.81-1.64,2.19-2.97,2.83-5.07,.83-3.28-3.13-7.81-4.92-9.4-9.92-.48-1.52-2.73-2.48-4.7-3.67,2.75,4.69-.54,7.87-2.16,11.46-1.26,2.8-4.7,5.23-1.07,9.18-5.86-3.73-10.27-.56-15.07,1.38-9.98,4.04-20.12,7.67-30.23,11.4-3.92,1.44-7.88,2.84-11.91,3.9-1.13,.3-2.75-.41-3.86-1.13-2.47-1.59-4.67-3.6-7.15-5.18-1.1-.7-2.59-1.07-3.91-1.08-6.84-.03-13.69,.07-20.53,.21-1.41,.03-2.8,.48-4.52,.79,1.42,2.44,2.74,4.38,3.71,6.48,.86,1.87-.44,4.87,2.45,5.64,3.11,.83,6.36,1.81,9.5,1.65,8.76-.46,17.51-1.29,26.22-2.32,6.02-.71,11.99-1.92,17.96-3.04,2.01-.38,3.2-.16,4.33,1.91,4.07,7.44,7.22,15.22,9.24,23.47,.17,.7,.22,1.44,.32,2.2-1.23,.53-2.33,1.01-3.43,1.48l.15,.8c1.25-.07,2.5-.15,4.2-.25,1.05,2.61,2.15,5.36,3.25,8.11-.23,.14-.45,.28-.68,.42-.54-.24-1.19-.36-1.59-.75-1.8-1.75-3.7-1.89-6.11-1.23-4.04,1.11-8.23,1.69-12.33,2.57-2.49,.54-4.94,1.23-7.41,1.85-5.5,1.38-8.54-.09-11.2-5.14-1.92-3.64-4.04-7.17-6.13-10.84-7.82,8.73-8.37,9.05-12.57,6.57,1.69-.19,2.74-.29,3.79-.43,4.64-.63,7.58-5.81,5.46-9.93-.36-.7-1.89-1.03-2.91-1.1-3.26-.22-6.65,.27-9.76-.5-2.47-.61-4.97-2.29-6.78-4.16-2.86-2.95-5.15-6.46-7.33-9.28-4.98,1.87-9.39,3.91-14.01,5.17-4.62,1.26-9.45,1.75-14.34,2.6,1.99,2.59,4.08,5.22,7.94,5.71,5.95,.75,11.39,2.38,16.02,6.85,1.61,1.56,5.29,.95,8.03,1.27,1.67,.19,4.37-1.83,4.73,1.11,.38,3.12-2.85,1.91-4.52,2.37-1.47,.41-3.1,.27-5.12,.4,1.3,4.45,2.5,8.56,3.71,12.73,3.56-1.19,6.69-2.52,9.96-3.26,6.59-1.49,10.5,1.05,12.49,7.58,.96,3.16,2.1,6.28,3.19,9.4,.09,.25,.45,.39,1.15,.97,2.2-2.54,4.73-4.84,6.41-7.67,.78-1.32,.46-3.97-.36-5.44-1.48-2.64-3.76-4.8-5.6-7.25-.55-.74-.76-1.74-1.13-2.62,1.02,.12,2.37-.14,3.01,.42,1.82,1.6,3.8,3.29,4.91,5.39,2.74,5.14,5.14,10.48,7.47,15.83,1.62,3.73,.59,7.46-1.99,10.11-3.74,3.85-8.1,7.08-12.17,10.61-1.76,1.53-3.43,3.17-5.18,4.72-2.51,2.23-5.02,4.46-7.6,6.61-1.72,1.43-3.6,3.75-5.36,3.71-1.35-.03-2.63-3.13-3.93-4.86-6.13,1.5-9.17,8.87-5.85,15.2,5.34,10.16,12.14,19.13,23.11,23.65,6.3,2.59,12.8,2.16,19.35-.33-3.08,2.49-8.91,3.85-12.72,3.37-10.51-1.33-17.96-7.76-24.54-15.34-3.24-3.74-6.11-7.95-8.42-12.34-4.12-7.83-1.75-17.76,5.05-23.17,5.37-4.27,10.85-8.4,16.2-12.69,2.14-1.71,4.07-3.69,6.07-5.52-1.5-4.55-3.56-5.81-7.83-4.5-4.15,1.27-8.21,2.83-12.34,4.17-2.4,.78-2.59,2.44-2.19,4.56,.99,5.29,.95,5.27-3.59,8.24-4.07,2.65-8.11,5.36-11.61,7.67,0,6.52-.06,12.78,.03,19.04,.04,3-1.25,4.8-4.02,5.75-1.88,.64-3.67,1.54-6.13,2.59,8.79,7.79,3.74,15.88,1.61,23.54-5.2-5.74-10.37-11.41-15.49-17.13-1.64-1.83-3.45-2.07-5.72-1.3-3.81,1.3-7.7,2.31-11.53,3.55-1.85,.6-2.64-.09-2.68-1.89-.05-2.08-.01-4.16-.01-6.25-.3-.11-.59-.23-.89-.34-.67,.56-1.63,.98-1.95,1.69-2.96,6.61-4.91,13.27-.63,20.15,3.83,6.15,8.76,6.55,15.25,1.4-.79,1.4-1.25,3.24-2.42,4.11-4.31,3.21-10.53,3.5-13.95-2.35-5.6-9.58-4.57-19.16,.33-28.41,1.33-2.51,4.58-3.97,7.3-6.21-.17-.18-.91-.96-1.67-1.72-8.96-8.94-17.88-17.92-26.9-26.81-3.48-3.43-4.77-7.38-3.96-12.22,.31-1.86,.05-3.81,.05-5.15-5.03-1.87-9.71-3.62-14.45-5.39-3.65,6.31-3.37,12.66,.56,19.4,8.85,15.19,17.28,30.62,25.9,45.95,2.4,4.27,4.89,8.5,7.28,12.77,.28,.5,.46,1.31,.26,1.79-2.65,6.17-4.06,12.96-9.01,17.99-.56,.57-.37,2.08-.24,3.12,.18,1.45,.62,2.87,.95,4.3-.31,.12-.61,.23-.92,.35-.67-.98-1.33-1.95-2.15-3.15-2.61,2.38-5.1,4.77-7.73,6.98-1.53,1.28-3.24,2.37-4.98,3.35-3.48,1.97-6.37,2.18-10.02-.83-9.58-7.88-13.49-23.43-9.22-34.62,.05-.14,.33-.2,.77-.44,0,2.65-.06,5.15,.01,7.64,.17,6.07,2.04,11.2,8.11,13.66,6.31,2.55,12.51,2.93,18.48-1.15,1.82-1.24,1.07-2.58,.48-3.9-3.14-7.01-6.25-14.02-9.53-20.96-9.96-21.14-19.92-42.28-30.03-63.34-4.52-9.42-9.4-18.66-14.45-28.64-1.33,4.18-2.45,7.7-3.83,12.03-.9-6.88,4.38-31.08,7.9-35.5,1.31,9.01,4.67,16.56,9.84,23.18,5.06,6.48,9.04,14.16,17.69,16.81-3.41-3.68-6.83-7.35-10.21-11.06-.52-.57-1.23-1.31-1.22-1.97,.06-5.24,.24-10.48,.49-15.71,.04-.75,.63-1.46,.83-1.89,2.99,3.73,5.47,7.88,8.94,10.89,4.43,3.85,9.65,6.78,14.53,10.09,.34,.23,.78,.49,1.17,.47,2.02-.09,4.04-.27,6.06-.42-.51-1.67-.75-3.49-1.56-5-3.72-6.95-7.91-13.65-11.33-20.74-2.99-6.19-4.85-12.86-3.18-19.89,.52-2.18,1.56-4.22,2.36-6.33,.34,.09,.69,.18,1.03,.27-.06,.74,.08,1.57-.21,2.21-6.57,14.75,5.14,30.58,19.92,31.27,13.31,.62,26.64,.97,39.96,1.41,2.2,.07,4.41,.01,6.86,.01-4.84-6.66-9.57-13.14-14.29-19.63,.22-.36,.43-.72,.65-1.08,11.88,2.5,22.8,.82,32.47-6.89-14.51-5.12-29.38-9.33-34.23-26.48l.64-.64c.47,.71,1.1,1.37,1.38,2.15,3.4,9.61,10.85,14.55,19.98,17.07,10.81,2.98,21.69,5.86,33.13,4.87,7.88-.68,15.85-.92,23.37-3.61,8.36-2.99,16.52-6.52,24.84-9.64,6.7-2.52,13.51-4.75,20.23-7.2,.76-.28,1.52-1.02,1.92-1.75,1.59-2.89,3.02-5.87,4.53-8.81,1.34-2.62-1.7-8.91-4.57-9.26-.64-.08-1.43,.34-2.03,.73-4.87,3.17-9.7,6.42-14.59,9.58-.86,.56-1.87,1.07-2.86,1.2-11.44,1.49-22.88,2.95-34.34,4.3-2.72,.32-6.32-2.26-7.51-4.83-.27-.59-.8-1.19-1.36-1.5-7.56-4.11-15.5-7.62-22.59-12.42-5.18-3.5-9.64-8.35-13.7-13.22-4.32-5.17-6.09-11.37-2.72-18.32,.25,1.08,.87,2.24,.68,3.24-.39,2,.29,2.75,2.09,3.5,9.64,4,17.26,1.11,22.31-8.94,6.12-12.17,12.24-24.35,18.01-36.7,2.68-5.73,4.52-11.86,6.75-17.81-.29-.23-.58-.45-.88-.68-1.63,1.85-3.09,3.92-4.94,5.52-3.53,3.05-7.18,6-10.98,8.69-7.17,5.09-14.25,10.37-21.81,14.8-4.72,2.76-10.24,4.12-15.4,6.11-.11-.3-.23-.6-.34-.91,3.14-1.91,6.29-3.83,9.43-5.74,4.64-2.83,7.93-6.4,8.23-12.38,.27-5.35,1.59-10.66,1.82-16.01,.25-5.65-.08-11.34-.42-17-.45-7.36-1.16-14.71-1.79-22.06-.05-.58-.37-1.13-.78-2.35-1.11,1.64-1.95,2.79-2.7,4-2.19,3.51-4.3,7.07-6.52,10.55-2.8,4.38-5.56,8.79-8.59,13-1.46,2.04-3.49,3.67-5.51,5.04,2.02-3.85,4.11-7.66,6.03-11.55,2.28-4.64,2.75-9.52,2.04-14.69-1.32-9.57-3.19-18.97-7.16-27.82-.85-1.89-2.14-3.57-3.71-6.14-.68,3.87-1.19,6.76-1.69,9.65-.89,5.12-3.07,9.71-6.95,13.01-2.81,2.39-3.13,5.25-3.54,8.42-.24,1.88-.86,3.72-1.45,5.53-.14,.43-.85,.67-1.55,1.17,.47-3.79,.97-7.17,1.26-10.56,.1-1.22-.15-2.53-.52-3.71-2.87-9.34-8.23-17.28-13.97-24.98-.72-.97-1.79-1.67-2.82-2.6-.29,4.88-.58,9.38-.82,13.88-.23,4.39-.39,8.79-.97,13.29-8.26-12.06-17.71-21.79-33.73-22.87,2.72,8.93,5.54,17.04,7.62,25.34,2.05,8.16,3.34,16.51,4.96,24.78-.44,.1-.88,.2-1.32,.3-.46-1.97-.95-3.94-1.37-5.91-3.34-15.45-13.31-22.52-27-24.51-7.43-1.08-14.96-1.46-22.44-2.12-.49-.04-1.01,.15-1.98,.31,4.04,7.06,7.95,13.88,11.86,20.7-.17,.42-.35,.84-.52,1.27-12.99-5.64-25.54-4.46-37.82,1.94,6.72,.78,13.44,1.56,20.16,2.34-.04,.37-.08,.74-.12,1.12-2.45-.27-4.89-.72-7.35-.76-5.05-.1-10.1-.1-15.14,.17-.94,.05-1.81,1.54-2.91,2.54-3.17-3.49-7.21-.68-10.49,.31-16.7,5.04-33.32,10.44-49.74,16.32-7.35,2.63-14.3,6.38-22.11,7.77-.82,.14-1.75,1.39-2.05,2.32-.62,1.92-.71,4.01-1.28,5.95-1.17,4.02,.91,6.57,3.8,8.6,.64,.45,2.25,.17,3.01-.36,5.49-3.82,10.78-7.93,16.35-11.63,2.36-1.57,2.83-2.87,1.05-5.03-.22-.27-.18-.76-.29-1.28,11.02,2.79,21.47-1.45,32.14-1.68,3.8-.08,7.59-.43,11.39-.5,.86-.02,1.83,.48,2.57,1,1.03,.72,2.08,1.56,2.8,2.58,3.14,4.47,7.41,6.02,12.57,5.04,14.64-2.8,26.39,3.05,37.24,12.2,6.92,5.84,11.88,12.99,14.96,21.42,1.22,3.33,1.43,7.03,1.37,10.76-.23-.59-.58-1.17-.67-1.78-2.09-14.72-11.37-24.4-22.47-32.79-10.53-7.95-22.35-8.67-34.81-6.48-4.97,.88-10.09,.93-15.13,1.39-1.21,.11-2.4,.37-4.44,.7,3.26,2.78,5.78,5.16,8.56,7.16,.82,.59,2.48,.44,3.59,.09,9.27-2.92,18.61-2.08,27.96-.72,.67,.1,1.3,.46,2,1.26-17.54-4.32-32.2,2.83-46.44,11.74,2.12-.5,4.24-1.02,6.37-1.5,2.27-.51,4.54-1.26,6.83-1.39,4.51-.26,9.04-.3,13.55-.13,1.27,.05,2.51,1.15,4.25,2.02-7.22,2.23-8.68,8.01-10.61,13.51-3.78,10.77-7.75,21.47-11.48,32.25-1.45,4.19-2.46,8.52-3.83,13.35,12.68-6.87,24.33-14.8,39.27-16.89-.69,1.19-.76,1.49-.9,1.53-9.23,2.83-10.38,10.86-11.1,18.63-.98,10.62-1.39,21.31-1.63,31.99-.14,6.37,.53,12.76,.86,19.79,1.97-2.32,3.67-4.25,5.29-6.24,3.81-4.68,7.54-9.44,11.39-14.09,2.68-3.24,5.87-5.78,10.89-5.79-1.1,1.12-2,2.72-3.33,3.29-6.73,2.89-8.05,9-8.64,15.16-.84,8.87,1.44,17.19,6.02,24.84,2.23,3.72,4.65,7.04,9.75,5.9,.22-.05,.52,.29,1.46,.87-2.95,3.56-5.53,7.29-8.75,10.35-2.22,2.11-2.43,4.03-1.43,6.5,3.83,9.5,7.87,18.93,11.49,28.51,3.17,8.39,5.87,16.96,8.84,25.42,.69,1.97,.44,3.4-1.24,4.77-3.96,3.22-7.98,6.39-11.65,9.92-4.63,4.46-8.93,9.29-13.41,13.92-.92,.95-1.98,1.74-3.3,2.88-.26-.91-.54-1.33-.44-1.63,1.83-5.75-.82-10.44-3.51-15.07-1.99-3.41-3.9-6.93-6.37-9.97-3.46-4.28-2.96-8.52-.61-12.79,1.79-3.25,4.06-6.24,6.12-9.34,.8-1.2,1.63-2.39,2.75-4.01-5.09-.15-10.17,1.54-13.4-3.57,4.52,2.39,8.86,1.18,13.12-.45,4.23-1.62,4.44-2.21,2.98-6.42-.84-2.42-1.59-4.89-2.54-7.26-2.52-6.27-1.21-11.75,3.37-16.44,1.65-1.69,1.72-2.81,0-4.43-6.72-6.3-9.58-14.49-10.59-23.39-.43-3.77-.07-7.64-.07-11.98-2.25,2.28-4.46,4.1-4.75,7.39-.42,4.75-2.65,8.59-5.41,12.42-1.62,2.23-1.95,5.48-2.61,8.33-.35,1.53-.02,3.23-.32,4.78-.16,.81-1.02,1.49-1.56,2.23-.31-.77-.87-1.53-.9-2.31-.11-2.86-.04-5.72-.04-9.15-5.47,1.72-10.28,3.22-15.08,4.73-.16-.36-.32-.72-.48-1.08,.97-.7,1.85-1.6,2.91-2.08,5.85-2.66,8.28-7.57,8.33-13.65,.07-8.33-.4-16.67-.44-25-.06-13.28,.44-26.54,3.27-39.57,.56-2.6,2.06-5,3.48-8.32-7.31,3.83-12.76,8.44-15.34,15.36-2.97,7.98-5.44,16.19-7.47,24.47-3.45,14.1-6.41,28.33-9.47,42.53-.24,1.13,0,2.57,.53,3.62,.69,1.41,1.79,2.65,2.86,3.82q4.81,5.27,11.59,2.73c.4-.15,.79-.3,1.19-.44,4.77-1.71,5.19-1.6,5.9,3.48,1.1,7.93,2.25,15.89,2.71,23.87,.31,5.4-1.58,7.17-6.78,9-2.7,.95-5.34,2.05-8,3.1-.27,.11-.49,.35-1.04,.75,1.96,2.32,3.66,4.8,5.84,6.7,.87,.76,2.97,.68,4.25,.23,2.51-.88,4.84-2.29,7.25-3.48,.26,.36,.53,.73,.79,1.09-1.69,1.52-3.19,3.37-5.1,4.51-4.18,2.49-8.51,4.75-12.89,6.87-2.71,1.31-5.31,.78-7.62-1.36-6.78-6.31-12.63-13.37-17.72-21.15-3.96-6.05-8.2-11.91-12.38-17.81-1.99-2.8,.28-3.45,2.03-4.39,3.24-1.74,4.24-5.16,1.93-7.15-1.35-1.15-2.95-2.17-4.61-2.75-9.44-3.29-17.62,.58-21.86,9.83-3.66,7.98-3.1,15.99-.91,24.12,.16,.58,.7,1.04,1.04,1.57,.32,.51,.61,1.05,1.06,1.82-2.33-1.13-5.24-5.95-6.16-9.66-4.17-16.77,8.69-31.17,22.09-33.18,7.19-1.08,14.59,3.3,18.87,9.96,6.45,10.02,13.49,19.65,20.29,29.43,.48,.69,1.06,1.32,2.12,2.62,.96-1.67,2.28-2.88,2.18-3.96-.83-9.02-1.91-18.02-2.98-27.55-3.84,1-7.22,1.72-10.48,2.8-2,.66-3.48,.45-4.76-1.23-1.43-1.86-2.83-3.74-4.35-5.52-1.23-1.45-2.6-2.76-4.38-4.64,.62-1.42,1.8-3.35,2.33-5.44,2.18-8.59,4.26-17.2,6.21-25.84,2.09-9.26,4-18.56,5.97-27.85,.08-.39,.01-.82,.01-1.63-3.87,.32-7.55,.63-11.3,.95,0-.67-.07-.99,.01-1.04,8.1-5.02,11.48-13.24,13.91-21.82,4.65-16.36,10.55-32.25,16.95-47.97,1.78-4.36,5.6-6.5,9.56-8.4,1.57-.75,3.17-1.46,4.65-2.45-5.34-.23-10.34,.5-15.06,3.35-7,4.23-12.01,10.37-16.88,16.71-8.63,11.24-14.77,23.86-20.34,36.85-2.61,6.07-5.85,11.86-8.71,17.82-.34,.71-.46,1.82-.15,2.5,1.52,3.28,3.4,6.4,4.81,9.72,.94,2.22,2.16,2.71,4.41,2.29,2.47-.45,5.03-.54,7.55-.5,1.14,.02,2.26,.71,3.15,1.01-.67,2.26-1.31,4.01-1.71,5.82-1.42,6.37-2.67,12.77-4.16,19.12-1.21,5.13-3.46,6.79-8.72,7.15-4.29,.29-8.57,.69-12.91,1.05,1.9,5.11,3.83,6.09,8.38,4.58,1.29-.43,2.63-.77,3.98-.95,.47-.06,1.33,.39,1.44,.77,.12,.44-.28,1.18-.67,1.56-.43,.42-1.09,.66-1.69,.84-5.38,1.58-10.73,3.36-16.18,4.63-5.19,1.21-8.05,.02-10.47-4.8-2.38-4.74-4.17-9.8-5.9-14.83-2.32-6.76-4.36-13.61-6.46-20.44-1.23-4-1.09-4.12,2.8-5.42,1.37-.46,2.68-1.11,4.13-1.73-4.3-7.2-10.39-11.81-17.61-14.89-4.37-1.87-8.51-.39-12.41,1.87-.78,.45-1.55,.94-2.49,1.11,2.21-2.98,5.45-4.2,8.86-4.95,9.89-2.15,17.48,2.42,24.86,8.37,5.84,4.71,7.81,11.11,9.7,17.85,1.96,6.98,4.34,13.85,6.61,20.74,.59,1.8,1.48,3.22,3.89,2.86,2.49-.38,4.49-1.04,5.09-3.88,1.25-5.86,2.58-11.7,3.87-17.54,.37-1.66,.73-3.32,1.24-5.58-3.17,.29-6.1,.31-8.91,.9-2.87,.6-4.42-.59-5.55-2.97-1.42-2.98-3.13-5.85-4.19-8.94-.69-2-1.62-2.35-3.44-2.23-1.01,.07-2.06-.48-3.25-1.22,6.18-1.22,7.22-6.58,9.41-10.9,4.15-8.18,8.19-16.41,12.27-24.62,5.34-10.73,11.44-20.95,19.58-29.8,.2-.22,.32-.5,.1-1.4-3.23,1.81-6.5,3.57-9.69,5.45-11.32,6.69-22.54,13.57-33.96,20.09-6.72,3.83-14.07,2.27-19.28-3.5-1.49-1.65-2.93-3.34-4.31-5.41,3.42,2.65,6.4,1.65,9.61-.3,8.34-5.06,16.87-9.78,25.24-14.79,15.27-9.16,30.46-18.47,45.73-27.64,2.78-1.67,5.78-2.95,8.51-5.05-6.13,.7-12.31,1.14-18.37,2.26-2.09,.38-3.88,2.45-5.8,3.75-11.67,7.91-23.06,16.29-35.09,23.6-10.84,6.58-22.31,12.12-33.63,17.86-4.92,2.49-9.52,1.24-13.17-2.95-4.53-5.2-9.43-10.14-12.15-16.72-3.17-7.68-5.42-15.38-3.88-23.93,.95-5.27,4.25-8.2,8.44-10.72-.3,.51-.52,1.09-.91,1.52-7.06,7.85-7.29,17.01-4.63,26.5,1.14,4.07,3,7.96,4.83,11.79,2.17,4.52,7.36,5.85,12.69,2.88,11.38-6.34,22.59-12.99,33.86-19.53,.62-.36,1.11-.95,1.27-1.09-5.55,0-11.43,.24-17.28-.06-8.57-.43-16.02-3.96-22.72-9.25-1.81-1.43-1.34-2.89-.09-4.4,4.22-5.07,8.44-10.14,12.62-15.25,1.48-1.81,2.81-3.74,4.37-5.84,7.58,1.44,12.07,8.13,18.6,12.36,.73-5.38,1.39-10.22,2.07-15.19,2.6-.19,6.08,.19,9.13-.8,8.14-2.63,16.04-6.01,24.13-8.8,12.11-4.18,24.53-7.53,36.38-12.35,7.38-3,12.55-1.56,17.66,3.81,.84,.88,2.74,.73,4.17,1.07-1.13-4.15-1.77-7.79-3.13-11.12-1.19-2.9-3.96-3.72-6.97-3.03-8.45,1.93-16.9,3.89-25.34,5.9-5.15,1.23-10.23,2.74-15.4,3.83-5.29,1.11-8.19-.47-10.56-5.31-4.35-8.9-8.65-17.83-12.96-26.75-.44-.9-.76-1.86-1.42-3.49,8.61,2.76,15.45-1.5,22.64-3.49,2.97-.82,5.25-.54,7.07,1.8,3.33,4.28,6.48,8.7,9.74,13.04,.98,1.3,2.08,2.5,3.41,4.08,2.1-4.45-.01-9.58,3.95-12.64,.44-.34,1.36-.05,1.76-.05-.77,2.48-1.92,4.83-2.15,7.28-.31,3.44,.48,3.86,3.85,3.25,3.02-.55,6.05-1.07,9.08-1.58,2.71-.45,5.04,.15,6.79,2.47,3.01,3.98,6.04,7.93,9.15,12.02,11.86-6.54,24.35-8.51,38.03-4.23-1.16-2.49-2.01-4.64-3.18-6.59-.33-.55-1.62-.7-2.47-.72-5.17-.14-10.35,.02-15.5-.31-7.95-.51-12.91-5.31-14.32-13.31-.44-2.51-1.14-4.98-1.36-7.63,4.74,5.06,10.54,5.4,16.73,5.63,14.15,.53,28.34,1.09,42.4,2.71,8.81,1.01,16.46,5.46,21.33,13.9,.04-4.22-3.65-12.65-7.32-16.66-5.91-6.46-12.97-11.22-20.98-14.67-11.24-4.85-23-7.85-34.72-11.19-5.3-1.51-9.22-1.32-13.32,1.88-.16,.13-.39,.17-.58,.26-7.17,3.77-7.69,4.95-6.05,13.04,.49,2.43,1.69,5.02-.61,6.9-3.09,0-5.9-.01-8.72,0-3.69,.02-7.39,.18-11.08,.06-3.59-.12-5.45-2.37-6.26-5.75-.72-2.96-1.55-5.89-2.36-8.93-3.96,1.94-4.49,3.64-2.82,7.06,.94,1.92,1.64,3.96,2.44,5.95-.59,.47-1.17,.93-1.76,1.4-.48-1.06-.93-2.13-1.45-3.16-2.45-4.85-5.04-9.62-7.33-14.54-1.94-4.18-.66-8.05,2.82-10.56,7.99-5.77,16.26-11.15,24.41-16.72,2.02-1.38,2.56,.36,3.34,1.55,1.97,3.01,4.63,2.96,6.21-.34,1.69-3.54,2.41-7.05,.22-10.94-5.33-9.47-13.68-12.8-24.21-10.11-1.02,.26-2.08,.37-3.12,.56l.07,.07Zm110.7,373.19c-.1-1.11,.04-2.33-.36-3.32-1.15-2.87-2.47-5.68-3.82-8.46-2.86-5.88-5.89-11.69-3.12-18.58,.27-.67-.09-2.08-.65-2.53-3.66-2.94-7.45-5.71-11.15-8.5,.1,.31,.23,.91,.49,1.45,3.26,6.95,6.56,13.88,9.8,20.83,2.97,6.35,5.88,12.73,8.82,19.1,2.12,4.39,4.21,8.79,6.37,13.15,3.56,7.16,7.24,14.26,10.75,21.45,2.08,4.25,3.92,8.62,5.91,13.02,2.86-1.73,1.78-3.7,.93-5.29-7.27-13.75-14.62-27.46-22.02-41.14-.31-.58-1.31-.77-1.97-1.18Zm85.32-28.74c3.17-2.07,5.99-4.49,9.24-5.9,4.19-1.82,4.54-4.75,3.7-8.5-.05-.21-.03-.43-.09-.63-.55-1.73-.41-3.03,1.56-3.88,.6-.26,1.27-1.99,.97-2.48-2.15-3.58-4.45-7.38-9.01-7.88-7.56-.83-15.16-1.52-22.75-1.74-14.05-.4-28.15-.05-41.97-3.14-3.2-.72-6.22-2.3-9.7-3.63,1.5,5.48,5.26,8.62,9.68,10.61,14.3,6.43,28.74,12.56,43.15,18.73,5.23,2.24,10.85,3.69,15.22,8.46Zm22.86-195c4.53-1.96,7.38-5.23,9.66-9.2,3.57-6.21,4.33-12.88,4.57-19.98,.4-11.85,1.76-23.66,2.74-35.49,.48-5.77,1.09-11.51,4.17-16.64,.28-.46,.15-1.52-.21-1.96-2.2-2.71-4.14-5.97-6.98-7.68-1.25-.75-4.37,1.78-6.68,2.73-5.65,2.32-8.8,6.33-8.41,12.7,.75,12.16,1.64,24.31,2.33,36.48,.73,12.9,1.01,25.8-1.2,39.03Zm-86.47,173.68c-1.66,3.91-1.26,7.04,1.38,9.72,6.42,6.5,12.79,13.06,19.36,19.4,7.34,7.08,14.86,13.96,22.36,20.86,.61,.56,1.82,.95,2.57,.75,6.02-1.58,12.02-3.26,17.97-5.1,.72-.22,1.56-1.5,1.6-2.32,.27-5.71-2.45-9.89-7.79-12.17-11.67-4.99-23.47-9.68-34.99-15-8.43-3.9-18.33-6.03-22.47-16.14Zm194.08-135.82c-.02-.37-.05-.74-.07-1.11-2.19-.13-4.45-.68-6.54-.28-2.77,.54-5.47,1.66-8.08,2.81-10.89,4.79-20.72,11.28-30.36,18.32-8.27,6.04-17.47,10.78-26.41,15.84-1.76,1-4.17,.9-6.3,1.13-3.42,.37-6.85,.6-10.28,.89-.52,.04-1.05,.23-1.56,.17-5.33-.66-10.69-1.19-15.98-2.1-4.65-.8-9.22-2.05-13.82-3.1,2.75,2.31,5.61,4.51,8.72,6.24,6.66,3.71,13.5,6.8,21.41,3.89,1.36-.5,2.92-.43,4.39-.61,6.3-.76,12.63-1.33,18.89-2.35,2.3-.37,4.59-1.53,6.61-2.77,3.96-2.44,7.67-5.31,11.61-7.8,6.44-4.07,12.97-7.99,19.48-11.95,8.55-5.21,17.11-10.4,25.67-15.6,.87-.53,1.74-1.08,2.6-1.62Zm-372.05-30.96c-8.19-5.6-15.68-10.72-23.07-15.77-5.05,6.26-9.82,12.16-14.88,18.43,12.89,4.96,25,3.28,37.95-2.66Zm342.67,68.62c1.06,1.18,1.59,1.96,2.29,2.54,4.02,3.29,8.05,6.58,12.13,9.79,5.37,4.23,5.22,4.03,9.78-.87,3.57-3.83,7.67-7.17,11.74-10.92-11.73-4.87-23.48-4.26-35.93-.53Zm-231.11,165.4c1.63-2.22,4.95-2.59,3.8-5.94-2.36-6.86-4.74-13.71-7.25-20.52-1.42-3.86-3.12-7.62-4.73-11.53-4.8,3.59-6.21,10.39-3.29,15.13,4.4,7.13,9.59,13.83,11.47,22.87Zm176.91-92.04c3.24,7.71,5.36,9.17,11.46,6.59,2.47-1.04,4.72-.97,7.09-1.3,5.9-.83,11.79-1.63,17.92-2.48-.54-1.47-1.2-3.13-1.75-4.83-.63-1.94-1.56-2.56-3.77-2.06-5.02,1.14-10.14,1.84-15.22,2.73-1.21,.21-2.42,.56-3.64,.65-3.87,.28-7.75,.46-12.08,.71ZM140.35,102.26c-.38-.13-.76-.25-1.15-.38-6.65,4.38-13.29,8.75-19.94,13.13,.05,.44,.1,.88,.15,1.32,1.71,.42,3.42,1.22,5.12,1.18,4.84-.12,9.67-.62,14.51-.91,1.76-.11,2.42-1.01,2.27-2.69-.33-3.88-.65-7.76-.97-11.64Zm151.2-38.75c-.49,.4-1.08,1.04-1.8,1.45-2.81,1.6-2.92,3.36-1.29,6.21,2.9,5.07,5.25,10.47,7.83,15.72,1.06,2.16,2.15,4.3,3.26,6.52,4.5-3.64,5.18-6.57,2.53-11.41-3.36-6.13-6.91-12.16-10.54-18.5ZM111.03,153.19c-3.59-6.61-4.88-7.13-10.93-4.99-1.89,.67-3.8,1.29-5.73,1.83-3.4,.95-6.83,1.81-10.24,2.71,1.38,6.29,1.57,6.41,7.34,5.28,1.96-.39,3.97-.6,5.9-1.09,4.53-1.17,9.02-2.46,13.65-3.73Z"></path><path class="cls-1" d="M116.09,67.74c-1.59,1.68-3.62,3.12-4.67,5.09-1.36,2.55-1.94,5.53-2.57,7.47-1.84-4.64,1.21-10.69,7.31-12.49,0,0-.07-.07-.07-.07Z"></path></svg>