<svg xmlns="http://www.w3.org/2000/svg" id="Lag_1" width="285" height="403.5" viewBox="0 0 285 403.5"><defs><style>.cls-1{fill:#efe9e4;}</style></defs><path class="cls-1" d="M38.6,196.01c3.49,2.83,6.59,5.43,9.78,7.92,5.32,4.16,10.73,8.21,16.04,12.37,3.35,2.62,6.59,5.38,9.91,8.04,1.39,1.11,1.83,2.32,1.36,4.07-1.52,5.66-2.63,11.42-4.38,17.01-1.66,5.29-5.78,7.41-11.44,6.56-4.54-.68-5.21-.35-6.94,3.68-.55,1.27-.76,2.68-1.37,3.92-.44,.88-1.22,1.65-2,2.32-.34,.29-1.24,.4-1.54,.18-.33-.26-.53-1.08-.35-1.49,1.73-3.95-.49-6.41-3.31-8.86-6.48-5.62-12.81-11.41-19.29-17.04-5.08-4.42-10.4-8.6-15.34-13.15-1.01-.93-1.06-3.08-1.06-4.66,0-1.23,.71-2.48,1.2-3.69,2.02-4.98,4.16-9.92,6.07-14.94,1.05-2.75,2.81-4.28,5.91-4.58,3.2-.31,6.38-1.14,9.56-1.13,1.82,0,3.65,1.23,5.8,2.02,.38-1.39,1.22-3,1.17-4.59-.13-4.23,1.36-7.88,3.5-11.45,1.12-1.88,2.17-2.59,4.14-.99,1.41,1.15,2.97,2.12,4.9,3.48,.84-2.52,1.63-4.77,2.34-7.04,1.24-3.95,2.28-7.96,3.68-11.85,1.25-3.45,1.19-6.64-.9-9.75-.11-.17-.01-.46-.01-1.03,2.31,0,2.79,1.94,3.57,3.17,1.88,2.96,2.3,3.33,5.78,2.2,1.8-.58,3.43-1.65,5.14-2.47,.73-.35,1.49-.67,2.62-1.17-.15,.69-.12,1.02-.28,1.22-6.53,7.85-3.84,19.13,3.78,25.56,3.64,3.07,7.76,5.24,12.5,6.23,1.13,.24,2.38-.04,3.53,.18,.76,.14,1.42,.73,2.13,1.12-.65,.5-1.27,1.38-1.95,1.42-1.64,.11-3.31-.18-5.08-.02,3.28,2.39,6.05,5.38,10.76,5.4,2.67,.01,5.33,.87,8.01,1.28,2,.31,4.03,.7,6.04,.66,.69-.01,1.99-1.25,1.94-1.85-.36-4.53-2.11-8.27-6.19-11.16-9.47-6.72-18.66-13.8-28.02-20.67-2.04-1.5-2.83-2.88-2.01-5.54,1.48-4.8,2.37-9.77,3.39-14.69,.41-1.95,1.28-3.41,3.44-3.65,2.17-.24,2.56-1.63,3.04-3.29,1.38-4.76,2.9-9.48,4.4-14.21,.14-.44,.48-.82,.68-1.16,.31-.05,.54-.16,.63-.1,3.31,2.63,6.19,1.47,8.87-.94,2.66-2.39,5.55-4.63,7.74-7.37,1.22-1.52,1.68-3.91,1.72-5.92,.24-12.53-9.82-15.4-18.84-13.39-.46,.1-.91,.24-1.38,.28,7.72-4.23,21.14-.14,21.32,10.74,.1,5.71-.59,11.44-1.08,17.15-.07,.8-.97,1.62-1.67,2.26-1.64,1.5-3.38,2.88-5.33,4.52,2.28,1.73,4.2,3.28,6.23,4.71,6.62,4.67,13.3,9.27,19.9,13.96,3.2,2.28,6.26,4.73,9.4,7.07,.39,.29,.87,.52,1.35,.63,2.98,.68,5.94,1.48,8.95,1.89,1.67,.23,3.44-.23,5.51-.41-.03-.15,.22,.36,.15,.82-.45,2.97-.86,5.95-1.5,8.88-.54,2.5-2.33,3.49-4.93,3.03-.17-.03-.33-.08-.49-.12q-5.33-1.19-7.3,4.06c-.76-6.65-6.48-8.77-10.7-11.93-11.11-8.31-22.55-16.22-33.85-24.3-2.41-1.72-4.29-1.03-6.88,2.99,3.18-.32,5.97-.59,9.04-.9-.48,2.93-.98,5.37-1.24,7.83-.09,.86,.22,1.88,.66,2.66,2.9,5.23,7.37,9.06,12.35,12.42,.69,.47,1.35,.97,2.02,1.47,.04,.03,0,.14,0,.95-3.58-2.55-6.86-4.77-9.98-7.18-1.44-1.11-2.58-2.59-3.85-3.9-1.42-1.47-3.02-2.15-5.24-1.71-2.6,.52-5.28,.68-8.6,1.07,2.84,2.3,5.03,4.3,7.45,6,7.11,4.99,14.28,9.88,21.49,14.73,1.15,.78,2.56,1.4,3.94,1.65,4.4,.77,8.83,1.39,13.27,1.95,1.71,.21,2.62-.42,1.83-2.3-.84-2-1.48-4.07-2.02-6.16,3.22,4.79,6.79,9.53,3.8,15.69-1.53,3.15-3.94,5.01-7.86,4.54-2.1-.25-4.25-.18-6.35-.41-2.32-.25-3.27,.68-3.41,2.83-.27,4.12-.4,8.27-1.1,12.32-.41,2.38-1.38,4.93-2.9,6.81-2.35,2.91-6.03,2.03-9.3,1.63-1.59-.19-3.13-.76-4.71-1.1-.56-.12-1.24-.25-1.72-.05-1.67,.67-3.05,7.19-1.68,8.39,4.26,3.72,8.64,7.33,12.97,10.98,1.65,1.39,3.16,3.03,5.02,4.1,3.11,1.79,6.39,3.34,9.72,4.73,1.73,.72,2.8,1.64,3.25,3.39,1.78,6.91,4.91,13.33,9.06,19.13,4.56,6.37,8.24,13.18,12.33,19.78,3.42,5.5,7.48,10.64,10.96,16.11,4.08,6.42,6.69,13.24,7.29,20.95,.39,4.99-.96,9.24-2.73,13.61-.18,.44-.9,.67-1.37,1-.15-.66-.65-1.49-.4-1.95,1.66-3.14,1.41-6.47,1.29-9.8-.24-7.14-2.47-13.7-6.43-19.74-3.46-5.28-6.52-10.85-10.47-15.78-3.73-4.66-8.37-8.66-12.63-12.94-1.34-1.35-2.85-2.58-4.07-4.02-8.33-9.84-18.42-17.89-28.58-25.89-6.68-5.27-13.06-10.89-19.63-16.28-8.18-6.71-16.39-13.37-24.64-19.99-3.18-2.55-6.51-4.94-9.77-7.39-2.7-2.03-5.69-2.6-9.55-1.64Zm23.48,39.03c.11-.25,.23-.5,.34-.75-.72-.64-1.4-1.33-2.17-1.92-3.82-2.95-7.76-5.78-11.48-8.84-5.35-4.4-10.54-8.96-15.8-13.45-3.69-3.14-7.73-3.61-11.94-1.46,6.69,6.16,13.67,12.12,20.03,18.62,4.1,4.19,8.31,7.21,14.55,7.09,2.15-.04,4.31,.46,6.47,.71Zm30.64-21.44c.28-.3,.57-.6,.85-.89-1.7-1.46-3.36-2.97-5.11-4.37-11.08-8.82-22.17-17.63-33.3-26.4-.6-.48-1.56-.55-2.35-.81,.34,.79,.44,1.84,1.05,2.32,5.11,4.11,10.29,8.15,15.49,12.16,6.44,4.96,12.93,9.87,19.39,14.81,1.35,1.03,2.65,2.12,3.98,3.18Zm-23.08-37.76c.12-.13,.23-.25,.35-.38-.76-1.49-1.53-2.97-2.27-4.47-1.3-2.65-3.25-2.84-5.73-.3,2.57,1.73,5.11,3.44,7.64,5.15Z"></path><path class="cls-1" d="M3.81,322.6c12.25,11.7,24.51,23.4,37.34,35.65,.42-1.96,.84-3.44,1.04-4.94,.18-1.36,.04-2.77,.23-4.13,.05-.38,.77-.67,1.19-1,.33,.41,.99,.88,.93,1.23-1.05,5.51,3.13,10.01,3.16,15.34,.02,2.49,.6,5.02,1.27,7.44,.71,2.57,2.03,4.98,2.75,7.54,1.64,5.78,3.06,11.61,4.59,17.41,.46,1.76-.36,2.32-2.09,2.43-4.52,.3-4.98,.06-6.46-3.98-4.27-11.64-11.49-21.13-21.75-28.75-5.54-4.11-10.34-9.13-15.47-13.74-1.8-1.61-3.66-3.16-5.39-4.83-.81-.78-1.96-1.78-1.98-2.7-.16-7.52-.09-15.05-.09-22.57,.24-.13,.49-.25,.73-.38Z"></path><path class="cls-1" d="M162.19,123.12c2.07,3.18,1.62,6.22-1.41,8.36-7.66,5.39-18.95,3.14-22.65-4.41-1.57-3.21-3.93-6.05-5.62-9.21-1.58-2.96-.55-6.82,1.97-9.16,4.63-4.31,10.36-6.72,16.33-8.74,12.02-4.06,24.03-8.15,36.07-12.14,.92-.31,2.45-.34,3.09,.18,3.04,2.47,6.13,2.41,8.89-.48,1.31-1.37,2.16-3.61,4.85-2.12,2.56-4.03-.68-7.05-1.7-10.52,5.62,6.4,5.62,12.09,.21,18.06-1.97,2.17-5.69,3.03-8.75,4.16-14.73,5.46-29.53,10.78-44.26,16.24-3.71,1.37-6.79,3.68-9.05,6.87-.75,1.07-1.06,2.09,.1,3.25,2.08,2.09,4.2,3.88,7.52,3.81,1.93-.04,3.86,.28,5.79,.51,.45,.05,1.13,.3,1.26,.62,.72,1.73,1.99,1.95,3.7,1.6,1.98-.4,3.24-1.5,3.61-3.33,.24-1.17,.08-2.41,.09-3.61l-.05,.07Z"></path><path class="cls-1" d="M33.97,266.72c0,1.4,.15,2.45-.03,3.44-.83,4.71-1.65,9.42-2.66,14.09-.79,3.65,.21,6.87,1.9,10.08,.42,.79,.22,1.87,.31,2.81-.99-.39-2.38-.51-2.89-1.22-1.14-1.58-2.07-3.37-2.64-5.21-.7-2.24-2.21-3.16-4.41-3.4-1.26-.14-2.56-.07-3.81-.24-1.77-.24-2.72,.41-3.14,2.05-.24,.95-.75,1.83-1.31,3.14-.65-.81-1.07-1.12-1.2-1.52-1.66-5.13-4.92-9.22-9.07-12.69-1.63-1.36-2.19-2.92-2.17-4.92,.07-6.57,.03-13.15,.03-20.34,2.35,2.24,4.27,4.1,6.23,5.91,1.65,1.53,3.55,2.84,4.98,4.53,4.05,4.77,9.86,5.37,15.55,6.1,1.05,.13,2.32-1.35,4.34-2.62Z"></path><path class="cls-1" d="M239.01,57.62c.04,.71-.13,1.51,.17,2.1,1.89,3.77,3.89,7.49,5.92,11.36,.9-1.49,1.6-2.65,2.29-3.81,1.04,.83,2.09,1.66,3.45,2.75-.16-1.18-.22-2.38-.5-3.53-.48-1.98,1.02-5.17,2.99-5.77,.38-.12,1.23,.56,1.57,1.05,.73,1.06,1.27,2.24,2.15,3.87,2.28-3.32,1.04-6.3,1.49-9.17,.19,1.7,.28,3.34,.59,4.95,.73,3.91-.13,4.8-4.16,4.13q-.83,2.72-3.3,2.78c-.11,2.35,.41,5.18-2.98,5.53-.2-1.39-.37-2.65-.55-3.91-.37,.01-.73,.03-1.1,.04-.06,.88-.19,1.77-.17,2.65,0,.47,.42,.95,.37,1.4-.1,.95-.37,1.88-.58,2.82-.74-.52-1.48-1.03-2.42-1.69-.38,1.24-.76,2.63-1.24,3.99-.18,.5-.5,1.24-.9,1.34-1.39,.35-1.92,1.18-2.55,2.35-.33,.63-2.02,.61-3.35,.95-.05,.63,.28,2.1-.35,2.83-.59,.69-2.18,.59-3.47,.88q-.87,4.07-3.78,3.61c-.08,.13-.21,.25-.24,.39-.3,1.24-.59,2.49-.88,3.74-1.2-.55-2.56-.91-3.57-1.69-1.17-.89-2.05-2.14-2.96-3.13,.68,5.68,1.39,11.5,2.09,17.32-.26,.03-.52,.05-.78,.08-.21-2.4-.16-4.86-.69-7.19-1.56-6.8-3.36-13.54-5.03-20.32-.22-.88-.18-1.82-.26-2.73,.38-.11,.76-.22,1.14-.34,.68,1.26,1.41,2.49,2.02,3.78,1.77,3.75,3.43,7.55,5.27,11.28,.36,.73,1.28,1.21,1.94,1.8l.84-.2c-.16-1.73-.12-3.5-.51-5.18-.55-2.35-.68-4.33,2.11-5.49,1.07-.45,.86-3,2.77-1.94,.94,.52,1.29,2,1.92,3.04,.19,.32,.44,.61,1.25,.75-.3-1.45-.7-2.9-.85-4.37-.08-.83,.26-1.7,.42-2.56,.67,.56,1.46,1.04,1.98,1.71,.58,.74,.93,1.65,1.98,2.37,0-.79,.09-1.59-.02-2.37-.13-.88-.66-1.75-.61-2.6,.06-1.04,.3-2.77,.87-2.94,1.11-.33,2.52,.22,4.18,.46-.39-1.89-.55-4.19-1.35-6.26-2.2-5.71-4.77-11.3-6.98-17.01-1.43-3.7-2.48-7.54-3.53-11.34,1.99,5.07,3.93,10.16,6,15.2,.36,.87,1.29,1.51,1.96,2.26,0,0-.06-.06-.06-.06Zm-9.03,32.07c1.45-2.64,1.21-3.47-1.38-5.35,.55,2.15,.97,3.75,1.38,5.35Z"></path><path class="cls-1" d="M11.96,153.76c.09,.3,.22,.6,.27,.91q.61,3.88,4.63,3.55c2.44-.2,4.76,2.28,5.09,4.62,.26,1.8,1,3.88,2.28,5.12,3.66,3.55,7.7,6.74,11.58,10.09,.28,.24,.41,.63,.94,1.47-1.04-.34-1.62-.4-2-.68-3.87-2.88-7.71-5.79-11.54-8.72-2.44-1.88-4.69-2.07-7.54-.72-2.31,1.09-4.69,2.83-7.33,.99-2.58-1.8-1.29-4.42-.75-6.54,.88-3.49,2.33-6.84,3.53-10.25,.28,.06,.56,.12,.84,.17Z"></path><path class="cls-1" d="M162.24,123.05c-2.65,.55-5.32,1.06-7.96,1.67-1.48,.34-2.92,.83-4.36,1.29-1.42,.45-2.4,.07-2.59-1.39-.35-2.63-.76-5.28-.75-7.93,0-.74,1.28-1.92,2.18-2.13,2.86-.7,5.8-1.15,8.73-1.48,2.51-.29,3.54,.66,3.86,3.12,.3,2.3,.56,4.61,.83,6.91,0,0,.05-.06,.05-.06Z"></path><path class="cls-1" d="M22.98,251.32c-1.33-9.95-7.48-16.27-16.87-19.94-2.52-.98-3.53-2.25-3.28-4.85,.25-2.57,.05-5.19,.05-8.43,1.44,.97,2.7,1.44,3.36,2.32,2.76,3.66,5.29,7.47,8,11.17,1.89,2.59,3.92,5.09,5.91,7.61,2.81,3.58,3.37,7.7,3.23,12,0,.06-.09,.16-.16,.18-.06,.02-.15-.04-.24-.07Z"></path><path class="cls-1" d="M3.03,281.94c3.24,3.07,5.89,5.7,5.37,9.79-.53,4.16-1.2,8.31-2.06,12.42-.64,3.08-1.66,6.09-2.52,9.13-.26-.06-.53-.11-.79-.17v-31.18Z"></path><path class="cls-1" d="M271.67,48.89c-.09,1.23-.17,2.32-.24,3.41-.21,.09-.41,.19-.62,.28-.82-1.49-1.96-2.9-2.38-4.49-.41-1.55-.09-3.28-.09-4.96q2.13-.18,2.26,4.83c1.61-.1,3.22-.2,4.81-.3q.06,1.65-3.74,1.23Z"></path><path class="cls-1" d="M249.18,27.68c1.71-2.87,1.49-4.96-.82-7.14-1.62-1.53-3.51-2.79-5.28-4.17-.47-.37-.94-.75-1.64-1.32,3.56-.13,8.36,3.39,9.7,6.77,.93,2.36,.49,3.96-1.96,5.87Z"></path><path class="cls-1" d="M239.07,57.68c.39-1.55,.59-3.17,1.2-4.64,2.44-5.82,1.98-11.56-.23-17.3-.16-.42-.27-.86-.16-1.33,2.91,5.87,3.83,11.95,1.61,18.23-.61,1.73-1.65,3.32-2.48,4.98,0,0,.07,.06,.07,.06Z"></path><path class="cls-1" d="M277.03,46.12v-2.56c.24,.19,.55,.32,.55,.44,0,.71,.05,1.46-.17,2.12-.06,.19-1.13,.37-1.41,.16-1.81-1.36-3.64-2.73-5.19-4.34-.32-.33,.51-1.68,1.18-2.49,.92,2.7,2.25,4.76,5.03,6.66Z"></path><path class="cls-1" d="M277.68,35.21c1.13,1.77,2.25,3.54,3.57,5.62-.08,.27-.33,1.16-.59,2.04q-1.98-.37-3.64-7.18c.22-.16,.44-.32,.66-.48Z"></path><path class="cls-1" d="M279.55,31.66c2.24,1.99,1.91,5.46,5.92,5.13-.44,.45-.8,1.15-1.32,1.28-1.64,.42-4.17-1.53-4.9-3.81-.2-.63,.14-1.41,.3-2.61Z"></path><path class="cls-1" d="M77.45,112.55c.82,1.08,1.63,1.69,1.56,2.17-.09,.57-.93,1.03-1.45,1.54-.41-.49-1.07-.95-1.15-1.49-.07-.5,.47-1.08,1.04-2.22Z"></path></svg>