<svg xmlns="http://www.w3.org/2000/svg" id="Lag_1" width="347.91" height="562.15" viewBox="0 0 347.91 562.15"><defs><style>.cls-1{fill:#efe9e4;}</style></defs><path class="cls-1" d="M142.38,408.68c-13.41,1.16-24.23-5.09-34.84-12.64-2.03,6.13-3.9,11.88-5.84,17.61-.59,1.73-.86,4.01-2.1,5.02-8.76,7.09-.02,13.7,.35,20.5,.1,1.84,1.36,4.17,.63,5.43-5.35,9.25-4.96,18.69-1.75,28.39,.31,.94,.58,1.9,.79,2.87,.05,.23-.24,.53-1.76,1.28-1.39-4.23-3.21-8.37-4.08-12.71-1.92-9.59-1.44-20.18-5.47-28.69-5.44-11.5-4.59-20.8,1.09-31.53,3.29-6.22,3.65-13.96,5.64-20.94,.53-1.86,1.95-4.48,3.4-4.81,2.07-.48,5.13,.15,6.76,1.5,7.26,6.02,15.28,10,24.7,10.99,.66,.07,1.32,.19,1.98,.18,.26,0,.53-.28,2.17-1.23-3.75-1.71-6.9-2.72-9.58-4.46-6.5-4.22-13.41-8.12-19-13.37-7.11-6.68-13.08-14.56-19.78-22.21-.56,.47-1.51,1.08-2.21,1.91-5.33,6.35-10.62,12.73-15.9,19.12-.52,.63-1.41,1.48-1.29,2.04,1.16,5.02-2.8,6.78-5.58,9.47-9.76,9.43-16.51,20.43-17.04,34.47-.03,.92-.37,1.82-1.41,2.84-.24-1.13-.86-2.33-.66-3.37,1.12-5.84,2.19-11.71,3.77-17.44,1.59-5.74,4.75-11.21,5.43-17,1.08-9.23,8.22-14.54,12.12-21.87,4.28-8.03,8.38-16.17,12.94-24.04,1.84-3.16,4.29-6.33,7.23-8.38,2.99-2.08,6.17-.2,8.06,2.7,9.24,14.2,21.7,25.15,35.25,34.95,2.78,2.01,5.91,4.31,9.86,2.51-1.92-8.15-7.78-11.82-14.47-15.41-5.89-3.17-11.47-7.48-16.11-12.32-8.62-9.01-16.82-18.52-21.4-30.46-1.03-2.69-2.52-4.19-5.66-2.88-14.53,6.06-28.63,3.6-42.55-2.24-.6-.25-1.2-.47-2.21-.87-4.6,9.95-12.23,17.16-20.38,24.11-7.92,6.75-11.91,15.79-11.7,27.74-1.17-1.75-1.82-2.26-1.78-2.73,.62-8,1.37-16.07,6.37-22.75,7.87-10.5,13.8-21.95,17.9-34.39,1.6-4.87,4.03-5.84,8.77-4.22,2.95,1.01,6.12,2.11,9.16,2.02,13.62-.39,27.36-.14,40.44-5,4.26-1.58,7.43,.24,9.86,3.47,3.58,4.74,6.65,9.88,10.41,14.46,7.47,9.09,15.27,17.92,23.53,26.51,.66-3.82,1.5-7.46-2.68-9.81-1.13-.64-2.23-1.55-3.01-2.58-6.09-8.02-12.44-15.89-18-24.27-2.57-3.88-3.49-8.84-5.32-13.25-.56-1.36-1.38-3-2.56-3.64-9.77-5.34-18.69-11.46-23.2-22.29-.46-1.1-1.63-2.36-2.72-2.68-16.23-4.83-31.28-4.65-42.74,10.39-.96,1.26-2.63,1.97-3.96,2.94l-1.1-1.12c1.44-1.86,2.72-3.88,4.35-5.56,9.42-9.71,19.68-17.47,34.48-15.75,3.7,.43,7.58-.78,11.39-1.03,3.18-.21,5.37,.73,3.25,5.62,4.9-3.16,6.87,0,9.1,2.52,6.1,6.91,14.38,10.52,22.17,14.94,2.14,1.22,4.11,3.68,4.99,6.01,2.79,7.45,6.75,13.91,13.4,19.58,1.64-5.48,5.44-9.4,2.44-15.38-1.59-3.16-1.08-7.48-1.1-11.28-.06-10.83-.12-21.67,.3-32.49,.15-3.7,1.19-7.62,2.85-10.92,1.23-2.45,4.12-4.06,7.1-6.8-.93-8.66,4.75-16.41,9.72-24.41,10.33-16.61,23.53-30.58,39.27-42.13,1.94-1.43,4.35-2.78,6.66-3.02,3.68-.38,3.92-2.23,3.48-5.08-2.87-18.41,.11-36.17,6.19-53.52,1.04-2.98,.84-4.49-1.81-6.63-9.93-8.02-19.64-16.34-29.18-24.83-3.58-3.18-6.71-6.95-9.64-10.76-2.74-3.58-4.94-7.58-7.01-10.83-6.61,.96-13.85,2.01-21.67,3.15,2.47-7.35,2.29-6.83-4.1-7.69-7.65-1.04-15.1-3.43-22.68-5.05-1.55-.33-3.28,.17-4.92,.29,.69,1.65,.96,4.28,2.13,4.77,4.24,1.78,8.75,2.93,13.21,4.15,2.33,.64,4.75,.93,7.12,1.38-.13,.56-.27,1.12-.4,1.69-8.7-2-17.39-4.01-26.8-6.18-5.87,9.2-8.6,22.26-21.23,28.86,1.71,1.36,2.59,2.29,3.66,2.87,21.09,11.5,33.55,50.86,9.52,74.72-.35,.35-.73,.7-1.01,1.11-1.18,1.68-2.32,3.39-3.48,5.08,2.18,1.39,4.2,3.42,6.58,4.04,6.55,1.7,15.75-4.92,16.79-11.63,.22-1.43,.4-2.86,1.79-4.69,.86,1.36,2.01,2.63,2.52,4.11,3.68,10.6-2.77,23.63-13.69,27.03-20.3,6.31-37.84,.85-51.65-14.62-20.87-23.38-26.05-49.44-13.68-78.26,.84-1.97,1.92-3.98,3.36-5.52,2.4-2.55,4.13-4.94,3.16-8.79-.32-1.28,.75-3.32,1.79-4.48,10.66-11.88,21.09-23.99,32.4-35.23,3.72-3.7,9.67-5.37,14.85-7.29,1.72-.63,4.23,.88,6.73,1.5,.39-1.55,.62-3.3,1.26-4.88C97.59-.97,103.46-.04,108.04,.18c11.62,.55,23.2,2.06,34.79,3.2,2.42,.24,4.99,.12,7.23,.9,5.12,1.78,10.16,3.93,10.38,10.47,3.85-2.07,6.99-4,10.33-5.45,1.13-.49,3.21-.28,4.12,.48,16.48,13.91,33.65,27.14,48.91,42.3,8.18,8.13,12.62,19.19,7.93,32.36-2.39,6.71-.92,14.81-1.18,22.28-.04,1.15,0,2.3-.46,3.45,0-4.28,.33-8.59-.11-12.82-.33-3.23-1.45-6.44-2.63-9.49-.3-.76-2.39-1.46-3.31-1.15-.74,.25-1.55,2.22-1.3,3.16,4.32,16.28,.97,31.95-3.58,47.53-.61,2.07-1.83,4.01-2.16,6.1-.21,1.33,.71,2.85,1.12,4.28,1.23-.85,3.23-1.47,3.56-2.59,2.58-8.76,4.86-17.6,7.19-26.43,.28-1.07,.34-2.2,1.33-3.23-.62,8.26-1.37,16.52-1.81,24.79-.33,6.25-.18,12.51-.36,18.77-.12,4.28-2.47,7.5-6.25,8.91-12.15,4.56-19.34,14.61-27.08,23.99-6.56,7.95-11.96,16.99-19.21,24.19-4.65,4.62-7.46,9.9-10.48,15.29-.62,1.1-.42,2.85-.15,4.22,1.96,9.93,3.98,19.85,6.11,29.74,.55,2.54,1.22,5.17,2.44,7.44,2.89,5.38,6.15,10.56,9.24,15.84,.34,.58,.55,1.24,.81,1.86,.48-.12,.96-.24,1.44-.36,2.84-6.65,6-13.19,8.4-20,1.68-4.74,2.2-9.87,3.5-14.75,.35-1.32,1.4-2.9,2.57-3.5,8.26-4.23,11.64-12.11,14.99-19.92,4.45-10.38,13.16-14.94,23.87-11.29,12.81,4.36,25.54,5.62,38.7,1.78,2.94-.86,6.3-.71,9.41-.44,1.8,.16,3.51,1.48,5.26,2.27-.15,.44-.3,.88-.45,1.33-.73,.15-1.45,.42-2.18,.41-4.08-.04-8.28-.81-12.21-.11-10.66,1.9-21.16,4.29-32.16,2.72-3.49-.5-7.37,.04-10.73,1.15-1.89,.62-3.44,3.2-4.49,5.23-3.66,7.05-6.86,14.34-10.6,21.35-1.55,2.92-6.41,14.72-7.23,18.12-2.38,9.82-2.66,20.38-10.91,28.12-3.01,2.82-5.76,6.76-6.71,10.66-.75,3.09,1.42,6.89,2.41,10.82,8.96-11.47,17.61-21.62,25.15-32.54,5.21-7.56,9.11-16.07,13.15-24.37,2.42-4.98,5.99-7.45,11.43-6.32,7.45,1.55,15.03,2.69,22.25,4.98,7.95,2.53,16.25,2.89,24.23,4.95,.16,.04,.34,.1,.49,.06,8.49-2.28,17.73-.54,25.76-5.87,8.65-5.74,18.25-8.32,28.37-4.35-5.2,.77-10.72,1-15.88,2.5-8.43,2.44-15.8,7.04-21.61,13.75-6.24,7.21-14.91,7.97-23.12,7.25-10.31-.9-20.45-3.75-30.65-5.83-3.78-.77-7.79,1.95-9.07,5.82-6.59,19.94-16.64,37.61-33.36,50.98-3.68,2.95-6.78,6.65-9.99,10.16-.46,.51-.22,1.88,.02,2.77,.71,2.55,1.59,5.05,2.4,7.58,1.09,3.39,4.18,3.38,5.98,2.01,7.63-5.78,15.06-11.87,22.25-18.19,4.86-4.27,9.12-9.2,13.82-13.66,1.91-1.81,4.27-3.13,7.38-5.37,2.45-7.82,7.32-8.34,16.52-5.37,12.85,4.14,19.12,14.59,27.47,23.28,2.34,2.44,5.39,4.29,8.32,6.06,14.58,8.81,29.2,17.58,37.5,33.36,1.47,2.8,1.85,6.17,2.73,9.28-.61,.21-1.21,.42-1.82,.64-.55-.84-1.37-1.61-1.62-2.53-4.41-16.25-16.43-24.05-31.56-28.08-4.01-1.07-8.38-.77-12.58-1.16-.98-.09-2.17-.14-2.85-.71-8-6.58-15.93-13.24-23.84-19.93-1.26-1.07-2.23-2.5-3.51-3.55-3.28-2.7-5.11-2.06-7.29,1.68-7.5,12.86-15.45,25.46-28.98,32.92-4.57,2.52-9.95,3.54-14.62,5.92-3.55,1.81-6.55,4.67-9.92,7.16,.59,5.86,3.26,7.68,8.79,5.12,11.57-5.36,23.74-9.58,32.94-19.25,4.51-4.74,9.07-2.3,11.92,3.79,2.25,4.8,6.23,8.97,10.04,12.82,4.08,4.12,8.94,7.44,13.29,11.31,1.23,1.1,2.15,2.79,2.7,4.38,3.27,9.62,8.29,17.59,16.22,24.54,10,8.76,15.88,20.76,18.85,33.89,.22,.97-.27,2.09-1.61,3.46-.53-1.14-1.34-2.23-1.55-3.43-2.41-14.12-11.49-23.01-23.55-29.06-8.91-4.47-16.81-9.29-19.71-19.76-.53-1.92-3.5-3.31-5.54-4.62-7.81-5.03-12.29-12.46-15.49-20.89-.28-.75-.76-1.43-1.41-2.63-10.59,7.91-20.2,17.49-34.56,17.07,2.02-1.06,3.93-2.57,6.07-3.1,8.35-2.07,15.01-6.89,21.24-12.48,1.22-1.1,2.19-2.47,3.28-3.72-.31-.4-.61-.79-.92-1.19-1.97,.96-3.92,1.96-5.91,2.86-10.14,4.55-18.63,13.94-31.62,10.39-1.13-.31-4.36,2.99-4.76,4.98-.63,3.15,2.16,4.8,5.15,4.44,2.58-.31,5.05-1.48,7.57-2.28-.49,1.04-.81,2.22-1.52,3.07-.61,.74-1.67,1.11-3.75,2.4,5.22,2.8,8.83,5.69,12.91,6.72,7.03,1.77,14.32,2.75,21.55,3.33,4.27,.34,6.59,1.83,8.11,5.81,5.41,14.24,13.52,26.28,28.05,32.76,1.21,.54,2.49,1.24,3.75,1.27,7.37,.15,6.93,1.56,7.18,9.15,.36,11.29-4.35,21.65-7.89,32.14-.31,.92-2.11,1.33-3.22,1.97-1.12,.64-2.24,1.27-3.56,2.02,5.71,5.23,5.07,6.53-1.73,10.09-3.17,1.66-6.71,4.8-7.69,8.01-3.01,9.82-9.61,16.22-17.73,21.46-13.24,8.55-27.55,12.43-43.31,8.98-4.33-.95-8.12-2.66-9.42-8.8,7.37,4.94,14.27,4.74,20.89,1.15,9.66-5.25,19.05-10.97,23.84-22.86-4.66,0-8.84-.77-12.61,.15-9.53,2.31-18.86,5.36-20.98,17.07-.14,.8-1.22,2.1-1.68,2.03-.97-.15-2.47-.94-2.62-1.69-.56-2.86-1.58-6.07-.81-8.66,3.82-12.78,11.74-21.79,25.12-25.29,1.3-.34,3.2-1.72,3.32-2.78,1.4-13.09,9.84-22.36,17.41-31.97,2.8-3.55,3.18-5.81-.53-8.46-8.87-6.34-14.08-14.86-15.46-25.75-.13-1.05-1.28-2.61-2.21-2.83-7.32-1.73-14.7-3.2-22.56-4.85-2.79,6.89-5.87,14.79-17.56,14.55,5.19-3.12,9.28-5.99,9.09-11.48-.07-2.01-1.64-3.96-2.53-5.94-1.62,.87-3.61,1.39-4.79,2.66-5.73,6.15-12.57,6.74-20.21,4.88-1.87-.46-3.98,.09-5.99,.18,.64,2.75,.43,6.33,2.12,8.05,2.25,2.3,5.97,3.15,8.64,4.43-7.52,3.46-14.59-.86-21.99-14.22-4.1,3.25-8.26,6.4-12.19,9.83-.67,.59-.72,2.45-.4,3.54,2.8,9.58,1.15,18.81-2.2,27.84-.5,1.35-2.41,2.17-3.67,3.24,.01-1.53-.33-3.16,.1-4.57,2.47-8.2,4.41-16.49,2.62-25.03-.44-2.09-2.74-3.79-4.85-5.32,.06,13.78-3.14,25.7-12.66,35.57,3.69,3.26,8.51,6.55,12.08,10.87,6.34,7.67,10.96,16.5,8.97,26.86-.69,3.61-3.31,7.36-6.08,9.95-4.78,4.46-5.33,7.88-.45,12.55,.92,.88,2.17,1.42,3.66,2.36,.93-1.12,1.64-2.33,2.68-3.07,.62-.44,1.78-.12,2.69-.14,.02,.87,.42,2.15,0,2.55-3.97,3.73-1.16,6.11,1.79,8.52-.49,.13-.97,.27-1.46,.4,.68,2.95,.71,6.3,2.21,8.75,1.87,3.06,5.05,1.8,8.1,.89,1.56-.47,3.89,.65,5.53,1.61,4.67,2.73,9.41,4.15,14.59,3.11,.15-.48,.3-.95,.45-1.43-1.04-.6-2.03-1.33-3.12-1.8-11.89-5.09-20.48-13.39-25.22-25.56-2.7-6.95-2.01-8.79,4.25-13.13,1.06-.73,1.55-3.03,1.45-4.55-.96-14.18-9.62-24.01-19.2-33.26-1.74-1.68-3.63-3.19-5.46-4.78,.27-.57,.54-1.14,.81-1.71,2.19,.81,4.95,1.03,6.48,2.52,7.01,6.86,13.95,13.85,20.34,21.27,2.85,3.31,5.07,7.56,6.3,11.76,1.32,4.51,3.2,7.86,7.07,10.7,7.11,5.23,11.47,12.45,12.61,21.34,.28,2.2,.04,4.47,.04,8.17-4.81-8.59-11.3-13.13-18.99-16.09-2.97-1.14-6.04-2.05-9.11-2.94-.47-.14-1.58,.34-1.64,.67-.16,.84-.14,1.9,.26,2.63,1.41,2.55,3.24,4.89,4.5,7.5,5.28,10.98,22.08,20.49,36.39,13.2-.21,4.87-3.37,7.25-6.94,8.91-13.15,6.08-25.79,4.09-37.42-3.77-6.39-4.32-12.45-9.33-17.88-14.81-3.26-3.29-6.19-7.81-7.2-12.25-2.24-9.81-7.41-17.65-13.6-25.16-3.33-4.04-6.54-8.23-9.28-12.67-.99-1.59-1.09-4.34-.47-6.18,1.09-3.26,2.55-6.64,4.72-9.25,6.95-8.36,11.1-17.99,13.79-28.35,.62-2.38,1.25-5.13,.64-7.38-2.49-9.25,2.76-14.09,9.48-18.57,2.98-1.98,5.55-4.64,8.09-7.2,2.04-2.05,.9-3.51-1.39-4.44,.23-.23,.45-.57,.73-.62,3.19-.64,5.98-2.01,5.62-5.73-.3-3.17-5.29-5.19-8.94-4.17-2.81,.79-6.01,2.56-8.44,1.84-5.66-1.67-11.03-4.44-16.37-7.05-2.05-1-3.73-2.79-5.57-4.23-.4,.43-.81,.86-1.21,1.29,1.24,1.59,2.24,3.46,3.75,4.71,7.34,6.06,15.75,9.78,25.2,11.26,1.88,.3,3.57,1.85,5.35,2.82ZM107.19,147.86c-.32-.28-.65-.57-.97-.85-3.18,2.09-6.27,4.33-9.55,6.24-8.03,4.68-19.49,3.45-25.01-2.53-3.77-4.09-3.06-6.95,1.6-9.67,5.9-3.45,12.07-6.28,16.13-12.61,9.02-14.07,6.17-45.08-11.68-57.96-3.72-2.68-7.38-5.38-12.71-4.46-6.46,1.11-13.09,1.24-19.6,2.08-1.33,.17-3.01,1.31-3.65,2.49-8.07,14.8-9.14,30.78-4.65,46.47,4.99,17.46,16.81,30.21,32.8,38.93,8.23,4.49,16.89,4.6,25.65,2.14,5.55-1.56,8.63-5.95,11.64-10.26Zm96.62,239.36c.64-5.1-.8-8.43-5.56-10.1-1.81-.64-3.78-1.6-5-3-6.45-7.38-14.43-8.74-23.54-6.72-6.47,1.44-11.46,4.83-13.64,11.1-1.14,3.29-1.98,6.17-4.72,8.82-2.04,1.96-4.93,5.68-1.31,9.13,3.65,3.48,5.42-.67,7.81-2.21,8.42-5.42,17.08-10.65,27.48-10.21,6.05,.26,12.04,2.02,18.49,3.19Zm-6.63-18.97c1.08-6.21-1.01-9.67-4.51-12.6-2.26-1.89-5.6-3.41-6.5-5.83-2.28-6.1-6.96-8.01-12.48-9.06-8.91-1.69-20.46,4.95-22.73,12.35-1.56,5.1-3.54,10.26-6.39,14.71-2.1,3.28-1.43,4.93,1.93,8.14,2.14-2.56,4.15-5.07,6.28-7.46,3.13-3.51,5.8-7.85,9.66-10.21,10.67-6.52,20.67-4.03,28.83,5.96,1.23,1.51,3.34,2.29,5.92,3.99Zm-55.04-18.81c1.29-1.35,2.75-2.57,3.81-4.07,1.31-1.85,1.81-4.81,3.51-5.76,5.14-2.87,10.51-6.24,16.14-7.08,6.21-.93,13.29-1.47,18.37,4.71,1.15,1.4,4.06,1.35,7.34,2.31-.39-3.91,.38-7.99-1.11-9.14-5.43-4.18-11.61-7.39-17.54-10.91-.68-.4-1.55-.52-2.35-.64-19.08-2.79-30.6,12.16-28.17,30.58Zm-10.87-17.73c2.8-3.58,6.11-6.19,7.16-9.52,1.97-6.21,5.76-10.37,11.61-11.87,6.66-1.71,13.61-2.42,20.48-3.05,1.86-.17,3.95,1.4,5.82,2.39,3.93,2.09,7.78,4.33,11.67,6.51-2.49-5.17-5.37-9.39-8.42-13.47-.5-.67-1.84-.67-2.73-1.09-3.55-1.68-7.16-3.27-10.61-5.13-9.14-4.94-26.53,.47-28.25,12.01-.76,5.12-.22,11.45-5.69,15.02-3.35,2.19-2.64,4.79-1.04,8.21Zm79.93,30.35c-1.48,0-3.23-.5-4.38,.11-1.87,.99-4.57,2.6-4.72,4.16-.22,2.25,1.02,5.17,2.63,6.88,1.06,1.13,4.1,1.32,5.82,.71,4.44-1.59,8.57-4,12.93-5.82,16.63-6.94,26.3-20.77,35.1-35.42,.59-.97,0-2.65-.03-4-1.16,.6-2.56,.95-3.44,1.83-7.38,7.37-14.28,15.26-22.1,22.13-6.06,5.33-13.13,9.63-21.8,9.42Zm-36.42-74.65c1.89-4.83,.13-9.24-4.03-11.09-3.7-1.65-8.06-2.4-11.09-4.83-5.62-4.49-11.18-4.5-17.15-1.74-1.8,.83-4.41,2.33-4.6,3.8-.69,5.14-3.66,8.82-6.36,12.86-2.03,3.04-2.8,6.66-.73,10.69,3.46-9.36,10.91-13.04,19.47-15.52,9.13-2.64,17.2-1.15,24.49,5.84Zm68.01-5.62c-.81-.35-1.63-.71-2.44-1.06-1.62,3.41-2.91,7.03-4.93,10.18-5.28,8.2-11.64,15.79-16.14,24.38-4.67,8.92-13.18,11.95-20.88,16.28-2.26,1.28-4.49,2.05-3.7,4.71,.64,2.14,2.17,4.97,3.94,5.55,1.65,.54,4.33-1.21,6.2-2.48,1.58-1.07,2.43-3.16,3.95-4.36,14.14-11.14,22.9-26.15,30.33-42.08,1.64-3.51,2.47-7.39,3.67-11.1Zm27.48,176.89c-.34-.49-.69-.97-1.03-1.46-2.22,.87-4.85,1.26-6.55,2.73-2.03,1.76-3.01,4.69-4.9,6.68-7.41,7.84-9.19,17.81-10.78,27.84-.27,1.67,.28,3.47,.45,5.2,.4-.39,.79-.79,1.19-1.18,4.91,2.33,9.83,4.67,14.74,7,.25-.34,.51-.68,.76-1.02-1.11-1.33-2.65-2.49-3.24-4.01-1.5-3.91-4.26-8.37-3.47-11.93,1.71-7.7,5.19-15.02,8.24-22.38,1.1-2.67,3.03-4.99,4.59-7.47Zm-127.44-78.68c-.94-1.27-2.4-4.1-4.69-5.86-.81-.62-3.57,1.75-5.54,2.06-3.31,.51-6.48,2.68-10.1,.04-12.07-8.8-22.15-19.47-30.8-31.58-.62-.87-1.82-1.34-2.75-1.99,0,1.28-.53,2.94,.08,3.77,5.1,6.91,9.78,14.3,15.84,20.29,6.05,5.97,13.4,10.68,20.46,15.53,3.2,2.2,7.02,3.57,10.67,5.04,3.54,1.43,6.81-1.33,6.83-7.29Zm85.67,159.23c9.67,3.19,16.27-2.06,22.39-8.24,3.2-3.23,6.31-5.76,11.35-5.78,1.84,0,4.83-2.82,5.21-4.76,.57-2.88-2.23-3.45-5.04-3.9-2.2-.36-4.19-2.46-6.1-4.01-1.05-.85-1.73-2.15-2.57-3.25-.77,1.12-1.61,2.2-2.29,3.37-2.7,4.69-4.69,10-8.19,13.96-4.19,4.75-9.67,8.36-14.77,12.62Zm-63.42-134.75c-5.42,2.69-6.62,5.95-2.98,8.65,4.23,3.13,8.5,6.45,13.24,8.58,3.22,1.45,7.42,1.78,10.97,1.24,6.7-1.02,17.7-17.44,16.49-24.06-.24-1.33-1.74-3.21-2.93-3.43-3.31-.62-6.76-.52-10.44-.71,6.91,12.04,6.13,17.49-2.81,21.97-8.98,4.51-16.36,.32-21.55-12.25Zm40.08-236.52c.44-.5,.87-.99,1.31-1.49-1.09-.38-2.3-1.25-3.26-1.03-1.42,.33-3.14,1.1-3.91,2.24-3.16,4.66-5.49,9.95-9.06,14.23-8.6,10.3-17.77,20.12-26.59,30.24-.89,1.02-.89,2.8-1.31,4.23,1.5,.06,3.02,.29,4.5,.12,.72-.08,1.43-.83,2-1.42,12.98-13.36,25.3-27.25,34.59-43.55,.65-1.15,1.16-2.38,1.73-3.57Zm-.66,96.79c-.52,.22-1.04,.44-1.56,.66-.18,1.59-.31,3.19-.56,4.78-.8,5.06-1.3,10.21-2.56,15.16-1.63,6.38-4.77,11.6-12.28,12.67-1.31,.19-2.96,2.08-3.41,3.52-1.31,4.16,.53,6.53,5.34,7.68,3.73,.89,6.38-1.05,6.91-5.76,.3-2.67,.33-4.92,3.61-5.5,.64-.11,1.35-1.03,1.63-1.73,3.49-8.66,6.64-17.45,5.72-27-.15-1.56-1.85-2.98-2.84-4.46Zm-9.74-114.65c-16.91,3.61-54.27,46.87-53.22,59.08,14.38-21.98,33.31-40.3,53.22-59.08Zm50.6,267.91c-3.49,4.59-3.72,9.28-2.82,13.94,2.02,10.47,11.12,16.12,16.01,24.59,.26,.46,1.22,.87,1.73,.76,3.71-.77,7.4-1.69,11.09-2.56,.22-.57,.44-1.15,.66-1.72-16.89-5.41-23.26-18.69-26.67-35.02ZM46.66,50.68c.22,.47,.44,.94,.67,1.41,1.81-.7,4.1-.93,5.35-2.19,3.36-3.37,6.47-7.03,9.33-10.85,6.54-8.74,13.78-16.52,24.21-20.75,1.03-.42,1.4-2.48,2.08-3.79-1.44-.39-2.88-1.09-4.32-1.08-1.04,0-2.07,.96-3.11,1.47-15.83,7.74-24.91,21.85-34.2,35.77ZM179.16,19.69l-1.48,1.64c1.8,1.65,3.6,3.3,5.4,4.95,7.48,6.85,15.47,13.25,22.24,20.75,3.54,3.92,9.26,6.98,8.99,13.88-.05,1.26,2.78,3.02,4.61,3.79,.91,.38,3.57-.86,3.65-1.57,.2-1.78-.09-4.06-1.12-5.44-2.57-3.45-5.5-6.66-8.57-9.68-5.08-5.01-10.18-10.05-15.65-14.62-5.79-4.84-12.03-9.15-18.07-13.68Zm-56.68,326.94c-.95-2-1.55-4.3-2.95-5.92-2.15-2.5-4.89-4.5-7.31-6.78-7.63-7.17-15.04-14.45-19.02-24.55-.95-2.4-3.65-4.12-6.09-6.73-1.61,10.07,23.09,41.52,35.36,43.98Zm-20.42-66.16c-.7,.24-1.4,.47-2.1,.71,1.35,3.65,2.12,7.66,4.16,10.88,5.74,9.03,11.82,17.87,18.2,26.46,1.21,1.64,4.92,3,6.57,2.31,1.85-.78,3.72-4.08,3.61-6.18-.09-1.64-3-3.43-4.99-4.6-3.29-1.94-7.37-2.82-10.14-5.26-3.41-3.01-6.15-6.95-8.56-10.87-2.62-4.26-4.53-8.95-6.75-13.45ZM187.93,63.85c.07-.54,.13-1.07,.2-1.61-.84-.95-1.53-2.11-2.54-2.81-8.67-5.98-14.51-14.45-20.5-22.83-.88-1.24-2.98-1.6-4.51-2.37-.16,1.81-1.18,4.38-.35,5.31,7.46,8.42,15.18,16.61,23.06,24.64,.7,.72,3.06-.18,4.64-.33Zm-109.76,232.43c-13.63,8.65-28.22,5.96-43.02,3.42,1.1,1.32,2.3,2.39,3.7,2.95,12.31,4.95,24.96,5.25,37.7,2.16,5.08-1.23,5.39-3.35,1.63-8.53Zm172.8-26.64c3.1,6.05,8.91,5.63,13.22,7.05,16,5.29,27.23,5.52,31.44,1.03-14.54-2.63-28.86-5.22-44.66-8.08Zm-85.08-4.69c-.86-7.33-1.38-13.14-2.29-18.89-.56-3.59-1.47-7.18-2.73-10.58-.41-1.1-2.42-1.61-3.7-2.39-.31,1.45-1.05,2.96-.86,4.35,1.18,8.71,2.54,17.41,3.91,26.09,.4,2.5-1.25,6.46,3.1,6.43,1.04,0,2.05-3.95,2.56-5Zm41.96,138.65c-.54,.31-1.09,.62-1.63,.93,.7,2.03,.78,4.94,2.2,5.95,5.71,4.06,11.61,7.98,17.89,11.02,2.9,1.41,6.84,.84,10.31,.79,.87-.01,1.71-1.51,2.56-2.33-.93-.51-1.8-1.29-2.79-1.49-3.06-.63-6.28-.68-9.23-1.6-7.7-2.4-14.42-6.47-19.31-13.26Zm5.02,118.2c.48,.37,.95,.74,1.43,1.12,3.1-2.69,6.37-5.23,9.27-8.12,5.03-5,11.37-6.59,18.03-7.5,2.26-.31,4.56-.38,6.84-.55-1.54-1.76-3.02-3.58-4.64-5.26-2.77-2.88-4.92-2.52-7.06,.91-.72,1.16-1.65,2.38-2.79,3.05-5.09,3.01-10.54,5.49-15.37,8.87-2.45,1.72-3.85,4.93-5.72,7.47Zm-78.65-249.98c.75-15.79,1.51-31.58,2.26-47.36-5.56,6.79-7.37,41.4-2.26,47.36Zm125.39,103.67c-1.22,7.9,10.49,24.39,18.41,26.84,1.46,.45,3.25-.18,4.89-.32-.79-1.49-1.26-3.31-2.42-4.43-4.75-4.56-9.87-8.75-14.52-13.41-2.35-2.35-3.99-5.39-6.36-8.69ZM147.98,12.42c.12-.74,.25-1.48,.37-2.22-2.35-.55-4.69-1.39-7.07-1.59-3.95-.33-7.98,.12-11.88-.43-6.27-.88-12.43-2.47-18.69-3.4-1.53-.23-3.47,.66-4.81,1.61-.5,.35-.29,2.98,.39,3.47,1.46,1.06,4.37,2.49,5.06,1.89,4.87-4.24,10.2-1.13,15.22-1.34,4.42-.18,8.88,.84,13.33,1.29,2.69,.27,5.39,.48,8.08,.71Zm50.72,124.4c2.22-15.28,4.44-30.56,6.66-45.83-6.8,14.64-8.15,30.08-6.66,45.83Zm97.94,212.34c-.39-2.07-.31-2.69-.58-2.95-7.28-6.98-14.57-13.97-21.97-20.82-.74-.68-2.25-.54-3.4-.77,.36,1.09,.43,2.42,1.12,3.23,3.97,4.62,7.74,9.48,12.25,13.51,3.34,2.99,7.7,4.85,12.58,7.8Zm-156.98,82.56c1.2,.41,2.84,1.55,4.32,1.38,4.57-.54,14.78-11.89,15.23-16.65,.07-.78-.54-1.75-1.11-2.38-.17-.18-1.48,.34-1.97,.84-5.4,5.44-10.74,10.94-16.47,16.81Zm-14.35-85.08c.98,4.6,4.1,8.08,7.14,7.1,2-.64,4.29-3.03,4.81-5.06,.79-3.03-3.49-6.98-6.71-6.24-1.97,.46-3.51,2.74-5.24,4.2Zm-50.02-95.03c.1,9.77,10.46,20.57,20.6,21.91-.57-1.66-1.41-3.21-2.65-4.32-4.49-4-9.23-7.75-13.65-11.83-1.73-1.6-2.89-3.83-4.3-5.77Zm148.25-97.29c-9.56,1.19-11.29,3.5-9.72,12.96,7.89-.8,11.46-5.56,9.72-12.96Zm-60.83,363.14c6.82,4.72,13.11,9.07,19.4,13.42-2.29-5.07-5.14-9.6-8.08-14.08-.32-.48-1.16-.97-1.68-.9-3.15,.42-6.28,1-9.64,1.56Zm120.5-112.36c-.27,1.71-1.32,3.85-.68,5.14,3.52,7.12,9.6,11.24,18.05,14.34-6.17-6.92-11.44-12.83-17.37-19.48Zm-180.86-10.47c-4.11,9.16-7.93,17.66-11.79,26.25,5.44,0,12.82-16.12,11.79-26.25Zm122.69-163.39c-4.28,7.19-8.6,14.36-12.78,21.61-.35,.6,.19,1.7,.32,2.58,1.07-.45,2.52-.61,3.14-1.41,5.12-6.66,7.98-14.35,9.33-22.77Zm4.2-161.84c-.52,.03-1.04,.05-1.57,.08-2.86,2.49-5.72,4.98-8.96,7.8,3.72,1.38,6.84,2.54,10.52,3.9v-11.78Zm11.83,203.94c4.14-.14,7.07-3.41,6.41-6.16-.29-1.21-2.06-3.01-3.03-2.94-3.16,.24-5.94,1.71-5.31,5.62,.23,1.44,1.49,2.71,1.94,3.49Zm29.12,45.41c-1.98-1.67-3.41-3.19-3.63-3.03-2.27,1.63-4.34,3.53-6.46,5.35,1.12,.76,2.61,2.4,3.29,2.12,2.14-.89,3.98-2.51,6.8-4.44Zm-13.55,55.05c1.29-1.88,2.86-3.52,2.6-3.89-1.16-1.65-2.83-2.94-4.32-4.36-.99,1.09-3.01,2.73-2.78,3.16,.92,1.69,2.54,3,4.5,5.09ZM45.48,63.07c1.53-2.02,3.16-3.22,3.08-4.29-.09-1.15-1.78-2.18-2.77-3.27-1.09,1.03-2.84,1.93-3.07,3.13-.19,1,1.38,2.35,2.77,4.44Zm36.77,227.68c-.1,1.06-.2,2.12-.3,3.18,2.1,.28,4.21,.56,6.31,.84,.09-1.14,.37-3.26,.24-3.28-2.06-.4-4.16-.54-6.26-.74Zm7.74,42.34c-2.35-1.46-3.8-2.62-5.44-3.21-.39-.14-2.21,2.24-2.09,2.38,1.14,1.37,2.45,2.71,3.98,3.57,.38,.22,1.75-1.31,3.55-2.74Zm13.89-64.91c-1.42,1.56-2.74,2.79-2.64,2.93,1.32,1.74,2.83,3.34,4.41,4.84,.05,.05,2.18-1.68,2.06-1.91-.95-1.82-2.21-3.48-3.83-5.86Zm97.49-7.07c.67,.24,1.33,.47,2,.71,.72-2.1,1.48-4.19,2.05-6.34,.02-.09-2.13-1.23-2.63-.9-2.57,1.67-3.2,3.95-1.41,6.53Zm-109.79,163.62c-.63,.28-1.27,.56-1.9,.85,1.41,3.87,2.83,7.75,4.24,11.62,.66-.25,1.31-.5,1.97-.75-1.44-3.9-2.87-7.81-4.31-11.71Zm72.92-199.12c-2.62-.16-4.72-.3-6.82-.43-.4,.64-.81,1.29-1.21,1.93,1.47,1.34,2.95,2.67,4.71,4.27,1.3-1.62,1.89-2.19,2.28-2.87,.37-.67,.53-1.45,1.04-2.9Zm13.49-208.52c-1.91-1.44-2.89-2.73-3.99-2.83-.86-.08-1.84,1.33-2.77,2.08,.9,.96,1.65,2.36,2.76,2.73,.75,.26,1.98-.92,4-1.98Z"></path><path class="cls-1" d="M83.17,101.97c-.18,12.89-10.4,23.7-22.23,23.49-10.57-.18-19.66-11.26-19.47-23.74,.18-12.48,9.23-22.99,19.79-22.89,13.41,.13,21.96,12.87,21.91,23.13Z"></path></svg>