<svg xmlns="http://www.w3.org/2000/svg" id="Lag_1" width="484.28" height="442.89" viewBox="0 0 484.28 442.89"><defs><style>.cls-1{fill:#eee9e4;}</style></defs><g id="Lag_2"><path class="cls-1" d="M372.25,154.24c3.24-.85,5.93-1.05,8.09-2.23,6.93-3.78,12.14-17.94,9.89-25.54-.42-1.43-.14-3.13,.09-4.66,.85-5.55,2.63-11.1,2.56-16.63-.13-10.14-8.47-17.91-17.58-16.97-1.82,.19-4.42,2.04-4.92,3.66-.84,2.71,1.38,3.82,4.17,4.12,5.64,.6,6.97,5.41,7.94,9.7,3.54,15.74-10.29,36.87-25.96,40.48-1.36,.31-2.48,2.18-3.45,3.52-3.67,5.06-6.94,10.45-10.97,15.21-1.88,2.22-5.01,3.99-9.19,1.22,8.35-3.82,12.9-10.38,15.51-18.26,1.87-5.68,3.37-11.6,.81-17.54-2.52-5.83-6.05-6.12-10.24-.92,9.84,6.56,10.18,14.62,.96,22.82-13.7,12.19-33.33,9.94-44.7-4.65-6.01-7.72-8.85-15.79-6.69-25.49,1.8-8.05,6.7-12.22,14.97-12.35,6.08-.1,10.27-4.49,10.72-10.78,.08-1.14,1.41-2.47,2.5-3.22,12.18-8.28,16.55-20.13,14.63-34.15-1.09-7.98-7.07-12.97-14.21-16.15-1.17-.52-3,.44-4.52,.71,.73,1.23,1.17,2.91,2.24,3.6,6.33,4.09,6.58,10.65,6.36,16.86-.47,13.24-8.03,21.81-19.79,26.93-3.05,1.33-6.21,2.11-7.15,5.98-.18,.72-1.73,1.11-2.8,1.74-.26-5.01-.5-9.58-.76-14.63,7.81-5.01,8.62-20.53,.51-27.4-1.24-1.05-3.49-.89-5.27-1.29,.14,1.89-.45,4.36,.53,5.59,7.28,9.17,3.47,20.68-6.22,26.95-1.23,.8-2.95,.84-4.7,1.29,1.14-9.98-.46-14-7.12-18.32,3.84-9.92,.28-19.73-.6-29.73-.73-8.28-4.36-14.11-10.63-18.43-3.43-2.36-7.82-3.37-11.85-4.77-1.41-.49-3.05-.35-5.34-.57,4.64-3.48,13.15-2.85,18.26,.86,8.81,6.38,15.36,14.03,15.13,25.86-.14,7.28,.41,14.56,.69,21.85,.04,1.11,0,2.39,.53,3.29,2.4,4.15,4.98,8.2,7.43,12.2,4.17-3.23,5.36-11.46,1.49-16.52-3.7-4.84-4.02-9.43-.85-12.07,3.68-3.06,10.29-2.01,13.87,2.21,6.25,7.36,6.69,18.71,1.31,27.59-.9,1.48-.87,3.53-1.27,5.31,1.71-.22,3.56-.1,5.11-.71,15.02-5.89,17.5-21.31,13.72-32.81-.63-1.93-3.14-3.18-4.53-4.95-1.24-1.58-3.34-3.85-2.91-5.08,.69-2,2.95-4.48,4.87-4.81,3.08-.52,6.92-.33,9.57,1.13,8.97,4.94,17.1,16.07,13.66,27.86-2.89,9.91-5.88,19.9-15.48,25.89-.74,.46-1.35,1.42-1.61,2.28-2.44,8.01-7.71,12.45-15.96,13.33-7.44,.8-10.09,3.2-10.83,10.44-.73,7.17,.3,13.95,5.2,19.72,2.64,3.11,4.44,7.56,7.73,9.33,5.1,2.75,11.07,4.74,16.82,5.23,7,.6,17.77-9.16,19.35-16.06,.8-3.46,1.1-6.63-3.93-7.3-1.43-.19-3.79-2.17-3.71-3.17,.16-2.06,1.17-4.71,2.75-5.87,3.38-2.48,7.44-4.11,11.66-1.75,4.92,2.75,7.17,7.27,7.48,12.76,.11,1.93-.25,3.89-.54,7.72,4.08-2.74,7.45-4.35,9.97-6.81,8.77-8.58,14.75-18.47,12.56-31.48-.55-3.27-1.78-5.67-5.76-6.44-4.56-.88-7.38-5.37-6.77-9.19,.61-3.82,4.67-6.4,9.59-6.1,15.67,.96,25.88,14.36,22.93,30.44-1.03,5.6-2.97,10.84-2.47,16.88,.84,10.34-4.23,18.48-12.88,24.95,9.23,3.59,16.59,.6,23.37-4.29,2.65-1.91,4.84-4.6,6.84-7.24,2.09-2.76,2.85-5.51,.41-9.08-1.38-2.02-1.69-6.27-.44-8.18,1.24-1.89,5.15-3.12,7.71-2.85,9.42,.98,15.65,11.03,12.85,20.5-4.74,16.04-15.78,25.91-31.55,30.55-3.41,1-7.22,.62-10.85,.88,.57,8.38,7.73,14.88,16.53,15.06,9.3,.19,16.69-4.58,20.29-13.3,1.43-3.45,3.57-4.51,7.08-3.05,7.3,3.03,9.43,10.28,4.79,17.32-5.32,8.09-12.85,13.2-21.98,16.38-12.24,4.26-23.81,2.89-35.5-3.24,6.2,6.58,7.25,14.12,4.47,22.6,4.1,.69,7.51,1.15,10.85,1.85,8.93,1.88,15.01,7.25,17.48,15.96,.78,2.74,.42,6.62-1.06,8.93-1.39,2.18-4.93,4.06-7.55,4.1-3.49,.05-4.88-3.21-5.17-6.78-.54-6.79-4.06-8.91-10.72-6.52,1.27,2.62,2.71,5.15,3.75,7.84,1.46,3.81,.15,7.04-3.24,9-3.43,1.99-5.92,.13-8.01-2.73-3.55-4.86-7.48-4.93-12.29-.42,4.19,2.78,8.24,5.83,12.67,8.18,1.31,.7,3.77-.34,5.54-1,13.82-5.16,26.81-3.77,38.86,4.85,10.7,7.65,13.65,27.63,5.33,37.76-1.96,2.38-5.16,4.1-8.14,5.1-1.34,.45-4.31-1.22-5.09-2.69-.73-1.37-.17-4.26,.91-5.62,5.57-7.01,5.34-11.97-1.37-18.19-8.26-7.66-19.49-7.81-25.63-.2-2.58,3.2-4.01,6.27-1.28,10.74,4.78,7.83-.09,19.38-8.38,21.61-3.39,.91-5.9-.12-7.65-3.06-1.55-2.6-1.4-4.74,1.02-7.11,.85-.83,.59-4.36-.42-5.29-6.85-6.29-22.41-9.71-31.46-.04,1.83,4.32,4.22,8.15,4.97,12.27,.76,4.18-1.4,8.24-5.92,9.19-4.27,.89-6.52-2.22-7.98-5.98-.45-1.14-1.76-2.32-2.94-2.74-8.8-3.16-22.81,2.19-26.93,10.49-.83,1.67-.62,4.26-.04,6.17,3.69,12.17,21.01,22.22,33.25,18.94,4.22-1.13,7.92-4.12,12.02-5.88,1.52-.65,3.5-.22,5.28-.29-.85,1.51-1.33,3.56-2.61,4.44-16.46,11.27-36.23,7.18-47.83-9.73-1.1-1.61-2.14-3.26-3.75-5.73-2.68,8.72-.51,15.54,3.43,22.04,7.89,13.02,20.06,19.47,34.53,22.42,7.98,1.63,15.14-.85,22.14-4.22,11.05-5.32,22.6-5.86,33.91-1.86,4.52,1.6,8.12,5.9,11.98,9.16,.56,.48,.2,2.05,.26,3.12-1.17-.2-2.88,.04-3.45-.66-12-14.72-26.8-12.12-41.15-5.58-15.35,6.99-29.19,3.8-43.11-3.07-12.88-6.36-21-16.76-24.35-30.59-2.72-11.25,1.83-20.16,10.42-27.33,8.96-7.47,18.92-8.25,29.51-4.3,2.52,.94,4.87,2.3,7.31,3.46l-1.14,3.01c.99-1.66,3.04-3.55,2.74-4.95-.59-2.78-1.8-6.51-3.94-7.68-5.63-3.07-12.02-3.48-18.46-2.17-1.63,.33-3.46-.29-5.2-.47-.03-.87-.05-1.75-.08-2.62,3.22-.46,6.46-1.37,9.67-1.3,6.69,.14,12.55,1.36,19.16-3.84,9.42-7.41,20.63-4.57,30.43,1.49,6.56,4.06,7.43,9.74,2.97,15.28,4.23,.17,8.5-4.42,9.25-9.94,.63-4.68-2.41-8.67-7.2-9.91-1.76-.46-3.32-1.66-4.97-2.52,.25-.64,.51-1.29,.76-1.93,2.36,.23,4.72,.46,7.01,.68,6.05-13.3,18.49-17.28,27.24-12.87,11.64,5.87,19.68,13.2,14.06,29.48,4.85-2.69,7.48-10.2,6.88-17.72-.77-9.65-5.93-15.59-14.65-18.87-9.77-3.67-19.56-3.71-29.09,.69-1.69,.78-2.78,2.91-4.1,4.46-1.98,2.32-3.53,5.28-5.97,6.87-3.14,2.05-7.15,.02-8.5-3.51-1.87-4.86-5-6.68-9.33-4.57-2.87,1.4-5.15,3.99-7.79,5.93-.99,.73-2.22,1.12-3.34,1.66-.35-1.45-1.44-3.25-.94-4.31,3.62-7.66,16.48-10.46,23-4.95,1.6,1.35,2.22,3.86,3.82,6.8,1.48-1.56,4.12-3.09,4.11-4.58-.03-2.53-1.07-5.78-2.87-7.43-5.73-5.25-12.57-4.66-19.16-1.71-2.66,1.19-4.29,1.47-5.47-1.46,.1-.36,.1-.87,.28-.95,6.28-2.72,11.65-6.62,17-10.97,5.15-4.18,9.8-2.55,14.41,2.19,1,1.03,2.74,1.34,4.14,1.98,.15-1.66,.84-3.51,.34-4.96-1.35-3.91-6.97-5.75-12.38-4.94-1.71,.26-3.63-.81-5.45-1.27,1.65-1.19,3.17-3.13,4.97-3.42,4.76-.77,9.54,.08,14.22-2.79,3.72-2.28,11.32,2.07,13.05,6.57,.99,2.57,1.51,5.33,2.33,8.33,3.99-1.24,5.76-3.69,4.91-7.49-1.36-6.1-4.69-10.75-11.1-12.2-3.54-.8-7.26-1.39-10.85-1.22-3.58,.16-7.42,.76-10.59,2.31-3.13,1.53-5.57,4.49-8.55,7.03-4.52-4.82-9.69-5.74-15.31-2.57,.92,2.87,1.75,5.47,2.64,8.26-4.77-2.26-8.57-5.38-12.48-5.53-4.08-.16-8.28,2.54-13.16,4.24-3.28-2.16-3.23-2.29,4.53-8.41-7.53-9.21-11.39-19.78-11.36-31.7,.05-22.1,23.85-33.22,40.19-26.99,5.2,1.98,9.08,5.43,11.32,11.47,3.33,8.98,11.54,13.41,20.62,14.55,15.66,1.97,28.87-3.09,38.4-16.2,4.02-5.53,3.26-9.59-2.49-12.13-1.02,1.97-1.87,4.09-3.11,5.96-8.79,13.23-28.19,15.08-38.96,3.31-2.76-3.01-4.42-7.45-5.45-11.52-1.09-4.31,2.16-7.12,5.74-8.94,2.45-1.25,5.13-1.91,6.82,2.01-1.34,.8-2.68,1.59-5.13,3.05,2.16,.16,3.33,.51,4.37,.29,16.04-3.51,26.88-13,31.15-28.89,1-3.72-.3-8.51-1.8-12.31-1.51-3.83-5.93-4.34-9-2.39-3.28,2.09-1.14,4.86,.57,7.62,1.08,1.74,1.15,5.06,.21,6.94-8.06,16.21-28.67,23.48-45.91,10.81Zm2.66,45.75c-1.27-2.59-2.57-4.71-3.39-7.01-1.97-5.54-5.94-9.23-11.5-9.67-9.07-.72-17.61,1.45-23.92,8.72-9.22,10.63-7.13,35.55,3.74,44.46,1.41,1.15,3.52,1.45,5.31,2.14-5.64-9.69-7.27-19.12-1.16-28.04,7.32-10.68,18.21-13.64,30.92-10.6Zm-19.91,34.3c-4.11-8.81-4.08-14.15-.05-18.32,3.94-4.08,10.77-5.68,15.68-3.67,6.28,2.57,9.29,8.2,9.05,17.62,1.13-.97,2.33-1.49,2.61-2.31,3.41-10.24,.78-20.22-10.2-24.14-8.6-3.07-16.12,.95-21.86,7.38-5.32,5.97-5.84,13.22-3.15,20.63,1.36,3.76,3.77,5.41,7.92,2.82Zm9.82-4.56c1.9-2.77,3.54-4.36,4.01-6.24,.19-.77-2.18-2.17-3.38-3.28-1.22,1.56-2.85,2.98-3.47,4.75-.3,.83,1.33,2.35,2.84,4.77Z"></path><path class="cls-1" d="M144.26,143.35c-.09,.03-1.15,.46-2.25,.73-4.92,1.19-7.97,4.56-7.81,9.53,.06,1.75,1.12,4.22,2.48,4.94,1.3,.69,4.21,.16,5.31-.93,4.04-4.01,8.19-7.5,14.27-6.88,8.32,.84,16.54,2.17,23.11,8.08,.87,.78,1.83,1.5,2.53,2.41,2.92,3.79,6.45,5.28,11.48,5.24,7.43-.06,12.54,4.79,13.63,12.59-1.78-1.84-2.94-2.75-3.73-3.91-2.76-4.04-6.65-5.35-11.27-4.84-5.6,.62-11.18,1.71-13.51,7.7-.62,1.6,.16,4.15,1.11,5.79,.48,.82,2.99,1.19,4.21,.74,5.35-1.93,10.75-.81,13.78,3.26,3.16,4.24,3.27,10.16-.25,14.36-4.72,5.62-9.6,11.1-17.68,12.04-3.35,.39-3.5,2.24-1.41,4.84,3.42,4.25,3.31,6.88,.11,10.85-1.64-3.18-3.31-6.44-5.47-10.64,3.05-12.87,.09-21.71-10.65-27.85-2.92-1.67-6.52-2.64-9.89-2.92-4.2-.35-6.54,2.69-6.06,6.67,10.98-2.1,17.82,6.66,14.28,18.38-.57,1.87-1.59,3.6-2.56,5.74,3.39,1.77,7.44,3.38,5.35,9.78-3.55-3.32-7.03-6-9.78-9.29-5.43-6.5-11.07-12.33-19.98-13.89-1.21-.21-2.72-2.67-2.9-4.23-1.65-14.13-20.55-25.83-33.63-20.25-2.5,1.07-4.29,4.18-5.89,6.68-.37,.58,1.34,2.51,2.1,3.82,1.12-.74,2.67-1.22,3.3-2.26,3.19-5.24,6.54-6.88,11.91-4.57,7.51,3.23,12.09,9.38,13.98,17.12,1.34,5.46-1.24,7.2-6.37,5.08-.92-.38-2.1-1.13-2.81-.84-6.58,2.65-7.42-1.82-8.93-6.46-1.13-3.48-2.6-7.39-8.17-4.16-3.91,2.27-8.33-2.35-8-7.81,.35-5.74,5.47-10.64,11.57-12.08,15.29-3.6,33.69,10.22,33.92,23.68,8.03,5.28,15.34,10.1,23.17,15.25,2.47-2.8,2.76-6.73,.72-10.68-1.8-3.47-3.99-6.35-9.03-4.83-4.71,1.42-7.24-1.73-5.87-6.56,2.15-7.54,7.81-10.87,15.2-8.6,11.29,3.47,17.58,11.44,19.89,22.81,.2,.97,.35,1.94,.55,2.91,.03,.14,.21,.25,.33,.37,7.53-.41,17.24-10.18,17.17-17.27-.05-5.05-4.11-7.96-8.37-5.4-4.91,2.96-7.82,.56-10.69-2.77-3.33-3.87-3.74-8.21-.92-11.86,1.49-1.93,3.52-3.45,5.65-5.48-2.63-5.01-7.27-8.1-12.48-10.2-3.51-1.42-7.35-2.06-11.08-2.9-5.33-1.21-9.77,0-13.22,4.64-2.45,3.3-8.04,4.45-11.22,2.48-3.66-2.26-4.41-5.9-2.99-9.63,1.32-3.47,3.37-6.66,5.45-10.63-4.69-6.94-9.18-15.43-18.46-18.97-4.21-1.61-9.01-2.08-13.57-2.29-4.05-.18-6.67,3.42-6.97,8.26-.43,6.93-2.79,10.02-7.66,10.01-5.13,0-9.22-4.89-9.21-11,.02-10.87,9.84-22.91,20.69-25.38,.92-.21,1.83-.45,3.13-.77-7.5-19.89-21.16-32.03-41.93-34.77-7.85-1.04-15.72,1.04-22.27,6.72-2.29,1.98-5.85,3.08-8.95,3.4-3.89,.4-5.88-2.99-3.75-6.36,1.89-2.98,4.82-5.32,7.37-8.02-2.51-4.25-7.18-5.67-11.94-3.14-1.57,.84-2.7,2.73-4.31,3.24-2.69,.85-5.93,1.91-8.31,1.08-1.59-.56-3.29-4.54-2.82-6.46,.94-3.85,2.57-8.12,5.29-10.85,9.43-9.46,24.37-8.55,33.24,1.43,.88,.99,1.73,2.01,1.79,2.08,7.9-.63,14.99-1.19,22.24-1.76,.66-7.36-5.26-14.36-13.24-12.75-4.2,.85-6.25-3.8-4.05-8.48,3.27-6.97,14.91-10.35,21.27-5.88,8.42,5.92,13.68,13.57,11.7,24.9,16.14,5.71,26.08,17.83,33.53,32.46,.53,1.04,1.09,2.1,1.35,3.22,1.53,6.56,2.16,13.7,10.85,15.16,.41,.07,.92,.58,1.07,1,3.53,10.16,14.02,15.34,18.06,24.89,2.11,4.99,5.32,8.12,9.58,10.7,1.07,.65,2.56,1.45,3.6,1.18,8.22-2.12,14.62,.91,20.42,7.41,1.91-7.22-.87-13.05-2.93-18.82-2.17-6.06-6.26-9.89-13.45-9.79-4,.05-7.93-2.15-8.39-6.39-.44-4.04,2.83-6.38,6.64-7.67,4.9-1.66,9.48-1.26,13.89,1.47,15.25,9.44,24.42,22.37,23.61,41.04-.04,1,.02,2.01-.13,2.99-1.37,9.06,1.27,14.79,9.7,17.93,2.92,1.09,7.37,.42,10.22-1.11,6.14-3.3,9.5-9.23,10.87-16.03,.9-4.47-1.63-8.68-5.66-8.98-4.14-.31-6.89-2.52-6.52-5.97,.32-2.95,2.6-7.27,4.99-8.07,4.71-1.58,10.1-1.15,16.13-1.62-.4-3.29-.06-8.28-1.72-12.46-3.36-8.44-7.27-16.83-17.02-20.23-3.34-1.16-5.75-.52-8.08,1.86-3.72,3.83-8.64,4.17-12.21,.93-2.79-2.54-2.85-7.57,.45-11.33,2.22-2.52,5.15-4.42,8.49-7.21-3.41-2.92-6.7-7.22-11.05-9.15-9.31-4.13-19.06-5.34-29.05-.97-5,2.19-8.26,5.3-10.01,10.33-.94,2.69-1.92,5.4-5.75,5.07-3.71-.32-6.27-1.97-7.59-5.47-2.42-6.42,1.58-15.81,8.28-20.9,17.3-13.16,36.05-13.21,55.3-5.92,7.9,2.99,14.14,8.63,17.15,17.12,.54,1.52,1.88,3.15,3.3,3.91,7.87,4.24,13.06,10.61,16.18,18.89,.46,1.23,1.66,2.17,2.51,3.25,1.25-1.14,3.12-2.05,3.65-3.46,3.65-9.6,3.29-19.6,2.01-29.55-.5-3.88-1.28-8.07-3.24-11.33-1.9-3.17-5.42-5.39-8.34-7.91-2.85-2.46-6.02-4.57-8.67-7.22-1.03-1.03-1.02-3.1-.48-5.3,.89,.58,1.87,1.06,2.65,1.76,3.13,2.82,5.74,6.71,9.38,8.4,10.71,4.97,13.79,14.15,13.94,24.46,.14,9.5-1.29,19.03-2.07,28.98,15.44,6.65,22.37,20.91,17.98,38.94-2.8,11.49-4.68,14.54-9.18,14.28,.31-.95,.47-1.89,.9-2.67,6.65-11.87,5.42-32.85-3.14-41.94-2.36-2.51-6.43-3.77-9.95-4.67-1.33-.34-3.33,1.98-5.02,3.09,1.07,1.55,1.81,3.65,3.28,4.55,8.02,4.95,10.29,11.71,6.02,20.11-.85,1.68-2.95,2.72-4.54,4.11,.47-5.92,1.11-10.85,1.18-15.79,.04-2.99-1.58-4.98-4.78-6.2-3.95-1.5-6.46-4.33-7.28-9.16-1.73-10.05-7.78-17.4-16.41-22.78-1.84-1.14-4.03-2.84-4.59-4.72-3.07-10.28-10.7-15.24-20.18-18.21-14.05-4.39-27.48-3.33-40.36,4.24-5.63,3.31-9.44,7.86-11.28,13.99-1.31,4.37,0,8,4.12,11.2,2.05-11.58,10.57-14.57,19.71-17.18,15.22-4.35,27.55,.5,38.53,10.95,1.75,1.67,4.42,2.47,6.78,3.39,3,1.17,6.46,1.62,7.9,7.28-3.01-1.27-4.98-1.85-6.7-2.86-6.64-3.87-14.91-1.06-16.9,6.2-.51,1.85,.51,4.36,1.5,6.21,.23,.43,3.56-.18,4.93-1.11,8.07-5.44,18.93-2.97,25.63,5.47,6.45,8.14,8.79,17.24,8.47,27.41-.07,2.21,1.39,4.44,2.02,6.69,.95,3.44,2.05,6.88,2.52,10.4,.14,1.06-1.59,2.38-2.46,3.58-.83-1.37-2.32-2.7-2.38-4.1-.35-8.72-5.4-14.49-13.93-14.15-2.39,.1-5.62,2.85-6.75,5.21-1.47,3.07,1.44,4.2,4.33,5.09,7.13,2.19,9.74,7.31,7.5,14.39-2.02,6.38-5.93,11.48-11.42,15.35-2.16,1.52-4.29,3.08-6.09,4.36,2.17,5.17,4.24,9.96,6.21,14.8,1.43,3.5,6.97,4.57,9.52,1.46,3.76-4.6,6.31-9.74,4.45-16.01-.31-1.03-.46-2.11-.86-3.99,6.41,1.75,5.41,6.98,6.47,10.75,7.52,.48,14.55,2.17,22.09,1.03,5.39-.82,11.27,1.55,17.59,2.61-.18,.29,.1-.58,.7-1.02,1.32-.96,2.8-1.69,4.22-2.52,.07,1.53,.63,3.25,.14,4.57-2.33,6.27-.27,14.67,5.14,18.44,1.29,.9,3.44,.48,5.11,.95,1.36,.38,2.75,1,3.79,1.9,.39,.34,.11,2.37-.35,2.59-1.19,.56-2.72,.9-4.01,.68-2.11-.35-4.13-1.2-6.37-1.89-2.46,3.43-4.95,6.89-7.65,10.66,.64,1.1,1.44,2.47,2.83,4.87-2.16,0-3.89,.54-4.89-.08-10.66-6.64-15.14-5.89-23.76,4.29-3.72-2.82-3.62-3.17,3.11-9.9-9.46-7.37-18.77-5.66-28.44,.44,3.71-10.16-.23-17.01-7-22.63-2.58,3.08-4.72,5.88-7.18,8.37-.44,.44-2.18-.4-3.58-.71,8.09-11.85,1.91-28.8-11.74-33.3-2.88-.95-4.31-2.24-5.3-5.1-1.06-3.05-3.14-5.74-4.86-8.74,4.77-6.5,4.49-20.98-2.06-29.36-5.05-6.46-11.39-11.98-17.57-17.45-1.69-1.5-4.95-1.91-7.38-1.68-1.91,.18-3.65,2.11-5.46,3.26,1.77,1.52,3.57,4.36,5.31,4.32,5.87-.12,10.44,1.51,13.63,6.54,4.42,6.98,6.74,14.59,5.37,22.77-.4,2.4-2.82,4.73-4.89,6.39-.5,.4-3.43-1.81-4.94-3.16-4.46-4.02-9.15-6.42-15.44-4.41-1.54,.49-3.67-.65-5.46-1.24-2.24-.74-4.48-1.55-6.57-2.62-1-.52-2.22-1.62-2.39-2.61-1.5-8.74-6.4-14.93-13.5-19.96-1.87-1.33-2.59-4.41-3.63-6.78-2.61-5.95-5.56-7.89-10.73-7.25-3.52-22-15.46-37.55-34.95-47.78-1.45-.76-2.89-2.97-3.02-4.61-.7-9.11-4.75-16.17-12.19-21.29-4.4-3.03-12.04-1.26-14.44,3.37-.6,1.16-.81,3.12-.22,4.12,.51,.85,2.53,1.35,3.73,1.14,6.34-1.08,10.26,.78,12.64,6.72,.91,2.27,1.58,4.77,1.72,7.2,.49,8.27-.64,8.54-8.25,6.39-4.35-1.23-9.88-1.23-13.97,.43-4.36,1.77-6.11,1.25-8.8-2.24-5.03-6.52-11.76-9.48-20.25-7.55-6.17,1.4-10.11,5.13-11.64,11.03-.48,1.86,.82,4.19,1.3,6.3,2.11-.49,4.62-.41,6.25-1.57,4.65-3.32,9.27-6.22,15.07-3.33,1.99,.99,3.87,2.64,5.18,4.44,1.5,2.06,1.31,4.18-1.95,4.62-.5,.07-1.19-.04-1.45,.25-1.73,1.9-3.51,3.79-4.93,5.92-.29,.43,1.05,2.71,1.33,2.65,2.32-.49,5.14-.69,6.75-2.15,12.27-11.11,33.1-10.55,46.74-1.4,12.1,8.12,18.6,19.58,24.18,32.11,.58,1.31-.18,3.21-.39,5.68-4.84-3.91-8.8-2.96-12.71-.6-7.16,4.32-11.81,10.37-11.9,18.96-.02,2.37,1.26,5.12,2.8,7,.98,1.2,3.53,1.47,5.35,1.4,.5-.02,1.13-2.69,1.33-4.2,1.45-11.12,9.34-16.24,20.76-13.54,9.11,2.15,15.32,8.2,20.52,15.7,2.66,3.83,6.07,7.14,9.4,10.98Zm145.04,54.05c-.8-2.05-2.53-4.88-2.96-7.9-.94-6.53-5.34-9-10.85-9.93-12.18-2.04-19.73,4.41-23.37,15.89-1.52,4.78,.53,8.02,5.36,9.63,5.85,1.95,10.89,7.38,17.96,4.3,.25-.11,.64,.11,.97,.16,6.26,.94,12.89-4.79,12.9-12.16Zm-41.17,5.98c-3.89-9.78,1.76-16.64,7.13-23.69-11.7-4.36-12.2,7.54-18.02,10.57,2.08,4.78,3.97,9.12,6.02,13.82,1.21-.17,2.8-.4,4.87-.7Zm-128.39,.04c-2.63-9.48-12.29-16.65-17.44-13.46,1.46,2.15,2.87,4.35,4.41,6.45,1.4,1.89-.33,5.73,3.91,5.9,2.57,.1,5.12,.73,7.68,1.11,.31,.05,.63,0,1.44,0Z"></path><path class="cls-1" d="M172.37,272.84c-4.09-3.19-7.93-6.18-12.05-9.38-3.3,14.23-13.81,19.05-25.56,21.06-10.04,1.71-18.86-2.63-24.87-10.8-6.42-8.74-6.62-18.43-1.98-28.13,.5,0,1,.01,1.51,.02-.19,2.52,.1,5.18-.65,7.52-5.54,17.42,13.21,31.43,29.78,25.11,5.14-1.96,9.79-5.43,14.31-8.7,1.78-1.29,2.57-3.94,3.82-5.97-.28-.44-.57-.89-.85-1.33-3.67,.68-7.45,1.02-10.96,2.19-1.39,.47-2.15,2.78-3.24,4.22-1.56,2.07-2.94,5.49-4.8,5.78-2.03,.32-5.45-1.71-6.64-3.7-5.3-8.85,.48-20.49,12.05-24.7,3.38-1.23,7.02-1.76,11.82-2.92-3.7-4.12-6.88-8.26-10.67-11.74-6.95-6.39-15.58-9.56-24.77-10.94-2.84-.43-5.96,.18-8.81,.88-2.68,.66-4.31,2.14-4.14,5.72,.1,2.16-2.37,4.45-3.69,6.68-2.33-1.86-6.15-3.4-6.64-5.66-.73-3.35,.11-7.59,1.67-10.77,3.26-6.63,.71-11.52-6.95-11.81-1.15-.04-2.3,0-3.32,0-1.16-1.76-1.89-3.97-3.41-4.91-1.87-1.16-4.8-2.27-6.53-1.57-1.75,.71-2.74,3.57-3.78,5.64-.74,1.47-1,3.18-1.48,4.78-2.05-.92-4.73-1.32-6.01-2.88-3.23-3.93-2.3-8.46-.19-12.67,.94-1.88,2.32-3.54,4.18-6.3-3.94-.3-7.35-1.16-10.55-.67-4.42,.66-8.87,1.93-12.98,3.7-3.32,1.43-4.33,4.69-3.91,8.43,.44,3.94-1.82,5.42-5.42,3.83-3.94-1.74-5.47-6.27-3.92-11.63,3.27-11.3,10.2-16.4,24.25-17.67-.36-4.58-1.64-8.36-6.56-10.07-1.29-.45-2.24-1.82-3.38-2.74-3.17-2.57-6.38-4.05-10.41-1.42-3.21,2.1-4.96,1-5.46-2.98-1.13-9.06,8-16.14,17.57-12.85,9.84,3.38,17.38,9.9,20.67,20.16,.91,2.85,2.12,4.36,4.95,5.24,5.56,1.73,10.2,4.88,12.86,10.31,.52,1.05,.61,2.31,.9,3.48-.4,.23-.8,.47-1.19,.7-.9-.96-1.87-1.86-2.7-2.88-3.44-4.26-7.46-7.45-13.12-8.39-1.18-.2-2.69-2.04-2.99-3.36-2.71-11.76-15.76-22.33-26.35-21.12-5.56,.64-8.89,4.28-7.84,9.09,5.68-4.63,9.82-2.05,15.39,1.34,6.17,3.76,8.88,8.59,10.39,14.74,1.09,4.46-.31,5.66-4.79,5.11-9.01-1.1-19.76,7.65-20.36,16.73-.09,1.37,.43,2.93,1.12,4.14,.36,.63,1.82,1.1,2.58,.89,.6-.16,1.19-1.43,1.27-2.26,.9-8.66,1.96-9.66,10.42-11.31,4.11-.81,8.04-3,12.15-3.29,6.26-.45,11.36,2.44,15.35,8.32-5.48,1.44-11.59,1.88-11.38,9.07,.05,1.81,1.59,3.57,2.45,5.35,.49-.16,.98-.31,1.47-.47,.25-.88,.64-1.76,.71-2.65,.31-3.92,2.24-7.31,6.01-7.5,2.86-.15,5.9,1.97,8.76,3.3,2.23,1.04,4.17,2.94,6.48,3.56,4.67,1.25,10.59,6.7,10.86,11.24,.08,1.36-1.27,2.8-1.93,4.23-1.09,2.36-2.81,4.69-2.99,7.13-.12,1.55,2.06,3.28,3.65,4.59,.18-8.33,5.69-13.47,15.02-12.93,13.81,.8,25.22,6.93,34.18,17.4,2.45,2.86,4.16,6.34,6.25,9.51,.42,.64,.92,1.59,1.52,1.7,8.77,1.67,16.05,6.08,22.52,12.67,2.34-3.03,2.92-5.24-.14-7.53-1.44-1.08-3.11-2.36-3.72-3.92-.82-2.11-1.72-5.3-.72-6.68,1.03-1.43,4.49-2.13,6.54-1.65,6.79,1.61,11.8,5.92,15.2,12.03,.63,1.13,1.17,2.31,1.81,3.58,5.02-6.64,4.22-11.89-2.24-16.09-3.51-2.28-5.93-7.36-4.28-9.72,2.61-3.73,6.39-4.07,10.22-2.18,16.62,8.21,23.51,21.66,12.87,38.58-1.2,1.9-2.48,4.62-5.26,2.4-.54-.43,.26-3.43,1.2-4.69,8.28-11.22,5.17-25.43-7.14-31.86-1.02-.53-2.18-1.27-3.23-1.19-1.52,.11-2.99,.87-4.48,1.35,.65,1.56,.93,4.13,2.01,4.52,6.56,2.4,8.22,7.54,7.84,13.55-.41,6.57-4.29,11.48-9.44,15.17-1.41,1.01-3.86,.58-6.14,.09,4.53-3.19,4.93-6.97,3.25-11.27-1.94-4.95-8.69-10.44-12.69-10.24-.84,.04-2.31,.75-2.34,1.23-.07,1,.39,2.26,1.05,3.05,1.48,1.76,3.58,3.08,4.79,4.98,2.17,3.42,1.44,7.11-1.77,9.18-1.45,.94-5.19,.48-6.46-.79-7.07-7.01-15.77-9.68-25.25-10.56-8.98-.83-20.28,8.01-20.43,16.2-.03,1.83,1.47,5.05,2.7,5.28,3,.56,2.43-2.16,2.81-4.35,.33-1.91,2.12-4.28,3.89-5.12,7.4-3.48,14.83-3.39,21.84,1.34,3.8,2.56,7.16,6.13,12.47,4.98,.56-.12,1.29,.3,1.89,.56,12.19,5.43,26.98,26.03,14.69,42.2-4.49,5.91-8.8,11.8-16.22,14.16-1.33,.42-2.95-.07-4.43-.13,.95-1.3,1.63-3.24,2.91-3.8,9.59-4.19,14.8-12.1,18.43-21.3,1.76-4.44,1.65-8.82-2.46-12.34-2.96,4.79-5.64,9.66-8.84,14.16-2.84,4.01-6.42,7.25-11.95,6.99-2.93-.14-4.34-1.27-3.55-4.33,9.29-.63,20.66-12.85,20.4-22.12-.15-5.14-4.25-7.05-7.49-8.55-4.44,6.15-8.21,12.39-12.98,17.74-6.96,7.82-15.87,11.39-26.5,8.95-1.26-.29-2.53-1.24-3.39-2.23-.36-.42,.26-2.51,.58-2.55,1.17-.13,2.41,.5,3.6,.45,4.07-.16,8.56,.53,12.12-.96,9.47-3.97,15.3-11.84,19.79-21.01Z"></path><path class="cls-1" d="M280.83,255.64c1.08-3.23,1.74-5.2,2.39-7.17-2.21,.16-4.54-.06-6.61,.58-2.3,.72-4.36,2.22-6.88,3.57,6.18,7.79,2.9,14.71-1.37,21.32-2.36,3.66-4.85,3.64-7.93,.67,6.76-6.52,8.85-12.78,6.19-18.52-9.16,3.39-14.8,14.5-12.11,23.91,.97,3.4,2.14,6.5,6.83,4.51,.79-.33,2.01,.37,3.19,.63-2.59,4.36-5.49,5.24-9.08,3.01-5.2-3.23-7.18-8.21-6.91-14.02,.61-13.24,16.42-29.17,29.84-29.67,2.88-.11,6.15,1.77,8.61,3.59,.77,.57-.01,4.27-1.06,5.91-.7,1.09-3.12,1.09-5.12,1.68Z"></path><path class="cls-1" d="M268.8,230.6c3.57,2.03,3.92,5.66-.02,7.53-8.81,4.17-13.71,11.67-18.64,19.48-2.71,4.29-6.33,8.08-9.96,11.68-2.88,2.86-6.26,2.56-9.38-.21-6.44-5.72-6.67-17.52-.3-23.29,3.04-2.75,6.55-3.1,11.82-1.42-11.33,5.67-15.41,12.79-7.5,24.41,4.47-5.52,8.5-10.49,12.53-15.47-.59-.47-1.18-.94-1.77-1.41-1.73,2.21-3.45,4.42-5.43,6.94-3.68-1.07-4.11-4.18-1.86-6.55,2.33-2.46,5.9-3.79,9.01-5.46,1.89-1.02,4.11-1.48,5.86-2.67,3.82-2.57,7.53-5.33,11.1-8.25,1.64-1.34,2.81-3.25,4.55-5.32Z"></path><path class="cls-1" d="M306.65,380.6c5.02,4.35,9.61,8.39,14.26,12.34,8.44,7.16,18.3,8.79,28.99,7.55,5.11-.59,10.36-1.3,15.4-.74,4.26,.48,8.41,2.54,12.41,4.35,.92,.42,1,2.67,1.47,4.08-1.34,0-3.05,.53-3.96-.09-5.48-3.77-11.51-3.61-17.74-3.26-6.47,.36-12.97,.24-19.45,.28-9.84,.06-16.37-6.74-23.64-11.79-2.89-2.01-5.19-5.04-7.25-7.96-.86-1.22-.39-3.39-.49-4.76Z"></path><path class="cls-1" d="M87.68,296.47c-1.16-4.58-2.31-9.17-3.47-13.75l2.67-.92c.65,1.6,1.4,3.17,1.92,4.81,.9,2.82,.88,6.32,2.6,8.43,8.27,10.11,18.19,18.01,31.69,19.78,4.69,.61,9.64,1.24,13.47-2.76,3.61,3.53,3.43,5.19-.9,6.5-11.23,3.41-21.49,.63-30.48-6.19-6.29-4.78-11.76-10.63-17.61-16.02,0-.01,.09,.13,.09,.13Z"></path><path class="cls-1" d="M245.25,303.27c5.78,1.77,6.88,5.67,7.54,9.38,2.1,11.7-3.8,24.74-13.87,30.94-2.43,1.5-4.55,2.7-3.24,6.08,.26,.68,.07,1.77-.33,2.41-1.26,2.06-2.72,3.99-4.09,5.97-.18-2.17-.14-4.39-.58-6.51-1.36-6.65,2.85-9.34,7.29-13.34,9.9-8.95,14.17-20.33,7.28-34.93Z"></path><path class="cls-1" d="M270.92,372.3c-1.65-.87-4.43-1.44-4.74-2.65-1.3-5.03-3.2-10.5-2.33-15.35,1.11-6.2,1.73-12.62,3.53-18.59,1.34-4.45,4.82-8.39,7.9-12.11,.84-1.02,3.64-.41,5.83,.26-6.01,4.84-9.55,10.7-9.45,17.82,.07,4.64-1.16,8.59-2.64,12.75-2.05,5.78-.6,11.14,2.92,16.07-.34,.6-.68,1.21-1.02,1.81Z"></path><path class="cls-1" d="M345.91,254.99c3.23,1.03,3.17,3.06,1.4,5.59-3.69,5.25-8.91,7.91-15.14,8.52-11.18,1.09-23.04-5.4-28.25-15.26-.46-.88-.97-1.73-1.4-2.62-.65-1.37-1.24-2.76-1.86-4.14,.89-.31,2.1-1.14,2.6-.83,1.6,.99,3.84,2.17,4.25,3.7,3.76,13.87,21.13,20.03,32.48,11.21,2.16-1.68,3.84-3.96,5.92-6.15Z"></path><path class="cls-1" d="M324.6,253.91c-1.29-.22-2.77-.12-3.85-.73-10.78-5.96-19.85-17.62-13.54-32.27,1.39-3.23,3.97-6.05,6.47-8.62,.69-.72,3.03,.16,4.61,.31-.15,1.42,.26,3.5-.52,4.18-11.29,9.73-10.73,22.8,1.53,31.34,1.97,1.37,3.96,2.72,5.94,4.08-.21,.57-.42,1.14-.63,1.71Z"></path><path class="cls-1" d="M208.55,294.41c1.25,.87,2.81,1.5,3.69,2.65,9.09,11.79,1.17,33.69-13.23,36.62-1.18,.24-2.63,.09-3.72-.41-.67-.31-1.42-1.87-1.17-2.41,.39-.82,1.6-1.71,2.5-1.75,7.62-.35,10.96-5.49,12.99-11.75,2.43-7.5,2-14.95-2.32-21.98,.42-.32,.83-.64,1.25-.96Z"></path><path class="cls-1" d="M228.91,298.52c2.16,2.08,4.26,3.68,5.78,5.71,.91,1.23,1.59,3.31,1.22,4.7-2.15,8-4.54,15.94-7.15,23.8-.28,.84-2.5,1.04-3.82,1.54-.01-1.42-.38-2.95,.02-4.24,1.89-5.96,4.68-11.73,5.78-17.81,.7-3.86-.99-8.15-1.82-13.71Z"></path><path class="cls-1" d="M379.76,388.53c-1.79,.72-4.09,1.9-6.54,2.52-1.31,.33-2.86-.3-4.3-.5,.5-1.47,.6-3.84,1.55-4.26,6.3-2.75,12.77-2.18,18.68,1.01,3.58,1.93,6.66,4.86,9.76,7.58,.91,.8,1.47,2.41,1.47,3.66,0,.56-1.87,1.71-2.68,1.55-1.06-.21-2.33-1.27-2.79-2.29-2.79-6.27-8.32-7.92-15.15-9.26Z"></path><path class="cls-1" d="M287.05,388.36c0-.83-.3-1.84,.07-2.44,.67-1.1,1.74-1.96,2.65-2.91,.8,.99,2.18,1.92,2.31,2.99,1.31,10.84,4.6,14.72,14.59,16.99,.89,.2,1.62,1.11,2.42,1.7-1.03,.59-2.02,1.63-3.09,1.71-8.6,.7-18.97-9.22-18.95-18.04Z"></path><path class="cls-1" d="M92.32,243.24c-7.11,8.25-7.79,16.59-1.67,23.7,1.32,1.53,3.59,2.21,5.13,3.6,.91,.81,1.24,2.26,1.84,3.42-1.15-.08-2.5,.21-3.41-.29-10.36-5.71-14.11-19.36-8.18-29.4,2.23-3.78,3.77-4.03,6.29-1.03Z"></path><path class="cls-1" d="M293.6,326.88c-2.61,4.22-4.51,6.57-5.6,9.25-1.54,3.78-1.75,7.68,1.09,11.25,.55,.69,.3,2,.42,3.03-1.04-.12-2.34,.13-3.09-.4-5.94-4.17-5.46-18.77,.85-22.53,1.37-.82,3.5-.38,6.33-.6Z"></path><path class="cls-1" d="M302.6,299.02c-.51-1.53-1.41-3.04-1.46-4.59-.2-5.75-3.4-9.99-8.65-10.37-1.75-.13-3.57,1.08-5.41,1.47-1.19,.26-2.47,.16-3.7,.22,.26-1.34,.45-2.7,.83-4.01,.1-.35,.79-.55,1.23-.79,3.74-2.03,10.33-.65,14.34,3,4.84,4.41,6.5,9.79,4.46,14.44-.54,.21-1.09,.42-1.63,.62Z"></path><path class="cls-1" d="M335.27,283.48c-.67-.36-1.51-.57-2-1.1-5.97-6.53-11.22-7.59-19.03-4.11-1.27,.56-3.04,0-4.58-.04,.79-1.27,1.29-3.02,2.43-3.74,7.1-4.47,18.11-2.08,22.83,4.81,.67,.98,.95,2.24,1.41,3.37-.35,.27-.71,.55-1.06,.82Z"></path><path class="cls-1" d="M240.2,223.73c-2.56,.39-3.8,.66-5.06,.75-5.54,.42-9.24,3.04-10.8,8.56-.3,1.08-1.37,1.95-2.08,2.91-.63-1.15-1.74-2.28-1.8-3.46-.38-7.09,9.3-14.36,16.03-12.06,1.11,.38,1.92,1.66,3.71,3.3Z"></path><path class="cls-1" d="M269.65,311.95c.1,1.32,.68,2.85,.22,3.92-1.81,4.17-3.93,8.21-6.01,12.25-.41,.8-1.07,1.87-1.77,2-.76,.14-2.47-.78-2.43-1.07,.48-3.65,.62-7.51,2.03-10.82,1.13-2.64,3.87-4.58,5.9-6.83l2.07,.54Z"></path><path class="cls-1" d="M158.14,321.37c.81,2.62,1.9,4.36,1.45,4.98-3.3,4.52-7.86,6.89-13.55,6.96-2.78,.03-5.29-.23-6.06-4.28,6.83,.46,13.14-.17,18.15-7.67Z"></path><path class="cls-1" d="M201.19,278.07c4.18-3.7,7.8-2.08,10.77,.13,4.76,3.54,10.59,6.78,8.1,15.14-3.82-8.15-7.92-15.87-18.87-15.27Z"></path><path class="cls-1" d="M297.24,422.04c-4.26,2.73-7.84,1.6-10.98-.97-1.48-1.21-2.78-3.01-3.38-4.81-.63-1.88-1-5.55-.28-5.88,3.38-1.58,3.54,1.81,4.18,3.8,1.59,4.98,4.87,7.58,10.47,7.85Z"></path><path class="cls-1" d="M158.5,346.24c4.9-1.82,9.16-3.44,13.45-4.97,.68-.24,1.88-.43,2.18-.08,.54,.63,1,2.32,.77,2.47-2.78,1.82-5.52,4.04-8.62,4.94-3.02,.87-6.53,.51-7.78-2.37Z"></path><path class="cls-1" d="M257.04,236.2c-5.54-2.73-9.61-1.4-12.21,3.71-3.63-1.07-4.38-2.69-2.13-5.46,3.99-4.91,11.35-4.51,14.34,1.75Z"></path><path class="cls-1" d="M298.12,311.33c-6.73-1.36-12.46-2.42-17.44,2.08-.47,.43-1.96-.27-2.98-.45,.21-.88,.15-1.97,.66-2.61,3.87-4.83,14.7-4.67,19.75,.98Z"></path><path class="cls-1" d="M310.28,284.09c2.52-.22,5.51-1.38,7.47-.43,3.14,1.52,5.75,4.3,8.23,6.89,.62,.64-.1,2.56-.2,3.89-1.01-.6-2.4-.96-2.96-1.85-2.18-3.45-4.02-7.02-9.26-4.86-.78,.32-2.29-1.11-3.46-1.73,.06-.64,.12-1.27,.18-1.91Z"></path><path class="cls-1" d="M62.42,264.76c-5.61,.62-6.69-3.2-6.79-6.35-.09-2.96,1.58-5.98,2.61-8.92,.05-.14,1.64-.07,2.11,.35,.47,.43,.86,1.75,.58,2.1-3.73,4.5-2.64,8.61,1.49,12.83Z"></path><path class="cls-1" d="M136.51,171.93c-2.54,2.19-4.02,4.1-5.94,4.78-.68,.24-3.71-3.36-3.46-3.75,1.27-1.94,3.18-3.56,5.15-4.84,.32-.21,2.11,1.86,4.25,3.81Z"></path><path class="cls-1" d="M418.2,223.2c1.79,2.43,3.68,3.94,3.42,4.83-.57,1.99-2.22,3.67-3.43,5.47-1.34-1.48-3.55-2.85-3.77-4.48-.19-1.4,1.9-3.11,3.78-5.83Z"></path><path class="cls-1" d="M325.01,227.82c-1.97,4.25-.05,6.71,4.04,8.18-.31,.51-.62,1.02-.92,1.53-1.72-.49-4.15-.46-5.01-1.6-1.53-2.02-2.3-4.72-2.9-7.26-.09-.38,2.45-1.39,3.77-2.11,.34,.42,.69,.84,1.03,1.25Z"></path><path class="cls-1" d="M379.83,349.11c2.11,5.32,.08,8.4-7.58,11.37,2.84-4.26,5-7.5,7.58-11.37Z"></path><path class="cls-1" d="M234.65,294.45c-2.85-4.01-5.24-7.36-7.72-10.85,5.54,.56,8.8,4.68,7.72,10.85Z"></path><path class="cls-1" d="M299.41,317.59c-1.58,.75-3.11,1.72-4.77,2.17-1.32,.36-2.81,.09-4.23,.1,.83-1.24,1.43-3.22,2.53-3.54,1.97-.58,4.23-.16,6.38-.16,.03,.48,.06,.95,.09,1.43Z"></path><path class="cls-1" d="M405.17,303.16c-2.06,1.01-3.47,2.2-4.08,1.88-1.24-.64-2.05-2.12-3.04-3.25,1.03-.58,2.16-1.76,3.05-1.6,1.16,.2,2.13,1.47,4.07,2.96Z"></path><path class="cls-1" d="M268.14,205.09c-6.01-.07-11.22-5.22-11.11-11,.09-4.53,4.53-8.7,9.18-8.62,6.45,.11,11.7,5.15,11.56,11.09-.11,5.04-4.12,8.59-9.64,8.53Zm4.19-11.09c-2.08-.92-3.5-2.02-4.04-1.69-1.39,.86-2.38,2.35-3.53,3.58,.91,.7,2.17,2.17,2.67,1.94,1.48-.66,2.66-2,4.9-3.84Z"></path></g></svg>