<svg xmlns="http://www.w3.org/2000/svg" id="Layer_1" viewBox="0 0 600 600"><defs><style>.cls-1{fill:#202020;}</style></defs><g id="NAwOBI.tif"><path id="logo_sort" class="cls-1" d="M305,553.79c3.4-18.7,4.37-36.34-6.87-51.54-12.56-17.03-26.69-32.93-39.27-49.95-14.16-19.19-28.05-38.66-40.76-58.83-18.21-28.84-36.33-57.88-52.38-87.93-12.65-23.64-24.58-48.12-22.7-76.61,.68-23.81,9.51-46.66,25.01-64.74,13.82-15.49,29.03-29.69,43.44-44.3h-6.48c-35.42,0-70.88,.92-106.25-.33-24.07-.83-46.81,19.4-47.78,39.95,0,.31-.78,.58-3.3,.48,1.32-6.86,3.05-13.64,5.19-20.3,12.27-31.85,37.38-50.01,67.72-62.28,3.18-.94,6.45-1.53,9.76-1.75,.85-.06,1.7-.06,2.55,0,122.88-.56,245.75-.95,368.63-1.84,21.26-.15,36.6-12.78,50.86-27.67-2.76,5.09-5.88,9.98-9.33,14.63-8.82,11.79-18.74,22.71-29.63,32.62-17.08,13.68-35.59,25.8-59.39,24.96-17.18-.61-34.44-.12-54.05-.12,0,27-.48,53.19,.42,79.33,.17,4.86,5.92,9.52,9.65,15.13-8.77,5.8-9.82,15.08-10.59,25.72-.87,12.01,5.3,17.66,15.08,23.48-18.32,12.17-17.9,29.68-15.6,47.94h17.12c0,.61,0,1.23,.04,1.84-2.27,.02-4.54,.2-6.78,.53-6.34,1.31-11.13,3.47-11.19,11.7-.2,30.22-.56,60.46-1.7,90.67-.82,19.89-8.24,38.94-21.1,54.14-21.11,25.96-41.95,52.11-62.99,78.12-2.3,2.5-4.74,4.86-7.33,7.06l.02-.07Zm-40.29-256.7l2.23-.85c.17-1.02,.28-2.04,.33-3.07,0-45.3,.01-90.6,.04-135.9,.32-7.04-4.51-13.28-11.41-14.73-7.31-.9-14.7-1.02-22.03-.34l35.45-23.48c-16.03-1.33-30.41-2.8-40.33,11.34-1.43,2.04-2.82,4.13-4.39,6.07-16.17,18.75-21.33,44.59-13.6,68.11,8.94,26.6,22.41,51.45,39.81,73.46,4.71,6.41,9.27,12.94,13.89,19.41v-.03Zm-59.26-161.6c-5.15,5.59-9.47,10.08-13.57,14.73-17.79,20.37-27.06,44.13-22.81,70.95,5.49,33.51,18.48,65.34,38.01,93.11,21.98,31.97,42.02,65.23,64.18,97.07,14.11,20.31,30.26,39.23,46.02,58.37,6,7.28,16.13,9.66,24.75,5.8-.93-1.48-1.44-2.4-2.06-3.23-26.74-35.83-53.85-71.39-80.14-107.56-27.16-36.93-50.62-76.44-70.05-117.96-10.85-22.03-12.74-47.42-5.27-70.81,4.5-13.58,13.17-25.8,20.96-40.5l-.02,.02Zm179.18-17.35c-6.44,0-13.53,.49-20.52-.13-7.98-.7-10.25,2.82-10.15,10.18,.26,19.64-.12,39.23,.15,58.85,.18,13.22,1.41,26.39,1.55,39.64,.26,25.23-.04,50.45,.17,75.68,0,5.3,.73,10.57,2.16,15.67,1.06,5.94,6.14,10.32,12.17,10.49,7.62-1.58,13.39-7.82,14.38-15.54,.47-8.77,.4-17.57-.18-26.33-.39-4.28-2.32-8.26-5.44-11.22-11.93-9.62-12.16-9.32-1.77-19.72l1.23-1.23c9.11-9.13,9.28-17,.24-25.8-3.82-3.72-8.08-7.02-12.75-11.05,5.87-6.53,10.61-11.59,15.1-16.89,1.77-1.68,2.99-3.86,3.49-6.25,.24-25.07,.15-50.15,.15-76.37l.03,.03Zm0,209.91c-11.08,11.79-22.52,23.75-33.68,35.93-6.2,6.78-11.9,14.06-18,20.94-2.7,3.07-5.12,5.95-2.14,10.01,11.15,15.21,22.22,30.5,33.57,45.56,7.09,9.4,9.62,8.85,14.11-2.4,.52-1.27,.87-2.61,1.04-3.98,1.74-15.19,4.25-30.36,4.91-45.6,.83-19.93,.19-39.87,.19-60.47h0Zm-75.94-38.35c6.78-8.63,11.73-15.23,11.57-25.5-.61-37.61-.24-75.23-.24-112.85,0-1.97,.7-4.37-.17-5.85-1.75-2.49-3.75-4.8-5.96-6.88-2.02,2.31-3.9,4.73-5.63,7.26-.61,1.02-.12,2.77-.12,4.18v129.83c0,2.65,.27,5.3,.53,9.82h.02Zm9.67,4.12c-10.08,10.2-20.25,20.25-30.07,30.73-1.27,2.12-1.38,4.74-.31,6.97,6.03,9.47,12.58,18.61,18.94,27.86,17.13-19.36,12.27-42.47,11.46-65.58l-.02,.02Zm4.76-175.08h-12.8v15.34c4.76-5.7,8.42-10.11,12.79-15.34h.01Z"></path></g></svg>