<svg xmlns="http://www.w3.org/2000/svg" id="Lag_1" viewBox="0 0 306.54 87.54"><defs><style>.cls-1{fill:#202020;}</style></defs><path class="cls-1" d="M155.85,87.52c.59-3.23,.75-6.27-1.18-8.89-2.17-2.94-4.6-5.68-6.77-8.61-2.44-3.31-4.84-6.67-7.03-10.14-3.14-4.98-6.26-9.98-9.04-15.16-2.18-4.08-4.24-8.3-3.91-13.21,.28-4.2,1.51-8.02,4.31-11.16,2.38-2.67,5.01-5.12,7.49-7.64h-1.12c-6.11,0-12.22,.16-18.32-.05-4.15-.14-8.07,3.34-8.24,6.89,0,.05-.13,.1-.57,.08,.29-1.17,.47-2.38,.9-3.5,2.11-5.49,6.45-8.62,11.68-10.74,.52-.21,1.12-.21,1.68-.3,.14-.02,.29,0,.44,0,21.19-.1,42.38-.16,63.57-.32,3.67-.03,6.31-2.21,8.77-4.77-.53,.85-.97,1.77-1.61,2.52-1.64,1.94-3.15,4.06-5.11,5.62-2.95,2.36-6.14,4.45-10.24,4.3-2.97-.11-5.94-.02-9.32-.02,0,4.65-.08,9.17,.07,13.68,.03,.84,1.02,1.64,1.67,2.61-1.51,1-1.69,2.6-1.83,4.43-.15,2.07,.91,3.05,2.6,4.05-3.16,2.1-3.09,5.12-2.69,8.27h2.95v.32c-.39,.03-.79,.01-1.17,.09-1.09,.23-1.92,.6-1.93,2.02-.03,5.21-.1,10.43-.29,15.63-.13,3.49-1.41,6.6-3.64,9.33-3.64,4.47-7.23,8.99-10.86,13.47-.33,.41-.76,.73-1.26,1.22v-.02Zm-6.95-44.26c.13-.05,.26-.1,.38-.15,.02-.18,.05-.35,.05-.53V19.15c0-1.37-.81-2.27-1.97-2.54-1.12-.27-2.36-.06-3.8-.06,2.09-1.38,4-2.65,6.12-4.05-2.76-.23-5.24-.48-6.96,1.96-.25,.35-.49,.71-.76,1.05-2.81,3.51-3.65,7.41-2.34,11.74,1.41,4.7,3.99,8.76,6.87,12.67,.81,1.11,1.6,2.23,2.4,3.35h.01Zm-10.22-27.88c-.89,.97-1.63,1.74-2.34,2.54-3.07,3.51-4.67,7.61-3.93,12.24,.92,5.82,3.18,11.16,6.55,16.06,3.79,5.51,7.25,11.25,11.06,16.74,2.43,3.5,5.22,6.77,7.93,10.07,1.06,1.29,2.54,1.58,4.27,1-.16-.26-.25-.41-.36-.56-4.61-6.18-9.29-12.31-13.82-18.55-4.65-6.4-8.75-13.15-12.07-20.34-1.8-3.91-2.27-8.1-.91-12.21,.78-2.34,2.27-4.45,3.61-6.99h0Zm30.9-2.99c-1.11,0-2.33,.08-3.54-.02-1.38-.12-1.77,.49-1.75,1.75,.05,3.38-.02,6.77,.03,10.15,.03,2.28,.24,4.56,.27,6.84,.05,4.35,0,8.7,.03,13.05,0,.9,.12,1.84,.37,2.7,.29,1,.98,1.83,2.1,1.81,1.12-.02,2.45-1.54,2.48-2.68,.04-1.51,.11-3.04-.03-4.54-.06-.68-.42-1.52-.94-1.94-2.06-1.66-2.1-1.61-.3-3.4,.07-.07,.14-.14,.21-.21,1.57-1.57,1.6-2.93,.04-4.45-.66-.64-1.39-1.21-2.2-1.9,1.01-1.12,1.83-2,2.6-2.91,.26-.31,.6-.71,.6-1.08,.04-4.32,.03-8.65,.03-13.17h0Zm0,36.2c-1.91,2.04-3.88,4.1-5.81,6.2-1.07,1.17-2.05,2.42-3.1,3.61-.47,.53-.88,1.03-.37,1.73,1.92,2.62,3.83,5.26,5.79,7.86,1.22,1.62,1.66,1.53,2.43-.41,.09-.22,.15-.45,.18-.69,.3-2.62,.73-5.24,.85-7.86,.15-3.43,.04-6.88,.04-10.43h0Zm-13.1-6.62c1.17-1.49,2.02-2.62,2-4.4-.1-6.49-.04-12.97-.04-19.46,0-.34,.12-.75-.03-1.01-.26-.45-.68-.8-1.03-1.19-.33,.41-.7,.8-.97,1.25-.11,.18-.02,.48-.02,.72v22.39c0,.46,.05,.92,.09,1.69h0Zm1.67,.72c-1.74,1.76-3.5,3.5-5.19,5.3-.22,.23-.24,.91-.05,1.2,1.04,1.63,2.17,3.21,3.27,4.81,2.96-3.34,2.12-7.32,1.98-11.31h0Zm.82-30.19h-2.2v2.64c.82-.98,1.45-1.74,2.2-2.64Z"></path><g><path class="cls-1" d="M7.66,54.23V31.51H0v-3.18H19.2v3.18h-7.62v22.72h-3.92Z"></path><path class="cls-1" d="M16.98,54.23l9.55-25.9h4.29l9.47,25.9h-4.14l-2.22-6.33h-10.58l-2.22,6.33h-4.15Zm7.47-9.44h8.36l-4.18-11.8-4.18,11.8Z"></path><path class="cls-1" d="M42.51,54.23V28.33h3.92v25.9h-3.92Z"></path><path class="cls-1" d="M62.23,54.67c-2.57,0-4.81-.57-6.73-1.7-1.92-1.13-3.43-2.71-4.51-4.72-1.09-2.01-1.63-4.33-1.63-6.97s.54-4.96,1.63-6.97c1.08-2.01,2.59-3.58,4.51-4.72,1.92-1.13,4.17-1.7,6.73-1.7s4.81,.57,6.73,1.7c1.92,1.13,3.42,2.71,4.5,4.72,1.07,2.01,1.61,4.33,1.61,6.97s-.54,4.96-1.61,6.97-2.57,3.58-4.5,4.72c-1.92,1.13-4.17,1.7-6.73,1.7Zm0-3.51c1.78,0,3.32-.39,4.64-1.18s2.35-1.92,3.09-3.4,1.11-3.24,1.11-5.29-.37-3.81-1.11-5.29-1.77-2.61-3.09-3.4-2.87-1.18-4.64-1.18-3.33,.4-4.66,1.18c-1.33,.79-2.36,1.92-3.09,3.4s-1.09,3.24-1.09,5.29,.36,3.81,1.09,5.29,1.76,2.62,3.09,3.4c1.33,.79,2.89,1.18,4.66,1.18Z"></path><path class="cls-1" d="M78.03,54.23V28.33h9.77c2.69,0,4.72,.63,6.11,1.89,1.38,1.26,2.07,2.84,2.07,4.74,0,1.65-.44,2.97-1.33,3.94-.89,.97-1.96,1.63-3.22,1.98,.99,.2,1.87,.59,2.64,1.18,.78,.59,1.39,1.33,1.83,2.22s.67,1.85,.67,2.89c0,1.33-.33,2.53-.98,3.61-.65,1.07-1.61,1.92-2.87,2.53-1.26,.62-2.8,.92-4.62,.92h-10.07Zm3.92-14.8h5.37c1.5,0,2.65-.35,3.44-1.05,.79-.7,1.18-1.67,1.18-2.9s-.39-2.17-1.17-2.89-1.96-1.07-3.53-1.07h-5.29v7.92h0Zm0,11.57h5.62c1.58,0,2.81-.37,3.68-1.11,.88-.74,1.31-1.78,1.31-3.11s-.46-2.39-1.37-3.16c-.91-.78-2.15-1.17-3.7-1.17h-5.55v8.55h.01Z"></path><path class="cls-1" d="M97.45,54.23l9.55-25.9h4.29l9.47,25.9h-4.14l-2.22-6.33h-10.58l-2.22,6.33h-4.15Zm7.47-9.44h8.36l-4.18-11.8-4.18,11.8h0Z"></path><path class="cls-1" d="M194.88,54.67c-1.9,0-3.56-.33-5-1s-2.55-1.62-3.35-2.85-1.21-2.7-1.24-4.4h4.14c.02,1.38,.5,2.55,1.44,3.52s2.26,1.44,3.96,1.44c1.5,0,2.68-.36,3.53-1.09,.85-.73,1.28-1.66,1.28-2.79,0-.91-.2-1.65-.61-2.22s-.96-1.04-1.67-1.41c-.7-.37-1.51-.7-2.42-1s-1.88-.62-2.89-.96c-2-.67-3.5-1.53-4.5-2.59s-1.5-2.45-1.5-4.18c-.03-1.46,.31-2.73,1.02-3.81s1.69-1.93,2.96-2.53,2.76-.91,4.46-.91,3.15,.31,4.42,.93,2.26,1.47,2.98,2.57c.71,1.1,1.08,2.37,1.11,3.83h-4.14c0-.67-.17-1.3-.52-1.91-.35-.6-.85-1.1-1.52-1.5s-1.48-.59-2.44-.59c-1.23-.02-2.25,.28-3.05,.93-.8,.64-1.2,1.53-1.2,2.66,0,1.01,.3,1.79,.89,2.33,.59,.54,1.41,.99,2.44,1.35,1.04,.36,2.22,.77,3.55,1.24,1.28,.42,2.43,.92,3.44,1.52,1.01,.59,1.82,1.37,2.42,2.33,.6,.96,.91,2.18,.91,3.66,0,1.31-.33,2.52-1,3.64s-1.67,2.04-3,2.74-2.97,1.05-4.92,1.05h.02Z"></path><path class="cls-1" d="M212.27,54.23V31.51h-7.66v-3.18h19.2v3.18h-7.62v22.72h-3.92Z"></path><path class="cls-1" d="M235.76,54.67c-1.85,0-3.52-.36-5.01-1.09-1.49-.73-2.68-1.84-3.55-3.35-.88-1.5-1.31-3.42-1.31-5.73V28.33h3.92v16.21c0,2.27,.54,3.93,1.63,4.99,1.08,1.06,2.55,1.59,4.4,1.59s3.28-.53,4.37-1.59c1.08-1.06,1.63-2.73,1.63-4.99V28.33h3.92v16.17c0,2.32-.45,4.23-1.35,5.73s-2.11,2.62-3.63,3.35c-1.52,.73-3.19,1.09-5.01,1.09h-.01Z"></path><path class="cls-1" d="M249.38,54.23V28.33h8.4c3.03,0,5.53,.53,7.49,1.59s3.42,2.56,4.37,4.5c.95,1.94,1.42,4.24,1.42,6.9s-.47,4.93-1.42,6.86c-.95,1.94-2.41,3.43-4.37,4.48s-4.46,1.57-7.49,1.57h-8.4Zm3.92-3.33h4.33c2.34,0,4.2-.38,5.57-1.15,1.37-.76,2.36-1.86,2.96-3.29s.91-3.15,.91-5.14-.3-3.72-.91-5.18-1.59-2.57-2.96-3.35-3.23-1.17-5.57-1.17h-4.33v19.28Z"></path><path class="cls-1" d="M273.98,54.23V28.33h3.92v25.9h-3.92Z"></path><path class="cls-1" d="M293.7,54.67c-2.57,0-4.81-.57-6.73-1.7s-3.43-2.71-4.51-4.72c-1.09-2.01-1.63-4.33-1.63-6.97s.54-4.96,1.63-6.97c1.08-2.01,2.59-3.58,4.51-4.72,1.92-1.13,4.17-1.7,6.73-1.7s4.81,.57,6.73,1.7,3.42,2.71,4.5,4.72c1.07,2.01,1.61,4.33,1.61,6.97s-.54,4.96-1.61,6.97c-1.07,2.01-2.57,3.58-4.5,4.72-1.92,1.13-4.17,1.7-6.73,1.7Zm0-3.51c1.78,0,3.32-.39,4.64-1.18s2.35-1.92,3.09-3.4,1.11-3.24,1.11-5.29-.37-3.81-1.11-5.29-1.77-2.61-3.09-3.4-2.87-1.18-4.64-1.18-3.33,.4-4.66,1.18c-1.33,.79-2.36,1.92-3.09,3.4s-1.09,3.24-1.09,5.29,.36,3.81,1.09,5.29,1.76,2.62,3.09,3.4c1.33,.79,2.89,1.18,4.66,1.18Z"></path></g></svg>